  0
SECTION
  2
HEADER
  9
$ACADVER
  1
AC1021
  9
$ACADMAINTVER
 70
    25
  9
$DWGCODEPAGE
  3
ANSI_1252
  9
$INSBASE
 10
0.0
 20
0.0
 30
0.0
  9
$EXTMIN
 10
-30.02646
 20
-20.02646
 30
0.0
  9
$EXTMAX
 10
30.02646
 20
20.02645
 30
0.0
  9
$LIMMIN
 10
0.0
 20
0.0
  9
$LIMMAX
 10
12.0
 20
9.0
  9
$ORTHOMODE
 70
     0
  9
$REGENMODE
 70
     1
  9
$FILLMODE
 70
     1
  9
$QTEXTMODE
 70
     0
  9
$MIRRTEXT
 70
     1
  9
$LTSCALE
 40
1.0
  9
$ATTMODE
 70
     1
  9
$TEXTSIZE
 40
0.2
  9
$TRACEWID
 40
0.05
  9
$TEXTSTYLE
  7
Standard
  9
$CLAYER
  8
0
  9
$CELTYPE
  6
ByLayer
  9
$CECOLOR
 62
   256
  9
$CELTSCALE
 40
1.0
  9
$DISPSILH
 70
     0
  9
$DIMSCALE
 40
1.0
  9
$DIMASZ
 40
0.18
  9
$DIMEXO
 40
0.0625
  9
$DIMDLI
 40
0.38
  9
$DIMRND
 40
0.0
  9
$DIMDLE
 40
0.0
  9
$DIMEXE
 40
0.18
  9
$DIMTP
 40
0.0
  9
$DIMTM
 40
0.0
  9
$DIMTXT
 40
0.18
  9
$DIMCEN
 40
0.09
  9
$DIMTSZ
 40
0.0
  9
$DIMTOL
 70
     0
  9
$DIMLIM
 70
     0
  9
$DIMTIH
 70
     1
  9
$DIMTOH
 70
     1
  9
$DIMSE1
 70
     0
  9
$DIMSE2
 70
     0
  9
$DIMTAD
 70
     0
  9
$DIMZIN
 70
     0
  9
$DIMBLK
  1

  9
$DIMASO
 70
     1
  9
$DIMSHO
 70
     1
  9
$DIMPOST
  1

  9
$DIMAPOST
  1

  9
$DIMALT
 70
     0
  9
$DIMALTD
 70
     2
  9
$DIMALTF
 40
25.4
  9
$DIMLFAC
 40
1.0
  9
$DIMTOFL
 70
     0
  9
$DIMTVP
 40
0.0
  9
$DIMTIX
 70
     0
  9
$DIMSOXD
 70
     0
  9
$DIMSAH
 70
     0
  9
$DIMBLK1
  1

  9
$DIMBLK2
  1

  9
$DIMSTYLE
  2
Standard
  9
$DIMCLRD
 70
     0
  9
$DIMCLRE
 70
     0
  9
$DIMCLRT
 70
     0
  9
$DIMTFAC
 40
1.0
  9
$DIMGAP
 40
0.09
  9
$DIMJUST
 70
     0
  9
$DIMSD1
 70
     0
  9
$DIMSD2
 70
     0
  9
$DIMTOLJ
 70
     1
  9
$DIMTZIN
 70
     0
  9
$DIMALTZ
 70
     0
  9
$DIMALTTZ
 70
     0
  9
$DIMUPT
 70
     0
  9
$DIMDEC
 70
     4
  9
$DIMTDEC
 70
     4
  9
$DIMALTU
 70
     2
  9
$DIMALTTD
 70
     2
  9
$DIMTXSTY
  7
Standard
  9
$DIMAUNIT
 70
     0
  9
$DIMADEC
 70
     0
  9
$DIMALTRND
 40
0.0
  9
$DIMAZIN
 70
     0
  9
$DIMDSEP
 70
    46
  9
$DIMATFIT
 70
     3
  9
$DIMFRAC
 70
     0
  9
$DIMLDRBLK
  1

  9
$DIMLUNIT
 70
     2
  9
$DIMLWD
 70
    -2
  9
$DIMLWE
 70
    -2
  9
$DIMTMOVE
 70
     0
  9
$DIMFXL
 40
1.0
  9
$DIMFXLON
 70
     0
  9
$DIMJOGANG
 40
0.7853981633974483
  9
$DIMTFILL
 70
     0
  9
$DIMTFILLCLR
 70
     0
  9
$DIMARCSYM
 70
     0
  9
$DIMLTYPE
  6

  9
$DIMLTEX1
  6

  9
$DIMLTEX2
  6

  9
$LUNITS
 70
     2
  9
$LUPREC
 70
     4
  9
$SKETCHINC
 40
0.1
  9
$FILLETRAD
 40
0.5
  9
$AUNITS
 70
     0
  9
$AUPREC
 70
     0
  9
$MENU
  1
.
  9
$ELEVATION
 40
0.0
  9
$PELEVATION
 40
0.0
  9
$THICKNESS
 40
0.0
  9
$LIMCHECK
 70
     0
  9
$CHAMFERA
 40
0.5
  9
$CHAMFERB
 40
0.5
  9
$CHAMFERC
 40
1.0
  9
$CHAMFERD
 40
0.0
  9
$SKPOLY
 70
     0
  9
$TDCREATE
 40
2460657.465394884
  9
$TDUCREATE
 40
2460657.465394884
  9
$TDUPDATE
 40
2460657.46539493
  9
$TDUUPDATE
 40
2460657.46539493
  9
$TDINDWG
 40
0.0000000116
  9
$TDUSRTIMER
 40
0.0000000116
  9
$USRTIMER
 70
     1
  9
$ANGBASE
 50
0.0
  9
$ANGDIR
 70
     0
  9
$PDMODE
 70
     0
  9
$PDSIZE
 40
0.0
  9
$PLINEWID
 40
0.0
  9
$SPLFRAME
 70
     0
  9
$SPLINETYPE
 70
     6
  9
$SPLINESEGS
 70
     8
  9
$HANDSEED
  5
D8
  9
$SURFTAB1
 70
     6
  9
$SURFTAB2
 70
     6
  9
$SURFTYPE
 70
     6
  9
$SURFU
 70
     6
  9
$SURFV
 70
     6
  9
$UCSBASE
  2

  9
$UCSNAME
  2

  9
$UCSORG
 10
0.0
 20
0.0
 30
0.0
  9
$UCSXDIR
 10
1.0
 20
0.0
 30
0.0
  9
$UCSYDIR
 10
0.0
 20
1.0
 30
0.0
  9
$UCSORTHOREF
  2

  9
$UCSORTHOVIEW
 70
     0
  9
$UCSORGTOP
 10
0.0
 20
0.0
 30
0.0
  9
$UCSORGBOTTOM
 10
0.0
 20
0.0
 30
0.0
  9
$UCSORGLEFT
 10
0.0
 20
0.0
 30
0.0
  9
$UCSORGRIGHT
 10
0.0
 20
0.0
 30
0.0
  9
$UCSORGFRONT
 10
0.0
 20
0.0
 30
0.0
  9
$UCSORGBACK
 10
0.0
 20
0.0
 30
0.0
  9
$PUCSBASE
  2

  9
$PUCSNAME
  2

  9
$PUCSORG
 10
0.0
 20
0.0
 30
0.0
  9
$PUCSXDIR
 10
1.0
 20
0.0
 30
0.0
  9
$PUCSYDIR
 10
0.0
 20
1.0
 30
0.0
  9
$PUCSORTHOREF
  2

  9
$PUCSORTHOVIEW
 70
     0
  9
$PUCSORGTOP
 10
0.0
 20
0.0
 30
0.0
  9
$PUCSORGBOTTOM
 10
0.0
 20
0.0
 30
0.0
  9
$PUCSORGLEFT
 10
0.0
 20
0.0
 30
0.0
  9
$PUCSORGRIGHT
 10
0.0
 20
0.0
 30
0.0
  9
$PUCSORGFRONT
 10
0.0
 20
0.0
 30
0.0
  9
$PUCSORGBACK
 10
0.0
 20
0.0
 30
0.0
  9
$USERI1
 70
     0
  9
$USERI2
 70
     0
  9
$USERI3
 70
     0
  9
$USERI4
 70
     0
  9
$USERI5
 70
     0
  9
$USERR1
 40
0.0
  9
$USERR2
 40
0.0
  9
$USERR3
 40
0.0
  9
$USERR4
 40
0.0
  9
$USERR5
 40
0.0
  9
$WORLDVIEW
 70
     1
  9
$SHADEDGE
 70
     3
  9
$SHADEDIF
 70
    70
  9
$TILEMODE
 70
     1
  9
$MAXACTVP
 70
    64
  9
$PINSBASE
 10
0.0
 20
0.0
 30
0.0
  9
$PLIMCHECK
 70
     0
  9
$PEXTMIN
 10
1.000000000000000E+20
 20
1.000000000000000E+20
 30
1.000000000000000E+20
  9
$PEXTMAX
 10
-1.000000000000000E+20
 20
-1.000000000000000E+20
 30
-1.000000000000000E+20
  9
$PLIMMIN
 10
0.0
 20
0.0
  9
$PLIMMAX
 10
12.0
 20
9.0
  9
$UNITMODE
 70
     0
  9
$VISRETAIN
 70
     1
  9
$PLINEGEN
 70
     0
  9
$PSLTSCALE
 70
     1
  9
$TREEDEPTH
 70
  3020
  9
$CMLSTYLE
  2
Standard
  9
$CMLJUST
 70
     0
  9
$CMLSCALE
 40
1.0
  9
$PROXYGRAPHICS
 70
     1
  9
$MEASUREMENT
 70
     0
  9
$CELWEIGHT
370
    -1
  9
$ENDCAPS
280
     0
  9
$JOINSTYLE
280
     0
  9
$LWDISPLAY
290
     0
  9
$INSUNITS
 70
     5
  9
$HYPERLINKBASE
  1

  9
$STYLESHEET
  1

  9
$XEDIT
290
     1
  9
$CEPSNTYPE
380
     0
  9
$PSTYLEMODE
290
     1
  9
$FINGERPRINTGUID
  2
{C430B140-FF5C-4094-9466-DCA7EF62E3C2}
  9
$VERSIONGUID
  2
{FAEB1C32-E019-11D5-929B-00C0DF256EC4}
  9
$EXTNAMES
290
     1
  9
$PSVPSCALE
 40
0.0
  9
$OLESTARTUP
290
     0
  9
$SORTENTS
280
   127
  9
$INDEXCTL
280
     0
  9
$HIDETEXT
280
     1
  9
$XCLIPFRAME
290
     0
  9
$HALOGAP
280
     0
  9
$OBSCOLOR
 70
   257
  9
$OBSLTYPE
280
     0
  9
$INTERSECTIONDISPLAY
280
     0
  9
$INTERSECTIONCOLOR
 70
   257
  9
$DIMASSOC
280
     2
  9
$PROJECTNAME
  1

  9
$CAMERADISPLAY
290
     0
  9
$LENSLENGTH
 40
50.0
  9
$CAMERAHEIGHT
 40
0.0
  9
$STEPSPERSEC
 40
2.0
  9
$STEPSIZE
 40
6.0
  9
$3DDWFPREC
 40
2.0
  9
$PSOLWIDTH
 40
0.25
  9
$PSOLHEIGHT
 40
4.0
  9
$LOFTANG1
 40
1.570796326794897
  9
$LOFTANG2
 40
1.570796326794897
  9
$LOFTMAG1
 40
0.0
  9
$LOFTMAG2
 40
0.0
  9
$LOFTPARAM
 70
     7
  9
$LOFTNORMALS
280
     1
  9
$LATITUDE
 40
37.795
  9
$LONGITUDE
 40
-122.394
  9
$NORTHDIRECTION
 40
0.0
  9
$TIMEZONE
 70
 -8000
  9
$LIGHTGLYPHDISPLAY
280
     1
  9
$TILEMODELIGHTSYNCH
280
     1
  9
$SOLIDHIST
280
     1
  9
$SHOWHIST
280
     1
  9
$DWFFRAME
280
     2
  9
$DGNFRAME
280
     2
  9
$REALWORLDSCALE
290
     1
  9
$INTERFERECOLOR
 62
   256
  9
$CSHADOW
280
     0
  9
$SHADOWPLANELOCATION
 40
0.0
  0
ENDSEC
  0
SECTION
  2
CLASSES
  0
CLASS
  1
ACDBDICTIONARYWDFLT
  2
AcDbDictionaryWithDefault
  3
ObjectDBX Classes
 90
        0
 91
        4
280
     0
281
     0
  0
CLASS
  1
VISUALSTYLE
  2
AcDbVisualStyle
  3
ObjectDBX Classes
 90
     4095
 91
        4
280
     0
281
     0
  0
CLASS
  1
MATERIAL
  2
AcDbMaterial
  3
ObjectDBX Classes
 90
     1153
 91
        4
280
     0
281
     0
  0
ENDSEC
  0
SECTION
  2
TABLES
  0
TABLE
  2
VPORT
  5
8
330
0
100
AcDbSymbolTable
 70
     1
  0
VPORT
  5
29
330
8
100
AcDbSymbolTableRecord
100
AcDbViewportTableRecord
  2
*Active
 70
     0
 10
0.0
 20
0.0
 11
1.0
 21
1.0
 12
10.42990654205607
 22
4.5
 13
0.0
 23
0.0
 14
0.5
 24
0.5
 15
0.5
 25
0.5
 16
0.0
 26
0.0
 36
1.0
 17
0.0
 27
0.0
 37
0.0
 40
9.0
 41
1.972972972850329
 42
50.0
 43
0.0
 44
0.0
 50
0.0
 51
0.0
 71
     0
 72
   100
 73
     1
 74
     3
 75
     0
 76
     0
 77
     0
 78
     0
281
     0
 65
     1
110
0.0
120
0.0
130
0.0
111
1.0
121
0.0
131
0.0
112
0.0
122
1.0
132
0.0
 79
     0
146
0.0
 60
     3
 61
     5
292
     1
282
     1
141
0.0
142
0.0
 63
   250
  0
ENDTAB
  0
TABLE
  2
LTYPE
  5
5
330
0
100
AcDbSymbolTable
 70
     1
  0
LTYPE
  5
14
330
5
100
AcDbSymbolTableRecord
100
AcDbLinetypeTableRecord
  2
ByBlock
 70
     0
  3

 72
    65
 73
     0
 40
0.0
  0
LTYPE
  5
15
330
5
100
AcDbSymbolTableRecord
100
AcDbLinetypeTableRecord
  2
ByLayer
 70
     0
  3

 72
    65
 73
     0
 40
0.0
  0
LTYPE
  5
16
330
5
100
AcDbSymbolTableRecord
100
AcDbLinetypeTableRecord
  2
Continuous
 70
     0
  3
Solid line
 72
    65
 73
     0
 40
0.0
  0
ENDTAB
  0
TABLE
  2
LAYER
  5
2
330
0
100
AcDbSymbolTable
 70
     2
  0
LAYER
  5
10
330
2
100
AcDbSymbolTableRecord
100
AcDbLayerTableRecord
  2
0
 70
     0
 62
     7
  6
Continuous
370
    -3
390
F
347
3E
  0
LAYER
  5
40
330
2
100
AcDbSymbolTableRecord
100
AcDbLayerTableRecord
  2
Layer 1
 70
     0
 62
     7
  6
Continuous
370
    -3
390
F
347
3E
  0
ENDTAB
  0
TABLE
  2
STYLE
  5
3
330
0
100
AcDbSymbolTable
 70
     1
  0
STYLE
  5
11
330
3
100
AcDbSymbolTableRecord
100
AcDbTextStyleTableRecord
  2
Standard
 70
     0
 40
0.0
 41
1.0
 50
0.0
 71
     0
 42
0.2
  3
txt
  4

  0
ENDTAB
  0
TABLE
  2
VIEW
  5
6
330
0
100
AcDbSymbolTable
 70
     0
  0
ENDTAB
  0
TABLE
  2
UCS
  5
7
330
0
100
AcDbSymbolTable
 70
     0
  0
ENDTAB
  0
TABLE
  2
APPID
  5
9
330
0
100
AcDbSymbolTable
 70
     2
  0
APPID
  5
12
330
9
100
AcDbSymbolTableRecord
100
AcDbRegAppTableRecord
  2
ACAD
 70
     0
  0
APPID
  5
3F
330
9
100
AcDbSymbolTableRecord
100
AcDbRegAppTableRecord
  2
ODA
 70
     0
  0
ENDTAB
  0
TABLE
  2
DIMSTYLE
  5
A
330
0
100
AcDbSymbolTable
 70
     1
100
AcDbDimStyleTable
  0
DIMSTYLE
105
27
330
A
100
AcDbSymbolTableRecord
100
AcDbDimStyleTableRecord
  2
Standard
 70
     0
178
     0
340
11
  0
ENDTAB
  0
TABLE
  2
BLOCK_RECORD
  5
1
330
0
100
AcDbSymbolTable
 70
     1
  0
BLOCK_RECORD
  5
1F
330
1
100
AcDbSymbolTableRecord
100
AcDbBlockTableRecord
  2
*Model_Space
340
22
 70
     0
280
     1
281
     0
  0
BLOCK_RECORD
  5
1B
330
1
100
AcDbSymbolTableRecord
100
AcDbBlockTableRecord
  2
*Paper_Space
340
1E
 70
     0
280
     1
281
     0
  0
BLOCK_RECORD
  5
23
330
1
100
AcDbSymbolTableRecord
100
AcDbBlockTableRecord
  2
*Paper_Space0
340
26
 70
     0
280
     1
281
     0
  0
ENDTAB
  0
ENDSEC
  0
SECTION
  2
BLOCKS
  0
BLOCK
  5
20
330
1F
100
AcDbEntity
  8
0
100
AcDbBlockBegin
  2
*Model_Space
 70
     0
 10
0.0
 20
0.0
 30
0.0
  3
*Model_Space
  1

  0
ENDBLK
  5
21
330
1F
100
AcDbEntity
  8
0
100
AcDbBlockEnd
  0
BLOCK
  5
1C
330
1B
100
AcDbEntity
 67
     1
  8
0
100
AcDbBlockBegin
  2
*Paper_Space
 70
     0
 10
0.0
 20
0.0
 30
0.0
  3
*Paper_Space
  1

  0
ENDBLK
  5
1D
330
1B
100
AcDbEntity
 67
     1
  8
0
100
AcDbBlockEnd
  0
BLOCK
  5
24
330
23
100
AcDbEntity
  8
0
100
AcDbBlockBegin
  2
*Paper_Space0
 70
     0
 10
0.0
 20
0.0
 30
0.0
  3
*Paper_Space0
  1

  0
ENDBLK
  5
25
330
23
100
AcDbEntity
  8
0
100
AcDbBlockEnd
  0
ENDSEC
  0
SECTION
  2
ENTITIES
  0
LWPOLYLINE
  5
41
330
1F
100
AcDbEntity
  8
Layer 1
370
    53
100
AcDbPolyline
 90
        5
 70
     1
 43
0.0
 10
-30.0
 20
-19.99999
 10
30.0
 20
-19.99999
 10
30.0
 20
19.99999
 10
-30.0
 20
19.99999
 10
-30.0
 20
-19.99999
  0
SPLINE
  5
42
330
1F
100
AcDbEntity
  8
Layer 1
 62
     5
370
    53
100
AcDbSpline
210
0.0
220
0.0
230
1.0
 70
     8
 71
     3
 72
    20
 73
    16
 74
     0
 42
0.0000000001
 43
0.0000000001
 12
1.0
 22
0.0
 32
0.0
 13
1.0
 23
0.0
 33
0.0
 40
0.0
 40
0.0
 40
0.0
 40
0.0
 40
0.2
 40
0.2
 40
0.2
 40
0.2
 40
0.4
 40
0.4
 40
0.4
 40
0.4
 40
0.6
 40
0.6
 40
0.6
 40
0.6
 40
1.0
 40
1.0
 40
1.0
 40
1.0
 10
24.65
 20
-19.94999
 30
0.0
 10
24.57522
 20
-18.97657
 30
0.0
 10
21.69071
 20
-12.61256
 30
0.0
 10
21.15001
 20
-11.04999
 30
0.0
 10
21.15001
 20
-11.04999
 30
0.0
 10
21.55298
 20
-10.73194
 30
0.0
 10
21.50105
 20
-10.80533
 30
0.0
 10
21.95
 20
-10.64999
 30
0.0
 10
21.95
 20
-10.64999
 30
0.0
 10
22.51293
 20
-12.05357
 30
0.0
 10
23.02994
 20
-13.68978
 30
0.0
 10
23.51665
 20
-15.14999
 30
0.0
 10
23.51665
 20
-15.14999
 30
0.0
 10
23.9594
 20
-16.47817
 30
0.0
 10
24.80783
 20
-18.46843
 30
0.0
 10
25.05
 20
-19.75
 30
0.0
  0
SPLINE
  5
43
330
1F
100
AcDbEntity
  8
Layer 1
 62
     5
370
    53
100
AcDbSpline
210
0.0
220
0.0
230
1.0
 70
     8
 71
     3
 72
    12
 73
     8
 74
     0
 42
0.0000000001
 43
0.0000000001
 12
1.0
 22
0.0
 32
0.0
 13
1.0
 23
0.0
 33
0.0
 40
0.0
 40
0.0
 40
0.0
 40
0.0
 40
0.3333333333333333
 40
0.3333333333333333
 40
0.3333333333333333
 40
0.3333333333333333
 40
1.0
 40
1.0
 40
1.0
 40
1.0
 10
-16.05
 20
-19.94999
 30
0.0
 10
-16.05
 20
-19.94999
 30
0.0
 10
-16.65
 20
-19.94999
 30
0.0
 10
-16.65
 20
-19.94999
 30
0.0
 10
-16.65
 20
-19.94999
 30
0.0
 10
-17.05346
 20
-19.81917
 30
0.0
 10
-17.33571
 20
-19.81985
 30
0.0
 10
-17.74999
 20
-19.65
 30
0.0
  0
SPLINE
  5
44
330
1F
100
AcDbEntity
  8
Layer 1
 62
     5
370
    53
100
AcDbSpline
210
0.0
220
0.0
230
1.0
 70
    24
 71
     3
 72
     8
 73
     4
 74
     0
 42
0.0000000001
 43
0.0000000001
 12
1.0
 22
0.0
 32
0.0
 13
1.0
 23
0.0
 33
0.0
 40
0.0
 40
0.0
 40
0.0
 40
0.0
 40
1.0
 40
1.0
 40
1.0
 40
1.0
 10
-18.05001
 20
-19.75
 30
0.0
 10
-18.05001
 20
-19.75
 30
0.0
 10
-17.95
 20
-19.65
 30
0.0
 10
-17.95
 20
-19.65
 30
0.0
  0
SPLINE
  5
45
330
1F
100
AcDbEntity
  8
Layer 1
 62
     5
370
    53
100
AcDbSpline
210
0.0
220
0.0
230
1.0
 70
     8
 71
     3
 72
     8
 73
     4
 74
     0
 42
0.0000000001
 43
0.0000000001
 12
1.0
 22
0.0
 32
0.0
 13
1.0
 23
0.0
 33
0.0
 40
0.0
 40
0.0
 40
0.0
 40
0.0
 40
1.0
 40
1.0
 40
1.0
 40
1.0
 10
13.55001
 20
-16.34999
 30
0.0
 10
13.69443
 20
-16.04965
 30
0.0
 10
13.69443
 20
-16.25032
 30
0.0
 10
13.55001
 20
-15.94999
 30
0.0
  0
SPLINE
  5
46
330
1F
100
AcDbEntity
  8
Layer 1
 62
     5
370
    53
100
AcDbSpline
210
0.0
220
0.0
230
1.0
 70
     8
 71
     3
 72
    12
 73
     8
 74
     0
 42
0.0000000001
 43
0.0000000001
 12
1.0
 22
0.0
 32
0.0
 13
1.0
 23
0.0
 33
0.0
 40
0.0
 40
0.0
 40
0.0
 40
0.0
 40
0.3333333333333333
 40
0.3333333333333333
 40
0.3333333333333333
 40
0.3333333333333333
 40
1.0
 40
1.0
 40
1.0
 40
1.0
 10
14.35
 20
-19.75
 30
0.0
 10
14.33359
 20
-18.99644
 30
0.0
 10
13.71521
 20
-17.22436
 30
0.0
 10
13.55001
 20
-16.34999
 30
0.0
 10
13.55001
 20
-16.34999
 30
0.0
 10
13.26014
 20
-16.13331
 30
0.0
 10
13.42956
 20
-16.38797
 30
0.0
 10
13.24999
 20
-15.94999
 30
0.0
  0
SPLINE
  5
47
330
1F
100
AcDbEntity
  8
Layer 1
 62
     5
370
    53
100
AcDbSpline
210
0.0
220
0.0
230
1.0
 70
     8
 71
     3
 72
    12
 73
     8
 74
     0
 42
0.0000000001
 43
0.0000000001
 12
1.0
 22
0.0
 32
0.0
 13
1.0
 23
0.0
 33
0.0
 40
0.0
 40
0.0
 40
0.0
 40
0.0
 40
0.3333333333333333
 40
0.3333333333333333
 40
0.3333333333333333
 40
0.3333333333333333
 40
1.0
 40
1.0
 40
1.0
 40
1.0
 10
6.45001
 20
-19.84998
 30
0.0
 10
6.31126
 20
-19.18815
 30
0.0
 10
6.28577
 20
-17.97625
 30
0.0
 10
6.25
 20
-17.74999
 30
0.0
 10
6.25
 20
-17.74999
 30
0.0
 10
6.25
 20
-17.74999
 30
0.0
 10
5.85
 20
-14.14999
 30
0.0
 10
5.85
 20
-14.14999
 30
0.0
  0
SPLINE
  5
48
330
1F
100
AcDbEntity
  8
Layer 1
 62
     5
370
    53
100
AcDbSpline
210
0.0
220
0.0
230
1.0
 70
     8
 71
     3
 72
    12
 73
     8
 74
     0
 42
0.0000000001
 43
0.0000000001
 12
1.0
 22
0.0
 32
0.0
 13
1.0
 23
0.0
 33
0.0
 40
0.0
 40
0.0
 40
0.0
 40
0.0
 40
0.3333333333333333
 40
0.3333333333333333
 40
0.3333333333333333
 40
0.3333333333333333
 40
1.0
 40
1.0
 40
1.0
 40
1.0
 10
-4.65001
 20
-19.84998
 30
0.0
 10
-4.57719
 20
-18.90224
 30
0.0
 10
-3.57177
 20
-14.84232
 30
0.0
 10
-3.25001
 20
-13.85
 30
0.0
 10
-3.25001
 20
-13.85
 30
0.0
 10
-3.25001
 20
-13.44813
 30
0.0
 10
-3.2673
 20
-13.65217
 30
0.0
 10
-3.15
 20
-13.34999
 30
0.0
  0
SPLINE
  5
49
330
1F
100
AcDbEntity
  8
Layer 1
 62
     5
370
    53
100
AcDbSpline
210
0.0
220
0.0
230
1.0
 70
     8
 71
     3
 72
    16
 73
    12
 74
     0
 42
0.0000000001
 43
0.0000000001
 12
1.0
 22
0.0
 32
0.0
 13
1.0
 23
0.0
 33
0.0
 40
0.0
 40
0.0
 40
0.0
 40
0.0
 40
0.25
 40
0.25
 40
0.25
 40
0.25
 40
0.5
 40
0.5
 40
0.5
 40
0.5
 40
1.0
 40
1.0
 40
1.0
 40
1.0
 10
-29.44999
 20
-19.94999
 30
0.0
 10
-29.82663
 20
-19.40466
 30
0.0
 10
-29.04427
 20
-18.67941
 30
0.0
 10
-28.72571
 20
-18.14999
 30
0.0
 10
-28.72571
 20
-18.14999
 30
0.0
 10
-28.35794
 20
-17.53881
 30
0.0
 10
-27.99179
 20
-16.96068
 30
0.0
 10
-27.61626
 20
-16.34999
 30
0.0
 10
-27.61626
 20
-16.34999
 30
0.0
 10
-26.95839
 20
-15.28025
 30
0.0
 10
-25.99646
 20
-13.57036
 30
0.0
 10
-25.25001
 20
-12.65001
 30
0.0
  0
SPLINE
  5
4A
330
1F
100
AcDbEntity
  8
Layer 1
 62
     5
370
    53
100
AcDbSpline
210
0.0
220
0.0
230
1.0
 70
     8
 71
     3
 72
     8
 73
     4
 74
     0
 42
0.0000000001
 43
0.0000000001
 12
1.0
 22
0.0
 32
0.0
 13
1.0
 23
0.0
 33
0.0
 40
0.0
 40
0.0
 40
0.0
 40
0.0
 40
1.0
 40
1.0
 40
1.0
 40
1.0
 10
-3.15
 20
-13.24999
 30
0.0
 10
-3.24972
 20
-12.26078
 30
0.0
 10
-6.62596
 20
-12.47667
 30
0.0
 10
-7.25001
 20
-11.75001
 30
0.0
  0
SPLINE
  5
4B
330
1F
100
AcDbEntity
  8
Layer 1
 62
     5
370
    53
100
AcDbSpline
210
0.0
220
0.0
230
1.0
 70
     8
 71
     3
 72
    16
 73
    12
 74
     0
 42
0.0000000001
 43
0.0000000001
 12
1.0
 22
0.0
 32
0.0
 13
1.0
 23
0.0
 33
0.0
 40
0.0
 40
0.0
 40
0.0
 40
0.0
 40
0.25
 40
0.25
 40
0.25
 40
0.25
 40
0.5
 40
0.5
 40
0.5
 40
0.5
 40
1.0
 40
1.0
 40
1.0
 40
1.0
 10
-18.05001
 20
-12.05
 30
0.0
 10
-17.63266
 20
-12.34732
 30
0.0
 10
-17.80013
 20
-12.24998
 30
0.0
 10
-17.24999
 20
-12.24998
 30
0.0
 10
-17.24999
 20
-12.24998
 30
0.0
 10
-16.82241
 20
-12.11137
 30
0.0
 10
-16.37757
 20
-12.08863
 30
0.0
 10
-15.94999
 20
-11.94999
 30
0.0
 10
-15.94999
 20
-11.94999
 30
0.0
 10
-15.45823
 20
-11.93928
 30
0.0
 10
-14.97674
 20
-11.82495
 30
0.0
 10
-14.55001
 20
-11.65
 30
0.0
  0
SPLINE
  5
4C
330
1F
100
AcDbEntity
  8
Layer 1
 62
     5
370
    53
100
AcDbSpline
210
0.0
220
0.0
230
1.0
 70
    24
 71
     3
 72
     8
 73
     4
 74
     0
 42
0.0000000001
 43
0.0000000001
 12
1.0
 22
0.0
 32
0.0
 13
1.0
 23
0.0
 33
0.0
 40
0.0
 40
0.0
 40
0.0
 40
0.0
 40
1.0
 40
1.0
 40
1.0
 40
1.0
 10
4.05
 20
-19.84998
 30
0.0
 10
4.05
 20
-19.84998
 30
0.0
 10
2.54999
 20
-11.44999
 30
0.0
 10
2.54999
 20
-11.44999
 30
0.0
  0
SPLINE
  5
4D
330
1F
100
AcDbEntity
  8
Layer 1
 62
     5
370
    53
100
AcDbSpline
210
0.0
220
0.0
230
1.0
 70
     8
 71
     3
 72
     8
 73
     4
 74
     0
 42
0.0000000001
 43
0.0000000001
 12
1.0
 22
0.0
 32
0.0
 13
1.0
 23
0.0
 33
0.0
 40
0.0
 40
0.0
 40
0.0
 40
0.0
 40
1.0
 40
1.0
 40
1.0
 40
1.0
 10
-8.84999
 20
-11.65
 30
0.0
 10
-9.42265
 20
-11.24204
 30
0.0
 10
-9.77735
 20
-11.45795
 30
0.0
 10
-10.35
 20
-11.04999
 30
0.0
  0
SPLINE
  5
4E
330
1F
100
AcDbEntity
  8
Layer 1
 62
     5
370
    53
100
AcDbSpline
210
0.0
220
0.0
230
1.0
 70
     8
 71
     3
 72
    16
 73
    12
 74
     0
 42
0.0000000001
 43
0.0000000001
 12
1.0
 22
0.0
 32
0.0
 13
1.0
 23
0.0
 33
0.0
 40
0.0
 40
0.0
 40
0.0
 40
0.0
 40
0.25
 40
0.25
 40
0.25
 40
0.25
 40
0.5
 40
0.5
 40
0.5
 40
0.5
 40
1.0
 40
1.0
 40
1.0
 40
1.0
 10
-13.85
 20
-11.65
 30
0.0
 10
-13.65146
 20
-11.55561
 30
0.0
 10
-13.56186
 20
-11.52023
 30
0.0
 10
-13.34999
 20
-11.44999
 30
0.0
 10
-13.34999
 20
-11.44999
 30
0.0
 10
-12.92502
 20
-11.41736
 30
0.0
 10
-12.57497
 20
-11.28263
 30
0.0
 10
-12.15
 20
-11.25
 30
0.0
 10
-12.15
 20
-11.25
 30
0.0
 10
-11.93942
 20
-11.18019
 30
0.0
 10
-11.84718
 20
-11.14169
 30
0.0
 10
-11.65
 20
-11.04999
 30
0.0
  0
SPLINE
  5
4F
330
1F
100
AcDbEntity
  8
Layer 1
 62
     5
370
    53
100
AcDbSpline
210
0.0
220
0.0
230
1.0
 70
     8
 71
     3
 72
    36
 73
    32
 74
     0
 42
0.0000000001
 43
0.0000000001
 12
1.0
 22
0.0
 32
0.0
 13
1.0
 23
0.0
 33
0.0
 40
0.0
 40
0.0
 40
0.0
 40
0.0
 40
0.1111111111111111
 40
0.1111111111111111
 40
0.1111111111111111
 40
0.1111111111111111
 40
0.2222222222222222
 40
0.2222222222222222
 40
0.2222222222222222
 40
0.2222222222222222
 40
0.3333333333333333
 40
0.3333333333333333
 40
0.3333333333333333
 40
0.3333333333333333
 40
0.4444444444444444
 40
0.4444444444444444
 40
0.4444444444444444
 40
0.4444444444444444
 40
0.5555555555555556
 40
0.5555555555555556
 40
0.5555555555555556
 40
0.5555555555555556
 40
0.6666666666666666
 40
0.6666666666666666
 40
0.6666666666666666
 40
0.6666666666666666
 40
0.7777777777777778
 40
0.7777777777777778
 40
0.7777777777777778
 40
0.7777777777777778
 40
1.0
 40
1.0
 40
1.0
 40
1.0
 10
-8.05
 20
-11.75001
 30
0.0
 10
-8.05
 20
-12.12285
 30
0.0
 10
-8.04286
 20
-11.93437
 30
0.0
 10
-7.94999
 20
-12.15
 30
0.0
 10
-7.94999
 20
-12.15
 30
0.0
 10
-6.71227
 20
-12.65743
 30
0.0
 10
-4.87165
 20
-12.82145
 30
0.0
 10
-3.55
 20
-13.24999
 30
0.0
 10
-3.55
 20
-13.24999
 30
0.0
 10
-3.55
 20
-13.24999
 30
0.0
 10
-3.15
 20
-13.24999
 30
0.0
 10
-3.15
 20
-13.24999
 30
0.0
 10
-3.15
 20
-13.24999
 30
0.0
 10
-3.15
 20
-13.24999
 30
0.0
 10
-3.15
 20
-13.34999
 30
0.0
 10
-3.15
 20
-13.34999
 30
0.0
 10
-3.15
 20
-13.34999
 30
0.0
 10
-1.95928
 20
-13.57498
 30
0.0
 10
-0.07379
 20
-13.98561
 30
0.0
 10
1.05001
 20
-14.35
 30
0.0
 10
1.05001
 20
-14.35
 30
0.0
 10
1.05001
 20
-14.35
 30
0.0
 10
1.64999
 20
-14.35
 30
0.0
 10
1.64999
 20
-14.35
 30
0.0
 10
1.64999
 20
-14.35
 30
0.0
 10
1.95063
 20
-13.61671
 30
0.0
 10
2.02575
 20
-11.88683
 30
0.0
 10
2.54999
 20
-11.44999
 30
0.0
 10
2.54999
 20
-11.44999
 30
0.0
 10
2.54999
 20
-11.03891
 30
0.0
 10
2.51719
 20
-11.19212
 30
0.0
 10
2.65
 20
-10.85001
 30
0.0
  0
SPLINE
  5
50
330
1F
100
AcDbEntity
  8
Layer 1
 62
     5
370
    53
100
AcDbSpline
210
0.0
220
0.0
230
1.0
 70
    24
 71
     3
 72
     8
 73
     4
 74
     0
 42
0.0000000001
 43
0.0000000001
 12
1.0
 22
0.0
 32
0.0
 13
1.0
 23
0.0
 33
0.0
 40
0.0
 40
0.0
 40
0.0
 40
0.0
 40
1.0
 40
1.0
 40
1.0
 40
1.0
 10
-18.14999
 20
-10.75
 30
0.0
 10
-18.14999
 20
-10.75
 30
0.0
 10
-18.35
 20
-10.44998
 30
0.0
 10
-18.35
 20
-10.44998
 30
0.0
  0
SPLINE
  5
51
330
1F
100
AcDbEntity
  8
Layer 1
 62
     5
370
    53
100
AcDbSpline
210
0.0
220
0.0
230
1.0
 70
     8
 71
     3
 72
    20
 73
    16
 74
     0
 42
0.0000000001
 43
0.0000000001
 12
1.0
 22
0.0
 32
0.0
 13
1.0
 23
0.0
 33
0.0
 40
0.0
 40
0.0
 40
0.0
 40
0.0
 40
0.2
 40
0.2
 40
0.2
 40
0.2
 40
0.4
 40
0.4
 40
0.4
 40
0.4
 40
0.6
 40
0.6
 40
0.6
 40
0.6
 40
1.0
 40
1.0
 40
1.0
 40
1.0
 10
11.44999
 20
-10.54999
 30
0.0
 10
11.50589
 20
-11.27747
 30
0.0
 10
12.91734
 20
-14.98865
 30
0.0
 10
13.24999
 20
-15.94999
 30
0.0
 10
13.24999
 20
-15.94999
 30
0.0
 10
13.24999
 20
-15.94999
 30
0.0
 10
13.55001
 20
-15.94999
 30
0.0
 10
13.55001
 20
-15.94999
 30
0.0
 10
13.55001
 20
-15.94999
 30
0.0
 10
13.55001
 20
-15.13551
 30
0.0
 10
13.11486
 20
-13.49436
 30
0.0
 10
13.05
 20
-12.65001
 30
0.0
 10
13.05
 20
-12.65001
 30
0.0
 10
15.00826
 20
-11.88981
 30
0.0
 10
20.18308
 20
-10.97861
 30
0.0
 10
21.74999
 20
-10.25
 30
0.0
  0
SPLINE
  5
52
330
1F
100
AcDbEntity
  8
Layer 1
 62
     5
370
    53
100
AcDbSpline
210
0.0
220
0.0
230
1.0
 70
     8
 71
     3
 72
     8
 73
     4
 74
     0
 42
0.0000000001
 43
0.0000000001
 12
1.0
 22
0.0
 32
0.0
 13
1.0
 23
0.0
 33
0.0
 40
0.0
 40
0.0
 40
0.0
 40
0.0
 40
1.0
 40
1.0
 40
1.0
 40
1.0
 10
5.85
 20
-13.74999
 30
0.0
 10
6.57845
 20
-13.67816
 30
0.0
 10
10.23514
 20
-10.84828
 30
0.0
 10
11.15
 20
-10.25
 30
0.0
  0
SPLINE
  5
53
330
1F
100
AcDbEntity
  8
Layer 1
 62
     5
370
    53
100
AcDbSpline
210
0.0
220
0.0
230
1.0
 70
     8
 71
     3
 72
    16
 73
    12
 74
     0
 42
0.0000000001
 43
0.0000000001
 12
1.0
 22
0.0
 32
0.0
 13
1.0
 23
0.0
 33
0.0
 40
0.0
 40
0.0
 40
0.0
 40
0.0
 40
0.25
 40
0.25
 40
0.25
 40
0.25
 40
0.5
 40
0.5
 40
0.5
 40
0.5
 40
1.0
 40
1.0
 40
1.0
 40
1.0
 10
11.94999
 20
-10.44998
 30
0.0
 10
12.14972
 20
-11.06598
 30
0.0
 10
12.20726
 20
-12.57676
 30
0.0
 10
12.95
 20
-12.65001
 30
0.0
 10
12.95
 20
-12.65001
 30
0.0
 10
12.95
 20
-11.51263
 30
0.0
 10
12.65001
 20
-11.12304
 30
0.0
 10
12.65001
 20
-10.14999
 30
0.0
 10
12.65001
 20
-10.14999
 30
0.0
 10
12.35072
 20
-10.24702
 30
0.0
 10
12.24204
 20
-10.23662
 30
0.0
 10
11.94999
 20
-10.35
 30
0.0
  0
SPLINE
  5
54
330
1F
100
AcDbEntity
  8
Layer 1
 62
     5
370
    53
100
AcDbSpline
210
0.0
220
0.0
230
1.0
 70
     8
 71
     3
 72
    20
 73
    16
 74
     0
 42
0.0000000001
 43
0.0000000001
 12
1.0
 22
0.0
 32
0.0
 13
1.0
 23
0.0
 33
0.0
 40
0.0
 40
0.0
 40
0.0
 40
0.0
 40
0.2
 40
0.2
 40
0.2
 40
0.2
 40
0.4
 40
0.4
 40
0.4
 40
0.4
 40
0.6
 40
0.6
 40
0.6
 40
0.6
 40
1.0
 40
1.0
 40
1.0
 40
1.0
 10
-7.84999
 20
-11.75001
 30
0.0
 10
-7.84999
 20
-11.75001
 30
0.0
 10
-7.25001
 20
-11.75001
 30
0.0
 10
-7.25001
 20
-11.75001
 30
0.0
 10
-7.25001
 20
-11.75001
 30
0.0
 10
-6.65711
 20
-11.40781
 30
0.0
 10
-6.02969
 20
-11.55745
 30
0.0
 10
-5.35
 20
-11.44999
 30
0.0
 10
-5.35
 20
-11.44999
 30
0.0
 10
-5.35
 20
-11.44999
 30
0.0
 10
2.54999
 20
-10.54999
 30
0.0
 10
2.54999
 20
-10.54999
 30
0.0
 10
2.54999
 20
-10.54999
 30
0.0
 10
2.54999
 20
-10.54999
 30
0.0
 10
2.54999
 20
-10.14999
 30
0.0
 10
2.54999
 20
-10.14999
 30
0.0
  0
SPLINE
  5
55
330
1F
100
AcDbEntity
  8
Layer 1
 62
     5
370
    53
100
AcDbSpline
210
0.0
220
0.0
230
1.0
 70
     8
 71
     3
 72
     8
 73
     4
 74
     0
 42
0.0000000001
 43
0.0000000001
 12
1.0
 22
0.0
 32
0.0
 13
1.0
 23
0.0
 33
0.0
 40
0.0
 40
0.0
 40
0.0
 40
0.0
 40
1.0
 40
1.0
 40
1.0
 40
1.0
 10
22.35
 20
-10.25
 30
0.0
 10
21.95215
 20
-10.09211
 30
0.0
 10
22.24784
 20
-10.09211
 30
0.0
 10
21.84999
 20
-10.25
 30
0.0
  0
SPLINE
  5
56
330
1F
100
AcDbEntity
  8
Layer 1
 62
     5
370
    53
100
AcDbSpline
210
0.0
220
0.0
230
1.0
 70
     8
 71
     3
 72
    48
 73
    44
 74
     0
 42
0.0000000001
 43
0.0000000001
 12
1.0
 22
0.0
 32
0.0
 13
1.0
 23
0.0
 33
0.0
 40
0.0
 40
0.0
 40
0.0
 40
0.0
 40
0.0833333333333333
 40
0.0833333333333333
 40
0.0833333333333333
 40
0.0833333333333333
 40
0.1666666666666667
 40
0.1666666666666667
 40
0.1666666666666667
 40
0.1666666666666667
 40
0.25
 40
0.25
 40
0.25
 40
0.25
 40
0.3333333333333333
 40
0.3333333333333333
 40
0.3333333333333333
 40
0.3333333333333333
 40
0.4166666666666667
 40
0.4166666666666667
 40
0.4166666666666667
 40
0.4166666666666667
 40
0.5
 40
0.5
 40
0.5
 40
0.5
 40
0.5833333333333334
 40
0.5833333333333334
 40
0.5833333333333334
 40
0.5833333333333334
 40
0.6666666666666666
 40
0.6666666666666666
 40
0.6666666666666666
 40
0.6666666666666666
 40
0.75
 40
0.75
 40
0.75
 40
0.75
 40
0.8333333333333334
 40
0.8333333333333334
 40
0.8333333333333334
 40
0.8333333333333334
 40
1.0
 40
1.0
 40
1.0
 40
1.0
 10
-17.85
 20
-10.14999
 30
0.0
 10
-17.86173
 20
-10.68823
 30
0.0
 10
-17.74324
 20
-10.47393
 30
0.0
 10
-18.14999
 20
-10.75
 30
0.0
 10
-18.14999
 20
-10.75
 30
0.0
 10
-18.04666
 20
-11.16766
 30
0.0
 10
-18.14999
 20
-11.15266
 30
0.0
 10
-18.14999
 20
-11.65
 30
0.0
 10
-18.14999
 20
-11.65
 30
0.0
 10
-18.0616
 20
-11.89576
 30
0.0
 10
-18.09414
 20
-11.82144
 30
0.0
 10
-18.05001
 20
-12.05
 30
0.0
 10
-18.05001
 20
-12.05
 30
0.0
 10
-18.39
 20
-12.31356
 30
0.0
 10
-19.85001
 20
-18.23877
 30
0.0
 10
-19.85001
 20
-19.14999
 30
0.0
 10
-19.85001
 20
-19.14999
 30
0.0
 10
-19.09767
 20
-19.45843
 30
0.0
 10
-18.40638
 20
-19.47283
 30
0.0
 10
-17.95
 20
-19.65
 30
0.0
 10
-17.95
 20
-19.65
 30
0.0
 10
-17.95
 20
-19.65
 30
0.0
 10
-17.74999
 20
-19.65
 30
0.0
 10
-17.74999
 20
-19.65
 30
0.0
 10
-17.74999
 20
-19.65
 30
0.0
 10
-17.65647
 20
-19.20615
 30
0.0
 10
-13.9538
 20
-13.28831
 30
0.0
 10
-13.45
 20
-12.65001
 30
0.0
 10
-13.45
 20
-12.65001
 30
0.0
 10
-13.40496
 20
-12.43517
 30
0.0
 10
-13.42557
 20
-12.478
 30
0.0
 10
-13.34999
 20
-12.24998
 30
0.0
 10
-13.34999
 20
-12.24998
 30
0.0
 10
-13.76156
 20
-11.9162
 30
0.0
 10
-13.71161
 20
-12.12072
 30
0.0
 10
-13.85
 20
-11.65
 30
0.0
 10
-13.85
 20
-11.65
 30
0.0
 10
-13.85
 20
-11.65
 30
0.0
 10
-14.55001
 20
-11.65
 30
0.0
 10
-14.55001
 20
-11.65
 30
0.0
 10
-14.55001
 20
-11.65
 30
0.0
 10
-15.02867
 20
-10.88465
 30
0.0
 10
-16.14121
 20
-10.70635
 30
0.0
 10
-16.65
 20
-10.04998
 30
0.0
  0
SPLINE
  5
57
330
1F
100
AcDbEntity
  8
Layer 1
 62
     5
370
    53
100
AcDbSpline
210
0.0
220
0.0
230
1.0
 70
     8
 71
     3
 72
     8
 73
     4
 74
     0
 42
0.0000000001
 43
0.0000000001
 12
1.0
 22
0.0
 32
0.0
 13
1.0
 23
0.0
 33
0.0
 40
0.0
 40
0.0
 40
0.0
 40
0.0
 40
1.0
 40
1.0
 40
1.0
 40
1.0
 10
29.75001
 20
-11.75001
 30
0.0
 10
29.12781
 20
-11.70219
 30
0.0
 10
24.70485
 20
-10.07876
 30
0.0
 10
24.44999
 20
-9.74999
 30
0.0
  0
SPLINE
  5
58
330
1F
100
AcDbEntity
  8
Layer 1
 62
     5
370
    53
100
AcDbSpline
210
0.0
220
0.0
230
1.0
 70
     8
 71
     3
 72
    12
 73
     8
 74
     0
 42
0.0000000001
 43
0.0000000001
 12
1.0
 22
0.0
 32
0.0
 13
1.0
 23
0.0
 33
0.0
 40
0.0
 40
0.0
 40
0.0
 40
0.0
 40
0.3333333333333333
 40
0.3333333333333333
 40
0.3333333333333333
 40
0.3333333333333333
 40
1.0
 40
1.0
 40
1.0
 40
1.0
 10
-18.14999
 20
-9.95001
 30
0.0
 10
-17.95539
 20
-10.1446
 30
0.0
 10
-18.04879
 20
-10.07496
 30
0.0
 10
-17.85
 20
-10.14999
 30
0.0
 10
-17.85
 20
-10.14999
 30
0.0
 10
-17.7391
 20
-9.91942
 30
0.0
 10
-17.74999
 20
-10.10676
 30
0.0
 10
-17.74999
 20
-9.74999
 30
0.0
  0
SPLINE
  5
59
330
1F
100
AcDbEntity
  8
Layer 1
 62
     5
370
    53
100
AcDbSpline
210
0.0
220
0.0
230
1.0
 70
     8
 71
     3
 72
    44
 73
    40
 74
     0
 42
0.0000000001
 43
0.0000000001
 12
1.0
 22
0.0
 32
0.0
 13
1.0
 23
0.0
 33
0.0
 40
0.0
 40
0.0
 40
0.0
 40
0.0
 40
0.0909090909090909
 40
0.0909090909090909
 40
0.0909090909090909
 40
0.0909090909090909
 40
0.1818181818181818
 40
0.1818181818181818
 40
0.1818181818181818
 40
0.1818181818181818
 40
0.2727272727272727
 40
0.2727272727272727
 40
0.2727272727272727
 40
0.2727272727272727
 40
0.3636363636363636
 40
0.3636363636363636
 40
0.3636363636363636
 40
0.3636363636363636
 40
0.4545454545454545
 40
0.4545454545454545
 40
0.4545454545454545
 40
0.4545454545454545
 40
0.5454545454545454
 40
0.5454545454545454
 40
0.5454545454545454
 40
0.5454545454545454
 40
0.6363636363636364
 40
0.6363636363636364
 40
0.6363636363636364
 40
0.6363636363636364
 40
0.7272727272727273
 40
0.7272727272727273
 40
0.7272727272727273
 40
0.7272727272727273
 40
0.8181818181818182
 40
0.8181818181818182
 40
0.8181818181818182
 40
0.8181818181818182
 40
1.0
 40
1.0
 40
1.0
 40
1.0
 10
-8.65001
 20
-19.84998
 30
0.0
 10
-8.65001
 20
-19.84998
 30
0.0
 10
-9.45
 20
-12.05
 30
0.0
 10
-9.45
 20
-12.05
 30
0.0
 10
-9.45
 20
-12.05
 30
0.0
 10
-8.96828
 20
-11.70681
 30
0.0
 10
-9.15789
 20
-12.00853
 30
0.0
 10
-8.84999
 20
-11.65
 30
0.0
 10
-8.84999
 20
-11.65
 30
0.0
 10
-8.63776
 20
-11.69448
 30
0.0
 10
-8.68493
 20
-11.66548
 30
0.0
 10
-8.45
 20
-11.75001
 30
0.0
 10
-8.45
 20
-11.75001
 30
0.0
 10
-8.45
 20
-11.75001
 30
0.0
 10
-8.05
 20
-11.75001
 30
0.0
 10
-8.05
 20
-11.75001
 30
0.0
 10
-8.05
 20
-11.75001
 30
0.0
 10
-8.05
 20
-11.75001
 30
0.0
 10
-7.84999
 20
-11.75001
 30
0.0
 10
-7.84999
 20
-11.75001
 30
0.0
 10
-7.84999
 20
-11.75001
 30
0.0
 10
-7.84999
 20
-10.89845
 30
0.0
 10
-7.66664
 20
-11.1134
 30
0.0
 10
-7.65
 20
-10.35
 30
0.0
 10
-7.65
 20
-10.35
 30
0.0
 10
-8.40813
 20
-10.49324
 30
0.0
 10
-9.83585
 20
-10.6725
 30
0.0
 10
-10.35
 20
-11.04999
 30
0.0
 10
-10.35
 20
-11.04999
 30
0.0
 10
-10.6617
 20
-11.04322
 30
0.0
 10
-10.76834
 20
-11.00322
 30
0.0
 10
-11.04999
 20
-10.94998
 30
0.0
 10
-11.04999
 20
-10.94998
 30
0.0
 10
-11.27231
 20
-10.99199
 30
0.0
 10
-11.41257
 20
-11.03176
 30
0.0
 10
-11.65
 20
-11.04999
 30
0.0
 10
-11.65
 20
-11.04999
 30
0.0
 10
-12.01709
 20
-10.60946
 30
0.0
 10
-15.71174
 20
-9.90839
 30
0.0
 10
-16.55
 20
-9.74999
 30
0.0
  0
SPLINE
  5
5A
330
1F
100
AcDbEntity
  8
Layer 1
 62
     5
370
    53
100
AcDbSpline
210
0.0
220
0.0
230
1.0
 70
     8
 71
     3
 72
     8
 73
     4
 74
     0
 42
0.0000000001
 43
0.0000000001
 12
1.0
 22
0.0
 32
0.0
 13
1.0
 23
0.0
 33
0.0
 40
0.0
 40
0.0
 40
0.0
 40
0.0
 40
1.0
 40
1.0
 40
1.0
 40
1.0
 10
11.75001
 20
-9.74999
 30
0.0
 10
12.18391
 20
-9.54374
 30
0.0
 10
11.90835
 20
-9.74177
 30
0.0
 10
12.15
 20
-9.45
 30
0.0
  0
SPLINE
  5
5B
330
1F
100
AcDbEntity
  8
Layer 1
 62
     5
370
    53
100
AcDbSpline
210
0.0
220
0.0
230
1.0
 70
     8
 71
     3
 72
    20
 73
    16
 74
     0
 42
0.0000000001
 43
0.0000000001
 12
1.0
 22
0.0
 32
0.0
 13
1.0
 23
0.0
 33
0.0
 40
0.0
 40
0.0
 40
0.0
 40
0.0
 40
0.2
 40
0.2
 40
0.2
 40
0.2
 40
0.4
 40
0.4
 40
0.4
 40
0.4
 40
0.6
 40
0.6
 40
0.6
 40
0.6
 40
1.0
 40
1.0
 40
1.0
 40
1.0
 10
-16.84999
 20
-9.64999
 30
0.0
 10
-16.84999
 20
-9.64999
 30
0.0
 10
-16.55
 20
-9.74999
 30
0.0
 10
-16.55
 20
-9.74999
 30
0.0
 10
-16.55
 20
-9.74999
 30
0.0
 10
-16.55
 20
-9.74999
 30
0.0
 10
-16.65
 20
-10.04998
 30
0.0
 10
-16.65
 20
-10.04998
 30
0.0
 10
-16.65
 20
-10.04998
 30
0.0
 10
-17.07767
 20
-9.9239
 30
0.0
 10
-16.82391
 20
-10.17766
 30
0.0
 10
-16.95
 20
-9.74999
 30
0.0
 10
-16.95
 20
-9.74999
 30
0.0
 10
-17.23544
 20
-9.69605
 30
0.0
 10
-17.48005
 20
-9.63754
 30
0.0
 10
-17.74999
 20
-9.55001
 30
0.0
  0
SPLINE
  5
5C
330
1F
100
AcDbEntity
  8
Layer 1
 62
     5
370
    53
100
AcDbSpline
210
0.0
220
0.0
230
1.0
 70
    24
 71
     3
 72
     8
 73
     4
 74
     0
 42
0.0000000001
 43
0.0000000001
 12
1.0
 22
0.0
 32
0.0
 13
1.0
 23
0.0
 33
0.0
 40
0.0
 40
0.0
 40
0.0
 40
0.0
 40
1.0
 40
1.0
 40
1.0
 40
1.0
 10
12.34999
 20
-9.35
 30
0.0
 10
12.34999
 20
-9.35
 30
0.0
 10
12.34999
 20
-9.24999
 30
0.0
 10
12.34999
 20
-9.24999
 30
0.0
  0
SPLINE
  5
5D
330
1F
100
AcDbEntity
  8
Layer 1
 62
     5
370
    53
100
AcDbSpline
210
0.0
220
0.0
230
1.0
 70
     8
 71
     3
 72
     8
 73
     4
 74
     0
 42
0.0000000001
 43
0.0000000001
 12
1.0
 22
0.0
 32
0.0
 13
1.0
 23
0.0
 33
0.0
 40
0.0
 40
0.0
 40
0.0
 40
0.0
 40
1.0
 40
1.0
 40
1.0
 40
1.0
 10
-18.24999
 20
-9.95001
 30
0.0
 10
-18.5114
 20
-9.58309
 30
0.0
 10
-18.52841
 20
-9.54349
 30
0.0
 10
-18.45001
 20
-9.14998
 30
0.0
  0
SPLINE
  5
5E
330
1F
100
AcDbEntity
  8
Layer 1
 62
     5
370
    53
100
AcDbSpline
210
0.0
220
0.0
230
1.0
 70
     8
 71
     3
 72
     8
 73
     4
 74
     0
 42
0.0000000001
 43
0.0000000001
 12
1.0
 22
0.0
 32
0.0
 13
1.0
 23
0.0
 33
0.0
 40
0.0
 40
0.0
 40
0.0
 40
0.0
 40
1.0
 40
1.0
 40
1.0
 40
1.0
 10
3.15
 20
-9.24999
 30
0.0
 10
3.05374
 20
-8.99499
 30
0.0
 10
3.20502
 20
-9.14627
 30
0.0
 10
2.94999
 20
-9.05001
 30
0.0
  0
SPLINE
  5
5F
330
1F
100
AcDbEntity
  8
Layer 1
 62
     5
370
    53
100
AcDbSpline
210
0.0
220
0.0
230
1.0
 70
     8
 71
     3
 72
    44
 73
    40
 74
     0
 42
0.0000000001
 43
0.0000000001
 12
1.0
 22
0.0
 32
0.0
 13
1.0
 23
0.0
 33
0.0
 40
0.0
 40
0.0
 40
0.0
 40
0.0
 40
0.0909090909090909
 40
0.0909090909090909
 40
0.0909090909090909
 40
0.0909090909090909
 40
0.1818181818181818
 40
0.1818181818181818
 40
0.1818181818181818
 40
0.1818181818181818
 40
0.2727272727272727
 40
0.2727272727272727
 40
0.2727272727272727
 40
0.2727272727272727
 40
0.3636363636363636
 40
0.3636363636363636
 40
0.3636363636363636
 40
0.3636363636363636
 40
0.4545454545454545
 40
0.4545454545454545
 40
0.4545454545454545
 40
0.4545454545454545
 40
0.5454545454545454
 40
0.5454545454545454
 40
0.5454545454545454
 40
0.5454545454545454
 40
0.6363636363636364
 40
0.6363636363636364
 40
0.6363636363636364
 40
0.6363636363636364
 40
0.7272727272727273
 40
0.7272727272727273
 40
0.7272727272727273
 40
0.7272727272727273
 40
0.8181818181818182
 40
0.8181818181818182
 40
0.8181818181818182
 40
0.8181818181818182
 40
1.0
 40
1.0
 40
1.0
 40
1.0
 10
11.75001
 20
-9.95001
 30
0.0
 10
11.80511
 20
-10.06458
 30
0.0
 10
11.89489
 20
-10.2354
 30
0.0
 10
11.94999
 20
-10.35
 30
0.0
 10
11.94999
 20
-10.35
 30
0.0
 10
11.94999
 20
-10.35
 30
0.0
 10
11.94999
 20
-10.44998
 30
0.0
 10
11.94999
 20
-10.44998
 30
0.0
 10
11.94999
 20
-10.44998
 30
0.0
 10
11.6208
 20
-10.47583
 30
0.0
 10
11.75769
 20
-10.448
 30
0.0
 10
11.44999
 20
-10.54999
 30
0.0
 10
11.44999
 20
-10.54999
 30
0.0
 10
11.44999
 20
-10.54999
 30
0.0
 10
11.15
 20
-10.25
 30
0.0
 10
11.15
 20
-10.25
 30
0.0
 10
11.15
 20
-10.25
 30
0.0
 10
11.46351
 20
-10.04497
 30
0.0
 10
11.39035
 20
-10.04559
 30
0.0
 10
11.75001
 20
-9.95001
 30
0.0
 10
11.75001
 20
-9.95001
 30
0.0
 10
11.75001
 20
-9.95001
 30
0.0
 10
11.75001
 20
-9.74999
 30
0.0
 10
11.75001
 20
-9.74999
 30
0.0
 10
11.75001
 20
-9.74999
 30
0.0
 10
11.65714
 20
-9.53436
 30
0.0
 10
11.65
 20
-9.72284
 30
0.0
 10
11.65
 20
-9.35
 30
0.0
 10
11.65
 20
-9.35
 30
0.0
 10
12.09357
 20
-9.18749
 30
0.0
 10
11.90563
 20
-9.16543
 30
0.0
 10
12.15
 20
-9.45
 30
0.0
 10
12.15
 20
-9.45
 30
0.0
 10
12.6529
 20
-9.59783
 30
0.0
 10
12.53849
 20
-9.52161
 30
0.0
 10
12.55
 20
-10.04998
 30
0.0
 10
12.55
 20
-10.04998
 30
0.0
 10
13.09318
 20
-10.03816
 30
0.0
 10
15.96402
 20
-9.03047
 30
0.0
 10
16.44999
 20
-8.74999
 30
0.0
  0
SPLINE
  5
60
330
1F
100
AcDbEntity
  8
Layer 1
 62
     5
370
    53
100
AcDbSpline
210
0.0
220
0.0
230
1.0
 70
     8
 71
     3
 72
     8
 73
     4
 74
     0
 42
0.0000000001
 43
0.0000000001
 12
1.0
 22
0.0
 32
0.0
 13
1.0
 23
0.0
 33
0.0
 40
0.0
 40
0.0
 40
0.0
 40
0.0
 40
1.0
 40
1.0
 40
1.0
 40
1.0
 10
21.34999
 20
-8.84999
 30
0.0
 10
21.15539
 20
-8.65539
 30
0.0
 10
21.22504
 20
-8.74877
 30
0.0
 10
21.15001
 20
-8.55
 30
0.0
  0
SPLINE
  5
61
330
1F
100
AcDbEntity
  8
Layer 1
 62
     5
370
    53
100
AcDbSpline
210
0.0
220
0.0
230
1.0
 70
     8
 71
     3
 72
    36
 73
    32
 74
     0
 42
0.0000000001
 43
0.0000000001
 12
1.0
 22
0.0
 32
0.0
 13
1.0
 23
0.0
 33
0.0
 40
0.0
 40
0.0
 40
0.0
 40
0.0
 40
0.1111111111111111
 40
0.1111111111111111
 40
0.1111111111111111
 40
0.1111111111111111
 40
0.2222222222222222
 40
0.2222222222222222
 40
0.2222222222222222
 40
0.2222222222222222
 40
0.3333333333333333
 40
0.3333333333333333
 40
0.3333333333333333
 40
0.3333333333333333
 40
0.4444444444444444
 40
0.4444444444444444
 40
0.4444444444444444
 40
0.4444444444444444
 40
0.5555555555555556
 40
0.5555555555555556
 40
0.5555555555555556
 40
0.5555555555555556
 40
0.6666666666666666
 40
0.6666666666666666
 40
0.6666666666666666
 40
0.6666666666666666
 40
0.7777777777777778
 40
0.7777777777777778
 40
0.7777777777777778
 40
0.7777777777777778
 40
1.0
 40
1.0
 40
1.0
 40
1.0
 10
23.64999
 20
-9.74999
 30
0.0
 10
23.21023
 20
-10.01339
 30
0.0
 10
22.85901
 20
-10.15382
 30
0.0
 10
22.35
 20
-10.25
 30
0.0
 10
22.35
 20
-10.25
 30
0.0
 10
22.11452
 20
-10.59693
 30
0.0
 10
21.91434
 20
-10.83816
 30
0.0
 10
21.84999
 20
-10.25
 30
0.0
 10
21.84999
 20
-10.25
 30
0.0
 10
21.84999
 20
-10.25
 30
0.0
 10
21.74999
 20
-10.25
 30
0.0
 10
21.74999
 20
-10.25
 30
0.0
 10
21.74999
 20
-10.25
 30
0.0
 10
21.71481
 20
-9.79178
 30
0.0
 10
21.49751
 20
-9.2763
 30
0.0
 10
21.34999
 20
-8.84999
 30
0.0
 10
21.34999
 20
-8.84999
 30
0.0
 10
21.93809
 20
-8.89518
 30
0.0
 10
23.21286
 20
-9.35598
 30
0.0
 10
23.64999
 20
-9.74999
 30
0.0
 10
23.64999
 20
-9.74999
 30
0.0
 10
23.64999
 20
-9.74999
 30
0.0
 10
24.44999
 20
-9.74999
 30
0.0
 10
24.44999
 20
-9.74999
 30
0.0
 10
24.44999
 20
-9.74999
 30
0.0
 10
24.73118
 20
-9.38724
 30
0.0
 10
25.72856
 20
-9.09006
 30
0.0
 10
26.24999
 20
-9.05001
 30
0.0
 10
26.24999
 20
-9.05001
 30
0.0
 10
26.76068
 20
-8.75526
 30
0.0
 10
26.79469
 20
-8.97832
 30
0.0
 10
26.95
 20
-8.45
 30
0.0
  0
SPLINE
  5
62
330
1F
100
AcDbEntity
  8
Layer 1
 62
     5
370
    53
100
AcDbSpline
210
0.0
220
0.0
230
1.0
 70
     8
 71
     3
 72
     8
 73
     4
 74
     0
 42
0.0000000001
 43
0.0000000001
 12
1.0
 22
0.0
 32
0.0
 13
1.0
 23
0.0
 33
0.0
 40
0.0
 40
0.0
 40
0.0
 40
0.0
 40
1.0
 40
1.0
 40
1.0
 40
1.0
 10
16.34999
 20
-8.45
 30
0.0
 10
16.81138
 20
-8.28253
 30
0.0
 10
16.5159
 20
-8.37397
 30
0.0
 10
16.75001
 20
-8.45
 30
0.0
  0
SPLINE
  5
63
330
1F
100
AcDbEntity
  8
Layer 1
 62
     5
370
    53
100
AcDbSpline
210
0.0
220
0.0
230
1.0
 70
     8
 71
     3
 72
    12
 73
     8
 74
     0
 42
0.0000000001
 43
0.0000000001
 12
1.0
 22
0.0
 32
0.0
 13
1.0
 23
0.0
 33
0.0
 40
0.0
 40
0.0
 40
0.0
 40
0.0
 40
0.3333333333333333
 40
0.3333333333333333
 40
0.3333333333333333
 40
0.3333333333333333
 40
1.0
 40
1.0
 40
1.0
 40
1.0
 10
5.55001
 20
-10.54999
 30
0.0
 10
5.95267
 20
-10.39368
 30
0.0
 10
10.26593
 20
-9.76635
 30
0.0
 10
11.54999
 20
-9.35
 30
0.0
 10
11.54999
 20
-9.35
 30
0.0
 10
11.54999
 20
-8.49847
 30
0.0
 10
11.36665
 20
-8.71342
 30
0.0
 10
11.35001
 20
-7.94999
 30
0.0
  0
SPLINE
  5
64
330
1F
100
AcDbEntity
  8
Layer 1
 62
     5
370
    53
100
AcDbSpline
210
0.0
220
0.0
230
1.0
 70
    24
 71
     3
 72
     8
 73
     4
 74
     0
 42
0.0000000001
 43
0.0000000001
 12
1.0
 22
0.0
 32
0.0
 13
1.0
 23
0.0
 33
0.0
 40
0.0
 40
0.0
 40
0.0
 40
0.0
 40
1.0
 40
1.0
 40
1.0
 40
1.0
 10
19.75
 20
-7.65
 30
0.0
 10
19.75
 20
-7.65
 30
0.0
 10
19.75
 20
-7.55
 30
0.0
 10
19.75
 20
-7.55
 30
0.0
  0
SPLINE
  5
65
330
1F
100
AcDbEntity
  8
Layer 1
 62
     5
370
    53
100
AcDbSpline
210
0.0
220
0.0
230
1.0
 70
     8
 71
     3
 72
    40
 73
    36
 74
     0
 42
0.0000000001
 43
0.0000000001
 12
1.0
 22
0.0
 32
0.0
 13
1.0
 23
0.0
 33
0.0
 40
0.0
 40
0.0
 40
0.0
 40
0.0
 40
0.1
 40
0.1
 40
0.1
 40
0.1
 40
0.2
 40
0.2
 40
0.2
 40
0.2
 40
0.3
 40
0.3
 40
0.3
 40
0.3
 40
0.4
 40
0.4
 40
0.4
 40
0.4
 40
0.5
 40
0.5
 40
0.5
 40
0.5
 40
0.6
 40
0.6
 40
0.6
 40
0.6
 40
0.7
 40
0.7
 40
0.7
 40
0.7
 40
0.8
 40
0.8
 40
0.8
 40
0.8
 40
1.0
 40
1.0
 40
1.0
 40
1.0
 10
13.34999
 20
-8.95
 30
0.0
 10
13.34999
 20
-8.95
 30
0.0
 10
13.85
 20
-8.95
 30
0.0
 10
13.85
 20
-8.95
 30
0.0
 10
13.85
 20
-8.95
 30
0.0
 10
14.32358
 20
-8.79645
 30
0.0
 10
15.84275
 20
-8.48897
 30
0.0
 10
16.34999
 20
-8.45
 30
0.0
 10
16.34999
 20
-8.45
 30
0.0
 10
16.34999
 20
-8.45
 30
0.0
 10
16.44999
 20
-8.74999
 30
0.0
 10
16.44999
 20
-8.74999
 30
0.0
 10
16.44999
 20
-8.74999
 30
0.0
 10
16.73918
 20
-8.59986
 30
0.0
 10
16.59989
 20
-8.73919
 30
0.0
 10
16.75001
 20
-8.45
 30
0.0
 10
16.75001
 20
-8.45
 30
0.0
 10
17.57061
 20
-8.43211
 30
0.0
 10
18.80541
 20
-7.82258
 30
0.0
 10
19.75
 20
-7.75001
 30
0.0
 10
19.75
 20
-7.75001
 30
0.0
 10
19.81721
 20
-8.43146
 30
0.0
 10
20.18512
 20
-8.35453
 30
0.0
 10
20.75001
 20
-8.55
 30
0.0
 10
20.75001
 20
-8.55
 30
0.0
 10
20.75001
 20
-8.55
 30
0.0
 10
21.15001
 20
-8.55
 30
0.0
 10
21.15001
 20
-8.55
 30
0.0
 10
21.15001
 20
-8.55
 30
0.0
 10
21.13974
 20
-8.07934
 30
0.0
 10
20.96924
 20
-7.72988
 30
0.0
 10
20.75001
 20
-7.34998
 30
0.0
 10
20.75001
 20
-7.34998
 30
0.0
 10
20.75001
 20
-7.34998
 30
0.0
 10
20.35001
 20
-7.34998
 30
0.0
 10
20.35001
 20
-7.34998
 30
0.0
  0
SPLINE
  5
66
330
1F
100
AcDbEntity
  8
Layer 1
 62
     5
370
    53
100
AcDbSpline
210
0.0
220
0.0
230
1.0
 70
     8
 71
     3
 72
    12
 73
     8
 74
     0
 42
0.0000000001
 43
0.0000000001
 12
1.0
 22
0.0
 32
0.0
 13
1.0
 23
0.0
 33
0.0
 40
0.0
 40
0.0
 40
0.0
 40
0.0
 40
0.3333333333333333
 40
0.3333333333333333
 40
0.3333333333333333
 40
0.3333333333333333
 40
1.0
 40
1.0
 40
1.0
 40
1.0
 10
11.15
 20
-7.94999
 30
0.0
 10
11.15
 20
-7.94999
 30
0.0
 10
11.15
 20
-7.44999
 30
0.0
 10
11.15
 20
-7.44999
 30
0.0
 10
11.15
 20
-7.44999
 30
0.0
 10
10.92844
 20
-6.7667
 30
0.0
 10
10.70859
 20
-5.04383
 30
0.0
 10
10.25
 20
-4.65001
 30
0.0
  0
SPLINE
  5
67
330
1F
100
AcDbEntity
  8
Layer 1
 62
     5
370
    53
100
AcDbSpline
210
0.0
220
0.0
230
1.0
 70
     8
 71
     3
 72
    88
 73
    84
 74
     0
 42
0.0000000001
 43
0.0000000001
 12
1.0
 22
0.0
 32
0.0
 13
1.0
 23
0.0
 33
0.0
 40
0.0
 40
0.0
 40
0.0
 40
0.0
 40
0.0454545454545455
 40
0.0454545454545455
 40
0.0454545454545455
 40
0.0454545454545455
 40
0.0909090909090909
 40
0.0909090909090909
 40
0.0909090909090909
 40
0.0909090909090909
 40
0.1363636363636364
 40
0.1363636363636364
 40
0.1363636363636364
 40
0.1363636363636364
 40
0.1818181818181818
 40
0.1818181818181818
 40
0.1818181818181818
 40
0.1818181818181818
 40
0.2272727272727273
 40
0.2272727272727273
 40
0.2272727272727273
 40
0.2272727272727273
 40
0.2727272727272727
 40
0.2727272727272727
 40
0.2727272727272727
 40
0.2727272727272727
 40
0.3181818181818182
 40
0.3181818181818182
 40
0.3181818181818182
 40
0.3181818181818182
 40
0.3636363636363636
 40
0.3636363636363636
 40
0.3636363636363636
 40
0.3636363636363636
 40
0.4090909090909091
 40
0.4090909090909091
 40
0.4090909090909091
 40
0.4090909090909091
 40
0.4545454545454545
 40
0.4545454545454545
 40
0.4545454545454545
 40
0.4545454545454545
 40
0.5
 40
0.5
 40
0.5
 40
0.5
 40
0.5454545454545454
 40
0.5454545454545454
 40
0.5454545454545454
 40
0.5454545454545454
 40
0.5909090909090909
 40
0.5909090909090909
 40
0.5909090909090909
 40
0.5909090909090909
 40
0.6363636363636364
 40
0.6363636363636364
 40
0.6363636363636364
 40
0.6363636363636364
 40
0.6818181818181818
 40
0.6818181818181818
 40
0.6818181818181818
 40
0.6818181818181818
 40
0.7272727272727273
 40
0.7272727272727273
 40
0.7272727272727273
 40
0.7272727272727273
 40
0.7727272727272727
 40
0.7727272727272727
 40
0.7727272727272727
 40
0.7727272727272727
 40
0.8181818181818182
 40
0.8181818181818182
 40
0.8181818181818182
 40
0.8181818181818182
 40
0.8636363636363636
 40
0.8636363636363636
 40
0.8636363636363636
 40
0.8636363636363636
 40
0.9090909090909091
 40
0.9090909090909091
 40
0.9090909090909091
 40
0.9090909090909091
 40
1.0
 40
1.0
 40
1.0
 40
1.0
 10
4.85
 20
-10.35
 30
0.0
 10
5.1336
 20
-10.40358
 30
0.0
 10
5.28727
 20
-10.45908
 30
0.0
 10
5.55001
 20
-10.54999
 30
0.0
 10
5.55001
 20
-10.54999
 30
0.0
 10
5.55001
 20
-10.54999
 30
0.0
 10
5.55001
 20
-11.44999
 30
0.0
 10
5.55001
 20
-11.44999
 30
0.0
 10
5.55001
 20
-11.44999
 30
0.0
 10
5.68976
 20
-11.88105
 30
0.0
 10
5.64999
 20
-11.97851
 30
0.0
 10
5.64999
 20
-12.44999
 30
0.0
 10
5.64999
 20
-12.44999
 30
0.0
 10
5.82174
 20
-12.97968
 30
0.0
 10
5.67825
 20
-13.22031
 30
0.0
 10
5.85
 20
-13.74999
 30
0.0
 10
5.85
 20
-13.74999
 30
0.0
 10
5.85
 20
-13.74999
 30
0.0
 10
5.85
 20
-14.14999
 30
0.0
 10
5.85
 20
-14.14999
 30
0.0
 10
5.85
 20
-14.14999
 30
0.0
 10
5.61257
 20
-14.16824
 30
0.0
 10
5.47231
 20
-14.20799
 30
0.0
 10
5.24999
 20
-14.24999
 30
0.0
 10
5.24999
 20
-14.24999
 30
0.0
 10
4.56083
 20
-13.50349
 30
0.0
 10
3.63013
 20
-12.1085
 30
0.0
 10
3.04999
 20
-11.25
 30
0.0
 10
3.04999
 20
-11.25
 30
0.0
 10
3.04999
 20
-11.25
 30
0.0
 10
2.65
 20
-10.85001
 30
0.0
 10
2.65
 20
-10.85001
 30
0.0
 10
2.65
 20
-10.85001
 30
0.0
 10
2.80335
 20
-10.42906
 30
0.0
 10
2.84417
 20
-10.61399
 30
0.0
 10
3.35001
 20
-10.44998
 30
0.0
 10
3.35001
 20
-10.44998
 30
0.0
 10
3.35001
 20
-10.44998
 30
0.0
 10
4.05
 20
-10.44998
 30
0.0
 10
4.05
 20
-10.44998
 30
0.0
 10
4.05
 20
-10.44998
 30
0.0
 10
4.44541
 20
-10.3218
 30
0.0
 10
4.41448
 20
-10.35
 30
0.0
 10
4.85
 20
-10.35
 30
0.0
 10
4.85
 20
-10.35
 30
0.0
 10
4.85
 20
-9.74393
 30
0.0
 10
4.78108
 20
-9.7437
 30
0.0
 10
4.65001
 20
-9.05001
 30
0.0
 10
4.65001
 20
-9.05001
 30
0.0
 10
4.65001
 20
-9.05001
 30
0.0
 10
10.35
 20
-8.05
 30
0.0
 10
10.35
 20
-8.05
 30
0.0
 10
10.35
 20
-8.05
 30
0.0
 10
10.74538
 20
-8.04138
 30
0.0
 10
10.78129
 20
-7.97831
 30
0.0
 10
11.15
 20
-7.94999
 30
0.0
 10
11.15
 20
-7.94999
 30
0.0
 10
11.15
 20
-7.94999
 30
0.0
 10
11.35001
 20
-7.94999
 30
0.0
 10
11.35001
 20
-7.94999
 30
0.0
 10
11.35001
 20
-7.94999
 30
0.0
 10
11.72622
 20
-7.80395
 30
0.0
 10
11.83057
 20
-7.82958
 30
0.0
 10
12.15
 20
-7.84999
 30
0.0
 10
12.15
 20
-7.84999
 30
0.0
 10
12.27671
 20
-8.16925
 30
0.0
 10
12.24119
 20
-7.94549
 30
0.0
 10
12.25001
 20
-8.34999
 30
0.0
 10
12.25001
 20
-8.34999
 30
0.0
 10
12.38457
 20
-8.76507
 30
0.0
 10
12.34999
 20
-8.79557
 30
0.0
 10
12.34999
 20
-9.24999
 30
0.0
 10
12.34999
 20
-9.24999
 30
0.0
 10
12.69151
 20
-9.13181
 30
0.0
 10
13.01219
 20
-9.05953
 30
0.0
 10
13.34999
 20
-8.95
 30
0.0
 10
13.34999
 20
-8.95
 30
0.0
 10
13.52211
 20
-8.35146
 30
0.0
 10
16.73496
 20
-6.3176
 30
0.0
 10
17.45
 20
-5.85
 30
0.0
 10
17.45
 20
-5.85
 30
0.0
 10
17.37973
 20
-5.13751
 30
0.0
 10
16.74692
 20
-4.89096
 30
0.0
 10
16.55
 20
-4.15001
 30
0.0
  0
SPLINE
  5
68
330
1F
100
AcDbEntity
  8
Layer 1
 62
     5
370
    53
100
AcDbSpline
210
0.0
220
0.0
230
1.0
 70
     8
 71
     3
 72
     8
 73
     4
 74
     0
 42
0.0000000001
 43
0.0000000001
 12
1.0
 22
0.0
 32
0.0
 13
1.0
 23
0.0
 33
0.0
 40
0.0
 40
0.0
 40
0.0
 40
0.0
 40
1.0
 40
1.0
 40
1.0
 40
1.0
 10
3.84999
 20
-4.34999
 30
0.0
 10
3.60403
 20
-3.9238
 30
0.0
 10
3.70911
 20
-3.95986
 30
0.0
 10
3.55
 20
-3.55
 30
0.0
  0
SPLINE
  5
69
330
1F
100
AcDbEntity
  8
Layer 1
 62
     5
370
    53
100
AcDbSpline
210
0.0
220
0.0
230
1.0
 70
     8
 71
     3
 72
    24
 73
    20
 74
     0
 42
0.0000000001
 43
0.0000000001
 12
1.0
 22
0.0
 32
0.0
 13
1.0
 23
0.0
 33
0.0
 40
0.0
 40
0.0
 40
0.0
 40
0.0
 40
0.1666666666666667
 40
0.1666666666666667
 40
0.1666666666666667
 40
0.1666666666666667
 40
0.3333333333333333
 40
0.3333333333333333
 40
0.3333333333333333
 40
0.3333333333333333
 40
0.5
 40
0.5
 40
0.5
 40
0.5
 40
0.6666666666666666
 40
0.6666666666666666
 40
0.6666666666666666
 40
0.6666666666666666
 40
1.0
 40
1.0
 40
1.0
 40
1.0
 10
2.25
 20
-9.74999
 30
0.0
 10
2.35066
 20
-10.12045
 30
0.0
 10
2.21831
 20
-9.93288
 30
0.0
 10
2.54999
 20
-10.14999
 30
0.0
 10
2.54999
 20
-10.14999
 30
0.0
 10
2.93749
 20
-9.81723
 30
0.0
 10
2.63132
 20
-9.9133
 30
0.0
 10
2.85001
 20
-9.35
 30
0.0
 10
2.85001
 20
-9.35
 30
0.0
 10
2.34335
 20
-9.44572
 30
0.0
 10
2.37229
 20
-9.36669
 30
0.0
 10
2.25
 20
-9.74999
 30
0.0
 10
2.25
 20
-9.74999
 30
0.0
 10
1.70031
 20
-9.59193
 30
0.0
 10
-0.19225
 20
-6.85959
 30
0.0
 10
-0.45
 20
-6.25
 30
0.0
 10
-0.45
 20
-6.25
 30
0.0
 10
0.43812
 20
-5.43011
 30
0.0
 10
2.59557
 20
-4.30742
 30
0.0
 10
3.15
 20
-3.55
 30
0.0
  0
SPLINE
  5
6A
330
1F
100
AcDbEntity
  8
Layer 1
 62
     5
370
    53
100
AcDbSpline
210
0.0
220
0.0
230
1.0
 70
     8
 71
     3
 72
    40
 73
    36
 74
     0
 42
0.0000000001
 43
0.0000000001
 12
1.0
 22
0.0
 32
0.0
 13
1.0
 23
0.0
 33
0.0
 40
0.0
 40
0.0
 40
0.0
 40
0.0
 40
0.1
 40
0.1
 40
0.1
 40
0.1
 40
0.2
 40
0.2
 40
0.2
 40
0.2
 40
0.3
 40
0.3
 40
0.3
 40
0.3
 40
0.4
 40
0.4
 40
0.4
 40
0.4
 40
0.5
 40
0.5
 40
0.5
 40
0.5
 40
0.6
 40
0.6
 40
0.6
 40
0.6
 40
0.7
 40
0.7
 40
0.7
 40
0.7
 40
0.8
 40
0.8
 40
0.8
 40
0.8
 40
1.0
 40
1.0
 40
1.0
 40
1.0
 10
3.84999
 20
-5.55001
 30
0.0
 10
3.52979
 20
-6.10481
 30
0.0
 10
3.09124
 20
-8.30245
 30
0.0
 10
2.94999
 20
-9.05001
 30
0.0
 10
2.94999
 20
-9.05001
 30
0.0
 10
2.94999
 20
-9.05001
 30
0.0
 10
2.94999
 20
-9.24999
 30
0.0
 10
2.94999
 20
-9.24999
 30
0.0
 10
2.94999
 20
-9.24999
 30
0.0
 10
2.94999
 20
-9.24999
 30
0.0
 10
3.15
 20
-9.24999
 30
0.0
 10
3.15
 20
-9.24999
 30
0.0
 10
3.15
 20
-9.24999
 30
0.0
 10
3.15
 20
-9.24999
 30
0.0
 10
4.55
 20
-9.05001
 30
0.0
 10
4.55
 20
-9.05001
 30
0.0
 10
4.55
 20
-9.05001
 30
0.0
 10
4.55
 20
-7.78184
 30
0.0
 10
4.2465
 20
-7.21089
 30
0.0
 10
4.05
 20
-6.04999
 30
0.0
 10
4.05
 20
-6.04999
 30
0.0
 10
4.03804
 20
-5.50072
 30
0.0
 10
4.12759
 20
-5.78838
 30
0.0
 10
3.84999
 20
-5.55001
 30
0.0
 10
3.84999
 20
-5.55001
 30
0.0
 10
3.84999
 20
-5.55001
 30
0.0
 10
3.84999
 20
-4.34999
 30
0.0
 10
3.84999
 20
-4.34999
 30
0.0
 10
3.84999
 20
-4.34999
 30
0.0
 10
4.19891
 20
-4.05924
 30
0.0
 10
4.10105
 20
-3.90937
 30
0.0
 10
4.25001
 20
-3.44999
 30
0.0
 10
4.25001
 20
-3.44999
 30
0.0
 10
4.25001
 20
-3.44999
 30
0.0
 10
4.25001
 20
-3.04999
 30
0.0
 10
4.25001
 20
-3.04999
 30
0.0
  0
SPLINE
  5
6B
330
1F
100
AcDbEntity
  8
Layer 1
 62
     5
370
    53
100
AcDbSpline
210
0.0
220
0.0
230
1.0
 70
     8
 71
     3
 72
    12
 73
     8
 74
     0
 42
0.0000000001
 43
0.0000000001
 12
1.0
 22
0.0
 32
0.0
 13
1.0
 23
0.0
 33
0.0
 40
0.0
 40
0.0
 40
0.0
 40
0.0
 40
0.3333333333333333
 40
0.3333333333333333
 40
0.3333333333333333
 40
0.3333333333333333
 40
1.0
 40
1.0
 40
1.0
 40
1.0
 10
10.35
 20
-3.94999
 30
0.0
 10
10.63772
 20
-3.72696
 30
0.0
 10
10.5429
 20
-3.79576
 30
0.0
 10
10.75
 20
-3.44999
 30
0.0
 10
10.75
 20
-3.44999
 30
0.0
 10
10.75
 20
-3.44999
 30
0.0
 10
10.75
 20
-2.94999
 30
0.0
 10
10.75
 20
-2.94999
 30
0.0
  0
SPLINE
  5
6C
330
1F
100
AcDbEntity
  8
Layer 1
 62
     5
370
    53
100
AcDbSpline
210
0.0
220
0.0
230
1.0
 70
     8
 71
     3
 72
    28
 73
    24
 74
     0
 42
0.0000000001
 43
0.0000000001
 12
1.0
 22
0.0
 32
0.0
 13
1.0
 23
0.0
 33
0.0
 40
0.0
 40
0.0
 40
0.0
 40
0.0
 40
0.1428571428571428
 40
0.1428571428571428
 40
0.1428571428571428
 40
0.1428571428571428
 40
0.2857142857142857
 40
0.2857142857142857
 40
0.2857142857142857
 40
0.2857142857142857
 40
0.4285714285714285
 40
0.4285714285714285
 40
0.4285714285714285
 40
0.4285714285714285
 40
0.5714285714285714
 40
0.5714285714285714
 40
0.5714285714285714
 40
0.5714285714285714
 40
0.7142857142857143
 40
0.7142857142857143
 40
0.7142857142857143
 40
0.7142857142857143
 40
1.0
 40
1.0
 40
1.0
 40
1.0
 10
11.04999
 20
-2.75
 30
0.0
 10
10.85539
 20
-2.9446
 30
0.0
 10
10.94879
 20
-2.87496
 30
0.0
 10
10.75
 20
-2.94999
 30
0.0
 10
10.75
 20
-2.94999
 30
0.0
 10
10.29357
 20
-3.09799
 30
0.0
 10
10.44927
 20
-2.96555
 30
0.0
 10
10.05001
 20
-3.25001
 30
0.0
 10
10.05001
 20
-3.25001
 30
0.0
 10
10.08289
 20
-3.67818
 30
0.0
 10
10.07002
 20
-3.7167
 30
0.0
 10
10.35
 20
-3.94999
 30
0.0
 10
10.35
 20
-3.94999
 30
0.0
 10
10.22984
 20
-4.3206
 30
0.0
 10
10.25
 20
-4.23612
 30
0.0
 10
10.25
 20
-4.65001
 30
0.0
 10
10.25
 20
-4.65001
 30
0.0
 10
9.94731
 20
-4.77011
 30
0.0
 10
10.14928
 20
-4.74999
 30
0.0
 10
9.74999
 20
-4.74999
 30
0.0
 10
9.74999
 20
-4.74999
 30
0.0
 10
8.83803
 20
-4.38423
 30
0.0
 10
5.54284
 20
-3.08438
 30
0.0
 10
4.95
 20
-2.54999
 30
0.0
  0
SPLINE
  5
6D
330
1F
100
AcDbEntity
  8
Layer 1
 62
     5
370
    53
100
AcDbSpline
210
0.0
220
0.0
230
1.0
 70
     8
 71
     3
 72
    12
 73
     8
 74
     0
 42
0.0000000001
 43
0.0000000001
 12
1.0
 22
0.0
 32
0.0
 13
1.0
 23
0.0
 33
0.0
 40
0.0
 40
0.0
 40
0.0
 40
0.0
 40
0.3333333333333333
 40
0.3333333333333333
 40
0.3333333333333333
 40
0.3333333333333333
 40
1.0
 40
1.0
 40
1.0
 40
1.0
 10
3.84999
 20
-2.85001
 30
0.0
 10
3.98906
 20
-3.13186
 30
0.0
 10
3.74168
 20
-3.03843
 30
0.0
 10
4.25001
 20
-3.04999
 30
0.0
 10
4.25001
 20
-3.04999
 30
0.0
 10
4.25001
 20
-3.04999
 30
0.0
 10
4.55
 20
-2.54999
 30
0.0
 10
4.55
 20
-2.54999
 30
0.0
  0
SPLINE
  5
6E
330
1F
100
AcDbEntity
  8
Layer 1
 62
     5
370
    53
100
AcDbSpline
210
0.0
220
0.0
230
1.0
 70
     8
 71
     3
 72
    12
 73
     8
 74
     0
 42
0.0000000001
 43
0.0000000001
 12
1.0
 22
0.0
 32
0.0
 13
1.0
 23
0.0
 33
0.0
 40
0.0
 40
0.0
 40
0.0
 40
0.0
 40
0.3333333333333333
 40
0.3333333333333333
 40
0.3333333333333333
 40
0.3333333333333333
 40
1.0
 40
1.0
 40
1.0
 40
1.0
 10
20.15
 20
-7.34998
 30
0.0
 10
20.15
 20
-7.34998
 30
0.0
 10
19.75
 20
-7.55
 30
0.0
 10
19.75
 20
-7.55
 30
0.0
 10
19.75
 20
-7.55
 30
0.0
 10
19.75
 20
-7.55
 30
0.0
 10
18.75
 20
-2.44998
 30
0.0
 10
18.75
 20
-2.44998
 30
0.0
  0
SPLINE
  5
6F
330
1F
100
AcDbEntity
  8
Layer 1
 62
     5
370
    53
100
AcDbSpline
210
0.0
220
0.0
230
1.0
 70
     8
 71
     3
 72
     8
 73
     4
 74
     0
 42
0.0000000001
 43
0.0000000001
 12
1.0
 22
0.0
 32
0.0
 13
1.0
 23
0.0
 33
0.0
 40
0.0
 40
0.0
 40
0.0
 40
0.0
 40
1.0
 40
1.0
 40
1.0
 40
1.0
 10
3.65
 20
-3.04999
 30
0.0
 10
3.39165
 20
-2.68736
 30
0.0
 10
3.3601
 20
-2.51371
 30
0.0
 10
3.35001
 20
-2.04999
 30
0.0
  0
SPLINE
  5
70
330
1F
100
AcDbEntity
  8
Layer 1
 62
     5
370
    53
100
AcDbSpline
210
0.0
220
0.0
230
1.0
 70
     8
 71
     3
 72
     8
 73
     4
 74
     0
 42
0.0000000001
 43
0.0000000001
 12
1.0
 22
0.0
 32
0.0
 13
1.0
 23
0.0
 33
0.0
 40
0.0
 40
0.0
 40
0.0
 40
0.0
 40
1.0
 40
1.0
 40
1.0
 40
1.0
 10
16.34999
 20
-4.15001
 30
0.0
 10
15.96422
 20
-3.35753
 30
0.0
 10
15.16731
 20
-2.60042
 30
0.0
 10
14.85
 20
-1.85
 30
0.0
  0
SPLINE
  5
71
330
1F
100
AcDbEntity
  8
Layer 1
 62
     5
370
    53
100
AcDbSpline
210
0.0
220
0.0
230
1.0
 70
     8
 71
     3
 72
     8
 73
     4
 74
     0
 42
0.0000000001
 43
0.0000000001
 12
1.0
 22
0.0
 32
0.0
 13
1.0
 23
0.0
 33
0.0
 40
0.0
 40
0.0
 40
0.0
 40
0.0
 40
1.0
 40
1.0
 40
1.0
 40
1.0
 10
13.95
 20
-2.14999
 30
0.0
 10
14.16028
 20
-2.0522
 30
0.0
 10
14.34524
 20
-1.96818
 30
0.0
 10
14.55001
 20
-1.85
 30
0.0
  0
SPLINE
  5
72
330
1F
100
AcDbEntity
  8
Layer 1
 62
     5
370
    53
100
AcDbSpline
210
0.0
220
0.0
230
1.0
 70
     8
 71
     3
 72
     8
 73
     4
 74
     0
 42
0.0000000001
 43
0.0000000001
 12
1.0
 22
0.0
 32
0.0
 13
1.0
 23
0.0
 33
0.0
 40
0.0
 40
0.0
 40
0.0
 40
0.0
 40
1.0
 40
1.0
 40
1.0
 40
1.0
 10
3.94999
 20
-2.14999
 30
0.0
 10
4.18136
 20
-1.97705
 30
0.0
 10
4.12832
 20
-2.02476
 30
0.0
 10
4.34999
 20
-1.75
 30
0.0
  0
SPLINE
  5
73
330
1F
100
AcDbEntity
  8
Layer 1
 62
     5
370
    53
100
AcDbSpline
210
0.0
220
0.0
230
1.0
 70
     8
 71
     3
 72
    12
 73
     8
 74
     0
 42
0.0000000001
 43
0.0000000001
 12
1.0
 22
0.0
 32
0.0
 13
1.0
 23
0.0
 33
0.0
 40
0.0
 40
0.0
 40
0.0
 40
0.0
 40
0.3333333333333333
 40
0.3333333333333333
 40
0.3333333333333333
 40
0.3333333333333333
 40
1.0
 40
1.0
 40
1.0
 40
1.0
 10
-17.74999
 20
-9.35
 30
0.0
 10
-16.63161
 20
-7.97105
 30
0.0
 10
-13.91639
 20
-4.38251
 30
0.0
 10
-13.15001
 20
-2.94999
 30
0.0
 10
-13.15001
 20
-2.94999
 30
0.0
 10
-13.59355
 20
-2.24082
 30
0.0
 10
-14.47878
 20
-2.17208
 30
0.0
 10
-14.55001
 20
-1.45001
 30
0.0
  0
SPLINE
  5
74
330
1F
100
AcDbEntity
  8
Layer 1
 62
     5
370
    53
100
AcDbSpline
210
0.0
220
0.0
230
1.0
 70
     8
 71
     3
 72
    20
 73
    16
 74
     0
 42
0.0000000001
 43
0.0000000001
 12
1.0
 22
0.0
 32
0.0
 13
1.0
 23
0.0
 33
0.0
 40
0.0
 40
0.0
 40
0.0
 40
0.0
 40
0.2
 40
0.2
 40
0.2
 40
0.2
 40
0.4
 40
0.4
 40
0.4
 40
0.4
 40
0.6
 40
0.6
 40
0.6
 40
0.6
 40
1.0
 40
1.0
 40
1.0
 40
1.0
 10
-18.75
 20
-8.65001
 30
0.0
 10
-18.75
 20
-8.65001
 30
0.0
 10
-18.85
 20
-7.75001
 30
0.0
 10
-18.85
 20
-7.75001
 30
0.0
 10
-18.85
 20
-7.75001
 30
0.0
 10
-18.861
 20
-7.24521
 30
0.0
 10
-19.29204
 20
-5.1372
 30
0.0
 10
-19.45001
 20
-4.65001
 30
0.0
 10
-19.45001
 20
-4.65001
 30
0.0
 10
-19.55183
 20
-4.04836
 30
0.0
 10
-19.62117
 20
-3.22662
 30
0.0
 10
-19.85001
 20
-2.65
 30
0.0
 10
-19.85001
 20
-2.65
 30
0.0
 10
-18.76108
 20
-2.13236
 30
0.0
 10
-15.64319
 20
-2.08624
 30
0.0
 10
-15.14999
 20
-1.45001
 30
0.0
  0
SPLINE
  5
75
330
1F
100
AcDbEntity
  8
Layer 1
 62
     5
370
    53
100
AcDbSpline
210
0.0
220
0.0
230
1.0
 70
     8
 71
     3
 72
     8
 73
     4
 74
     0
 42
0.0000000001
 43
0.0000000001
 12
1.0
 22
0.0
 32
0.0
 13
1.0
 23
0.0
 33
0.0
 40
0.0
 40
0.0
 40
0.0
 40
0.0
 40
1.0
 40
1.0
 40
1.0
 40
1.0
 10
4.55
 20
-1.85
 30
0.0
 10
4.67011
 20
-1.54729
 30
0.0
 10
4.65001
 20
-1.74929
 30
0.0
 10
4.65001
 20
-1.35
 30
0.0
  0
SPLINE
  5
76
330
1F
100
AcDbEntity
  8
Layer 1
 62
     5
370
    53
100
AcDbSpline
210
0.0
220
0.0
230
1.0
 70
     8
 71
     3
 72
    12
 73
     8
 74
     0
 42
0.0000000001
 43
0.0000000001
 12
1.0
 22
0.0
 32
0.0
 13
1.0
 23
0.0
 33
0.0
 40
0.0
 40
0.0
 40
0.0
 40
0.0
 40
0.3333333333333333
 40
0.3333333333333333
 40
0.3333333333333333
 40
0.3333333333333333
 40
1.0
 40
1.0
 40
1.0
 40
1.0
 10
29.84999
 20
-7.44999
 30
0.0
 10
28.94497
 20
-7.64073
 30
0.0
 10
27.81236
 20
-8.4312
 30
0.0
 10
26.95
 20
-8.45
 30
0.0
 10
26.95
 20
-8.45
 30
0.0
 10
26.50352
 20
-6.08703
 30
0.0
 10
25.49835
 20
-3.62285
 30
0.0
 10
25.05
 20
-1.24999
 30
0.0
  0
SPLINE
  5
77
330
1F
100
AcDbEntity
  8
Layer 1
 62
     5
370
    53
100
AcDbSpline
210
0.0
220
0.0
230
1.0
 70
     8
 71
     3
 72
    16
 73
    12
 74
     0
 42
0.0000000001
 43
0.0000000001
 12
1.0
 22
0.0
 32
0.0
 13
1.0
 23
0.0
 33
0.0
 40
0.0
 40
0.0
 40
0.0
 40
0.0
 40
0.25
 40
0.25
 40
0.25
 40
0.25
 40
0.5
 40
0.5
 40
0.5
 40
0.5
 40
1.0
 40
1.0
 40
1.0
 40
1.0
 10
-14.24999
 20
-1.35
 30
0.0
 10
-14.45735
 20
-1.47906
 30
0.0
 10
-14.21465
 20
-1.45001
 30
0.0
 10
-14.55001
 20
-1.45001
 30
0.0
 10
-14.55001
 20
-1.45001
 30
0.0
 10
-14.55001
 20
-1.45001
 30
0.0
 10
-15.14999
 20
-1.45001
 30
0.0
 10
-15.14999
 20
-1.45001
 30
0.0
 10
-15.14999
 20
-1.45001
 30
0.0
 10
-15.54591
 20
-1.16167
 30
0.0
 10
-15.13676
 20
-1.2903
 30
0.0
 10
-15.65
 20
-1.24999
 30
0.0
  0
SPLINE
  5
78
330
1F
100
AcDbEntity
  8
Layer 1
 62
     5
370
    53
100
AcDbSpline
210
0.0
220
0.0
230
1.0
 70
     8
 71
     3
 72
    68
 73
    64
 74
     0
 42
0.0000000001
 43
0.0000000001
 12
1.0
 22
0.0
 32
0.0
 13
1.0
 23
0.0
 33
0.0
 40
0.0
 40
0.0
 40
0.0
 40
0.0
 40
0.0588235294117647
 40
0.0588235294117647
 40
0.0588235294117647
 40
0.0588235294117647
 40
0.1176470588235294
 40
0.1176470588235294
 40
0.1176470588235294
 40
0.1176470588235294
 40
0.1764705882352941
 40
0.1764705882352941
 40
0.1764705882352941
 40
0.1764705882352941
 40
0.2352941176470588
 40
0.2352941176470588
 40
0.2352941176470588
 40
0.2352941176470588
 40
0.2941176470588235
 40
0.2941176470588235
 40
0.2941176470588235
 40
0.2941176470588235
 40
0.3529411764705883
 40
0.3529411764705883
 40
0.3529411764705883
 40
0.3529411764705883
 40
0.4117647058823529
 40
0.4117647058823529
 40
0.4117647058823529
 40
0.4117647058823529
 40
0.4705882352941176
 40
0.4705882352941176
 40
0.4705882352941176
 40
0.4705882352941176
 40
0.5294117647058824
 40
0.5294117647058824
 40
0.5294117647058824
 40
0.5294117647058824
 40
0.5882352941176471
 40
0.5882352941176471
 40
0.5882352941176471
 40
0.5882352941176471
 40
0.6470588235294118
 40
0.6470588235294118
 40
0.6470588235294118
 40
0.6470588235294118
 40
0.7058823529411765
 40
0.7058823529411765
 40
0.7058823529411765
 40
0.7058823529411765
 40
0.7647058823529411
 40
0.7647058823529411
 40
0.7647058823529411
 40
0.7647058823529411
 40
0.8235294117647058
 40
0.8235294117647058
 40
0.8235294117647058
 40
0.8235294117647058
 40
0.8823529411764706
 40
0.8823529411764706
 40
0.8823529411764706
 40
0.8823529411764706
 40
1.0
 40
1.0
 40
1.0
 40
1.0
 10
-25.15
 20
-12.34999
 30
0.0
 10
-24.34834
 20
-11.36155
 30
0.0
 10
-22.303
 20
-7.48276
 30
0.0
 10
-21.65001
 20
-7.04999
 30
0.0
 10
-21.65001
 20
-7.04999
 30
0.0
 10
-21.03194
 20
-7.38065
 30
0.0
 10
-19.79247
 20
-8.12186
 30
0.0
 10
-19.25
 20
-8.55
 30
0.0
 10
-19.25
 20
-8.55
 30
0.0
 10
-18.90661
 20
-8.57696
 30
0.0
 10
-19.06977
 20
-8.54632
 30
0.0
 10
-18.75
 20
-8.65001
 30
0.0
 10
-18.75
 20
-8.65001
 30
0.0
 10
-18.75
 20
-8.65001
 30
0.0
 10
-18.45001
 20
-9.14998
 30
0.0
 10
-18.45001
 20
-9.14998
 30
0.0
 10
-18.45001
 20
-9.14998
 30
0.0
 10
-18.1664
 20
-9.20359
 30
0.0
 10
-18.01273
 20
-9.25909
 30
0.0
 10
-17.74999
 20
-9.35
 30
0.0
 10
-17.74999
 20
-9.35
 30
0.0
 10
-17.74999
 20
-9.35
 30
0.0
 10
-17.74999
 20
-9.55001
 30
0.0
 10
-17.74999
 20
-9.55001
 30
0.0
 10
-17.74999
 20
-9.55001
 30
0.0
 10
-17.74999
 20
-9.55001
 30
0.0
 10
-17.74999
 20
-9.74999
 30
0.0
 10
-17.74999
 20
-9.74999
 30
0.0
 10
-17.74999
 20
-9.74999
 30
0.0
 10
-18.1181
 20
-9.80745
 30
0.0
 10
-17.78675
 20
-9.64347
 30
0.0
 10
-18.14999
 20
-9.95001
 30
0.0
 10
-18.14999
 20
-9.95001
 30
0.0
 10
-18.14999
 20
-9.95001
 30
0.0
 10
-18.24999
 20
-9.95001
 30
0.0
 10
-18.24999
 20
-9.95001
 30
0.0
 10
-18.24999
 20
-9.95001
 30
0.0
 10
-18.37012
 20
-10.25269
 30
0.0
 10
-18.35
 20
-10.05069
 30
0.0
 10
-18.35
 20
-10.44998
 30
0.0
 10
-18.35
 20
-10.44998
 30
0.0
 10
-18.86707
 20
-10.76633
 30
0.0
 10
-21.252
 20
-14.21303
 30
0.0
 10
-21.74999
 20
-14.94998
 30
0.0
 10
-21.74999
 20
-14.94998
 30
0.0
 10
-22.51435
 20
-14.87461
 30
0.0
 10
-24.40245
 20
-13.10341
 30
0.0
 10
-25.25001
 20
-12.65001
 30
0.0
 10
-25.25001
 20
-12.65001
 30
0.0
 10
-25.38267
 20
-12.23411
 30
0.0
 10
-25.13271
 20
-12.40215
 30
0.0
 10
-25.65001
 20
-12.34999
 30
0.0
 10
-25.65001
 20
-12.34999
 30
0.0
 10
-26.52265
 20
-11.54438
 30
0.0
 10
-28.438
 20
-10.21181
 30
0.0
 10
-29.44999
 20
-9.55001
 30
0.0
 10
-29.44999
 20
-9.55001
 30
0.0
 10
-29.44999
 20
-9.55001
 30
0.0
 10
-29.84999
 20
-9.14998
 30
0.0
 10
-29.84999
 20
-9.14998
 30
0.0
 10
-29.84999
 20
-9.14998
 30
0.0
 10
-28.91269
 20
-6.93338
 30
0.0
 10
-25.05691
 20
-3.21129
 30
0.0
 10
-24.15
 20
-0.95
 30
0.0
  0
SPLINE
  5
79
330
1F
100
AcDbEntity
  8
Layer 1
 62
     5
370
    53
100
AcDbSpline
210
0.0
220
0.0
230
1.0
 70
     8
 71
     3
 72
     8
 73
     4
 74
     0
 42
0.0000000001
 43
0.0000000001
 12
1.0
 22
0.0
 32
0.0
 13
1.0
 23
0.0
 33
0.0
 40
0.0
 40
0.0
 40
0.0
 40
0.0
 40
1.0
 40
1.0
 40
1.0
 40
1.0
 10
-13.65001
 20
-1.35
 30
0.0
 10
-13.75215
 20
-0.86533
 30
0.0
 10
-13.70364
 20
-0.88121
 30
0.0
 10
-14.14999
 20
-0.74999
 30
0.0
  0
SPLINE
  5
7A
330
1F
100
AcDbEntity
  8
Layer 1
 62
     5
370
    53
100
AcDbSpline
210
0.0
220
0.0
230
1.0
 70
    24
 71
     3
 72
     8
 73
     4
 74
     0
 42
0.0000000001
 43
0.0000000001
 12
1.0
 22
0.0
 32
0.0
 13
1.0
 23
0.0
 33
0.0
 40
0.0
 40
0.0
 40
0.0
 40
0.0
 40
1.0
 40
1.0
 40
1.0
 40
1.0
 10
4.85
 20
-0.55001
 30
0.0
 10
4.85
 20
-0.55001
 30
0.0
 10
4.95
 20
-0.45
 30
0.0
 10
4.95
 20
-0.45
 30
0.0
  0
SPLINE
  5
7B
330
1F
100
AcDbEntity
  8
Layer 1
 62
     5
370
    53
100
AcDbSpline
210
0.0
220
0.0
230
1.0
 70
     8
 71
     3
 72
    28
 73
    24
 74
     0
 42
0.0000000001
 43
0.0000000001
 12
1.0
 22
0.0
 32
0.0
 13
1.0
 23
0.0
 33
0.0
 40
0.0
 40
0.0
 40
0.0
 40
0.0
 40
0.1428571428571428
 40
0.1428571428571428
 40
0.1428571428571428
 40
0.1428571428571428
 40
0.2857142857142857
 40
0.2857142857142857
 40
0.2857142857142857
 40
0.2857142857142857
 40
0.4285714285714285
 40
0.4285714285714285
 40
0.4285714285714285
 40
0.4285714285714285
 40
0.5714285714285714
 40
0.5714285714285714
 40
0.5714285714285714
 40
0.5714285714285714
 40
0.7142857142857143
 40
0.7142857142857143
 40
0.7142857142857143
 40
0.7142857142857143
 40
1.0
 40
1.0
 40
1.0
 40
1.0
 10
20.15
 20
-7.15
 30
0.0
 10
20.15
 20
-7.15
 30
0.0
 10
20.15
 20
-7.34998
 30
0.0
 10
20.15
 20
-7.34998
 30
0.0
 10
20.15
 20
-7.34998
 30
0.0
 10
20.15
 20
-7.34998
 30
0.0
 10
20.35001
 20
-7.34998
 30
0.0
 10
20.35001
 20
-7.34998
 30
0.0
 10
20.35001
 20
-7.34998
 30
0.0
 10
20.25372
 20
-7.09498
 30
0.0
 10
20.405
 20
-7.24626
 30
0.0
 10
20.15
 20
-7.15
 30
0.0
 10
20.15
 20
-7.15
 30
0.0
 10
20.75571
 20
-5.39955
 30
0.0
 10
21.45941
 20
-3.23445
 30
0.0
 10
22.15001
 20
-1.55001
 30
0.0
 10
22.15001
 20
-1.55001
 30
0.0
 10
22.15001
 20
-1.55001
 30
0.0
 10
21.45
 20
-1.55001
 30
0.0
 10
21.45
 20
-1.55001
 30
0.0
 10
21.45
 20
-1.55001
 30
0.0
 10
21.1654
 20
-0.81689
 30
0.0
 10
21.57345
 20
-1.2606
 30
0.0
 10
21.15001
 20
-0.34999
 30
0.0
  0
SPLINE
  5
7C
330
1F
100
AcDbEntity
  8
Layer 1
 62
     5
370
    53
100
AcDbSpline
210
0.0
220
0.0
230
1.0
 70
     8
 71
     3
 72
    12
 73
     8
 74
     0
 42
0.0000000001
 43
0.0000000001
 12
1.0
 22
0.0
 32
0.0
 13
1.0
 23
0.0
 33
0.0
 40
0.0
 40
0.0
 40
0.0
 40
0.0
 40
0.3333333333333333
 40
0.3333333333333333
 40
0.3333333333333333
 40
0.3333333333333333
 40
1.0
 40
1.0
 40
1.0
 40
1.0
 10
18.75
 20
-2.14999
 30
0.0
 10
19.03675
 20
-2.01042
 30
0.0
 10
19.17505
 20
-1.9298
 30
0.0
 10
19.45001
 20
-1.75
 30
0.0
 10
19.45001
 20
-1.75
 30
0.0
 10
19.98695
 20
-1.22477
 30
0.0
 10
20.58036
 20
-0.9877
 30
0.0
 10
20.84999
 20
-0.34999
 30
0.0
  0
SPLINE
  5
7D
330
1F
100
AcDbEntity
  8
Layer 1
 62
     5
370
    53
100
AcDbSpline
210
0.0
220
0.0
230
1.0
 70
     8
 71
     3
 72
    16
 73
    12
 74
     0
 42
0.0000000001
 43
0.0000000001
 12
1.0
 22
0.0
 32
0.0
 13
1.0
 23
0.0
 33
0.0
 40
0.0
 40
0.0
 40
0.0
 40
0.0
 40
0.25
 40
0.25
 40
0.25
 40
0.25
 40
0.5
 40
0.5
 40
0.5
 40
0.5
 40
1.0
 40
1.0
 40
1.0
 40
1.0
 10
13.65001
 20
-2.14999
 30
0.0
 10
12.97182
 20
-2.42804
 30
0.0
 10
12.24185
 20
-2.52567
 30
0.0
 10
11.54999
 20
-2.75
 30
0.0
 10
11.54999
 20
-2.75
 30
0.0
 10
11.54999
 20
-2.75
 30
0.0
 10
11.04999
 20
-2.75
 30
0.0
 10
11.04999
 20
-2.75
 30
0.0
 10
11.04999
 20
-2.75
 30
0.0
 10
11.35849
 20
-1.98082
 30
0.0
 10
11.72452
 20
-1.06038
 30
0.0
 10
12.15
 20
-0.34999
 30
0.0
  0
SPLINE
  5
7E
330
1F
100
AcDbEntity
  8
Layer 1
 62
     5
370
    53
100
AcDbSpline
210
0.0
220
0.0
230
1.0
 70
     8
 71
     3
 72
     8
 73
     4
 74
     0
 42
0.0000000001
 43
0.0000000001
 12
1.0
 22
0.0
 32
0.0
 13
1.0
 23
0.0
 33
0.0
 40
0.0
 40
0.0
 40
0.0
 40
0.0
 40
1.0
 40
1.0
 40
1.0
 40
1.0
 10
-5.55001
 20
-1.24999
 30
0.0
 10
-5.5743
 20
-0.91304
 30
0.0
 10
-5.39756
 20
-0.62649
 30
0.0
 10
-5.05001
 20
-0.24999
 30
0.0
  0
SPLINE
  5
7F
330
1F
100
AcDbEntity
  8
Layer 1
 62
     5
370
    53
100
AcDbSpline
210
0.0
220
0.0
230
1.0
 70
     8
 71
     3
 72
    24
 73
    20
 74
     0
 42
0.0000000001
 43
0.0000000001
 12
1.0
 22
0.0
 32
0.0
 13
1.0
 23
0.0
 33
0.0
 40
0.0
 40
0.0
 40
0.0
 40
0.0
 40
0.1666666666666667
 40
0.1666666666666667
 40
0.1666666666666667
 40
0.1666666666666667
 40
0.3333333333333333
 40
0.3333333333333333
 40
0.3333333333333333
 40
0.3333333333333333
 40
0.5
 40
0.5
 40
0.5
 40
0.5
 40
0.6666666666666666
 40
0.6666666666666666
 40
0.6666666666666666
 40
0.6666666666666666
 40
1.0
 40
1.0
 40
1.0
 40
1.0
 10
3.94999
 20
-2.25
 30
0.0
 10
3.93177
 20
-2.48743
 30
0.0
 10
3.892
 20
-2.62769
 30
0.0
 10
3.84999
 20
-2.85001
 30
0.0
 10
3.84999
 20
-2.85001
 30
0.0
 10
3.66905
 20
-3.1407
 30
0.0
 10
3.79021
 20
-2.96496
 30
0.0
 10
3.65
 20
-3.04999
 30
0.0
 10
3.65
 20
-3.04999
 30
0.0
 10
3.52987
 20
-3.35271
 30
0.0
 10
3.55
 20
-3.15071
 30
0.0
 10
3.55
 20
-3.55
 30
0.0
 10
3.55
 20
-3.55
 30
0.0
 10
3.55
 20
-3.55
 30
0.0
 10
3.15
 20
-3.55
 30
0.0
 10
3.15
 20
-3.55
 30
0.0
 10
3.15
 20
-3.55
 30
0.0
 10
1.73279
 20
-2.43145
 30
0.0
 10
-3.29136
 20
-1.18454
 30
0.0
 10
-4.55
 20
-0.05
 30
0.0
  0
SPLINE
  5
80
330
1F
100
AcDbEntity
  8
Layer 1
 62
     5
370
    53
100
AcDbSpline
210
0.0
220
0.0
230
1.0
 70
    24
 71
     3
 72
     8
 73
     4
 74
     0
 42
0.0000000001
 43
0.0000000001
 12
1.0
 22
0.0
 32
0.0
 13
1.0
 23
0.0
 33
0.0
 40
0.0
 40
0.0
 40
0.0
 40
0.0
 40
1.0
 40
1.0
 40
1.0
 40
1.0
 10
8.05
 20
-0.05
 30
0.0
 10
8.05
 20
-0.05
 30
0.0
 10
8.05
 20
0.05
 30
0.0
 10
8.05
 20
0.05
 30
0.0
  0
SPLINE
  5
81
330
1F
100
AcDbEntity
  8
Layer 1
 62
     5
370
    53
100
AcDbSpline
210
0.0
220
0.0
230
1.0
 70
     8
 71
     3
 72
    16
 73
    12
 74
     0
 42
0.0000000001
 43
0.0000000001
 12
1.0
 22
0.0
 32
0.0
 13
1.0
 23
0.0
 33
0.0
 40
0.0
 40
0.0
 40
0.0
 40
0.0
 40
0.25
 40
0.25
 40
0.25
 40
0.25
 40
0.5
 40
0.5
 40
0.5
 40
0.5
 40
1.0
 40
1.0
 40
1.0
 40
1.0
 10
4.45
 20
-2.35001
 30
0.0
 10
4.45
 20
-2.35001
 30
0.0
 10
4.55
 20
-2.54999
 30
0.0
 10
4.55
 20
-2.54999
 30
0.0
 10
4.55
 20
-2.54999
 30
0.0
 10
4.55
 20
-2.54999
 30
0.0
 10
4.95
 20
-2.54999
 30
0.0
 10
4.95
 20
-2.54999
 30
0.0
 10
4.95
 20
-2.54999
 30
0.0
 10
5.45054
 20
-1.79473
 30
0.0
 10
8.06114
 20
-0.8858
 30
0.0
 10
7.84999
 20
0.05
 30
0.0
  0
SPLINE
  5
82
330
1F
100
AcDbEntity
  8
Layer 1
 62
     5
370
    53
100
AcDbSpline
210
0.0
220
0.0
230
1.0
 70
     8
 71
     3
 72
     8
 73
     4
 74
     0
 42
0.0000000001
 43
0.0000000001
 12
1.0
 22
0.0
 32
0.0
 13
1.0
 23
0.0
 33
0.0
 40
0.0
 40
0.0
 40
0.0
 40
0.0
 40
1.0
 40
1.0
 40
1.0
 40
1.0
 10
22.55001
 20
0.24999
 30
0.0
 10
22.2473
 20
0.12988
 30
0.0
 10
22.44929
 20
0.15001
 30
0.0
 10
22.05001
 20
0.15001
 30
0.0
  0
SPLINE
  5
83
330
1F
100
AcDbEntity
  8
Layer 1
 62
     5
370
    53
100
AcDbSpline
210
0.0
220
0.0
230
1.0
 70
     8
 71
     3
 72
     8
 73
     4
 74
     0
 42
0.0000000001
 43
0.0000000001
 12
1.0
 22
0.0
 32
0.0
 13
1.0
 23
0.0
 33
0.0
 40
0.0
 40
0.0
 40
0.0
 40
0.0
 40
1.0
 40
1.0
 40
1.0
 40
1.0
 10
-5.05001
 20
-0.05
 30
0.0
 10
-5.17907
 20
0.15735
 30
0.0
 10
-5.14999
 20
-0.08535
 30
0.0
 10
-5.14999
 20
0.24999
 30
0.0
  0
SPLINE
  5
84
330
1F
100
AcDbEntity
  8
Layer 1
 62
     5
370
    53
100
AcDbSpline
210
0.0
220
0.0
230
1.0
 70
     8
 71
     3
 72
    16
 73
    12
 74
     0
 42
0.0000000001
 43
0.0000000001
 12
1.0
 22
0.0
 32
0.0
 13
1.0
 23
0.0
 33
0.0
 40
0.0
 40
0.0
 40
0.0
 40
0.0
 40
0.25
 40
0.25
 40
0.25
 40
0.25
 40
0.5
 40
0.5
 40
0.5
 40
0.5
 40
1.0
 40
1.0
 40
1.0
 40
1.0
 10
-13.24999
 20
-1.35
 30
0.0
 10
-13.05145
 20
-1.25561
 30
0.0
 10
-12.96187
 20
-1.22023
 30
0.0
 10
-12.75001
 20
-1.14999
 30
0.0
 10
-12.75001
 20
-1.14999
 30
0.0
 10
-12.13705
 20
-1.13664
 30
0.0
 10
-8.7651
 20
-0.44943
 30
0.0
 10
-8.15001
 20
-0.24999
 30
0.0
 10
-8.15001
 20
-0.24999
 30
0.0
 10
-7.62846
 20
-0.23865
 30
0.0
 10
-6.36421
 20
0.01094
 30
0.0
 10
-5.95001
 20
0.24999
 30
0.0
  0
SPLINE
  5
85
330
1F
100
AcDbEntity
  8
Layer 1
 62
     5
370
    53
100
AcDbSpline
210
0.0
220
0.0
230
1.0
 70
     8
 71
     3
 72
    16
 73
    12
 74
     0
 42
0.0000000001
 43
0.0000000001
 12
1.0
 22
0.0
 32
0.0
 13
1.0
 23
0.0
 33
0.0
 40
0.0
 40
0.0
 40
0.0
 40
0.0
 40
0.25
 40
0.25
 40
0.25
 40
0.25
 40
0.5
 40
0.5
 40
0.5
 40
0.5
 40
1.0
 40
1.0
 40
1.0
 40
1.0
 10
24.94999
 20
-1.24999
 30
0.0
 10
24.63058
 20
-1.37401
 30
0.0
 10
22.7261
 20
-1.45001
 30
0.0
 10
22.24999
 20
-1.45001
 30
0.0
 10
22.24999
 20
-1.45001
 30
0.0
 10
22.46146
 20
-0.33092
 30
0.0
 10
22.83877
 20
-0.49391
 30
0.0
 10
22.55001
 20
0.24999
 30
0.0
 10
22.55001
 20
0.24999
 30
0.0
 10
22.90678
 20
0.24999
 30
0.0
 10
22.71941
 20
0.2391
 30
0.0
 10
22.95001
 20
0.34999
 30
0.0
  0
SPLINE
  5
86
330
1F
100
AcDbEntity
  8
Layer 1
 62
     5
370
    53
100
AcDbSpline
210
0.0
220
0.0
230
1.0
 70
     8
 71
     3
 72
    24
 73
    20
 74
     0
 42
0.0000000001
 43
0.0000000001
 12
1.0
 22
0.0
 32
0.0
 13
1.0
 23
0.0
 33
0.0
 40
0.0
 40
0.0
 40
0.0
 40
0.0
 40
0.1666666666666667
 40
0.1666666666666667
 40
0.1666666666666667
 40
0.1666666666666667
 40
0.3333333333333333
 40
0.3333333333333333
 40
0.3333333333333333
 40
0.3333333333333333
 40
0.5
 40
0.5
 40
0.5
 40
0.5
 40
0.6666666666666666
 40
0.6666666666666666
 40
0.6666666666666666
 40
0.6666666666666666
 40
1.0
 40
1.0
 40
1.0
 40
1.0
 10
28.65
 20
-0.95
 30
0.0
 10
28.25615
 20
-1.10288
 30
0.0
 10
28.19322
 20
-1.05001
 30
0.0
 10
27.75
 20
-1.05001
 30
0.0
 10
27.75
 20
-1.05001
 30
0.0
 10
27.27517
 20
-1.20396
 30
0.0
 10
26.88024
 20
-1.14999
 30
0.0
 10
26.34999
 20
-1.14999
 30
0.0
 10
26.34999
 20
-1.14999
 30
0.0
 10
25.88409
 20
-1.30107
 30
0.0
 10
25.56647
 20
-1.24999
 30
0.0
 10
25.05
 20
-1.24999
 30
0.0
 10
25.05
 20
-1.24999
 30
0.0
 10
25.05
 20
-1.24999
 30
0.0
 10
24.94999
 20
-1.24999
 30
0.0
 10
24.94999
 20
-1.24999
 30
0.0
 10
24.94999
 20
-1.24999
 30
0.0
 10
24.93429
 20
-0.52849
 30
0.0
 10
24.60408
 20
-0.05383
 30
0.0
 10
24.54999
 20
0.65001
 30
0.0
  0
SPLINE
  5
87
330
1F
100
AcDbEntity
  8
Layer 1
 62
     5
370
    53
100
AcDbSpline
210
0.0
220
0.0
230
1.0
 70
     8
 71
     3
 72
    12
 73
     8
 74
     0
 42
0.0000000001
 43
0.0000000001
 12
1.0
 22
0.0
 32
0.0
 13
1.0
 23
0.0
 33
0.0
 40
0.0
 40
0.0
 40
0.0
 40
0.0
 40
0.3333333333333333
 40
0.3333333333333333
 40
0.3333333333333333
 40
0.3333333333333333
 40
1.0
 40
1.0
 40
1.0
 40
1.0
 10
24.15
 20
0.74999
 30
0.0
 10
23.80006
 20
0.50068
 30
0.0
 10
23.38668
 20
0.38356
 30
0.0
 10
22.95001
 20
0.34999
 30
0.0
 10
22.95001
 20
0.34999
 30
0.0
 10
22.95001
 20
0.34999
 30
0.0
 10
22.95001
 20
0.74999
 30
0.0
 10
22.95001
 20
0.74999
 30
0.0
  0
SPLINE
  5
88
330
1F
100
AcDbEntity
  8
Layer 1
 62
     5
370
    53
100
AcDbSpline
210
0.0
220
0.0
230
1.0
 70
     8
 71
     3
 72
    16
 73
    12
 74
     0
 42
0.0000000001
 43
0.0000000001
 12
1.0
 22
0.0
 32
0.0
 13
1.0
 23
0.0
 33
0.0
 40
0.0
 40
0.0
 40
0.0
 40
0.0
 40
0.25
 40
0.25
 40
0.25
 40
0.25
 40
0.5
 40
0.5
 40
0.5
 40
0.5
 40
1.0
 40
1.0
 40
1.0
 40
1.0
 10
9.45
 20
0.45
 30
0.0
 10
9.45
 20
0.45
 30
0.0
 10
9.85
 20
0.45
 30
0.0
 10
9.85
 20
0.45
 30
0.0
 10
9.85
 20
0.45
 30
0.0
 10
10.20311
 20
0.56449
 30
0.0
 10
10.05679
 20
0.54142
 30
0.0
 10
10.45001
 20
0.55001
 30
0.0
 10
10.45001
 20
0.55001
 30
0.0
 10
10.74926
 20
0.64704
 30
0.0
 10
10.85797
 20
0.63663
 30
0.0
 10
11.15
 20
0.74999
 30
0.0
  0
SPLINE
  5
89
330
1F
100
AcDbEntity
  8
Layer 1
 62
     5
370
    53
100
AcDbSpline
210
0.0
220
0.0
230
1.0
 70
     8
 71
     3
 72
    12
 73
     8
 74
     0
 42
0.0000000001
 43
0.0000000001
 12
1.0
 22
0.0
 32
0.0
 13
1.0
 23
0.0
 33
0.0
 40
0.0
 40
0.0
 40
0.0
 40
0.0
 40
0.3333333333333333
 40
0.3333333333333333
 40
0.3333333333333333
 40
0.3333333333333333
 40
1.0
 40
1.0
 40
1.0
 40
1.0
 10
12.15
 20
0.15001
 30
0.0
 10
12.48775
 20
0.37108
 30
0.0
 10
12.32017
 20
0.20619
 30
0.0
 10
12.55
 20
0.55001
 30
0.0
 10
12.55
 20
0.55001
 30
0.0
 10
12.55
 20
0.55001
 30
0.0
 10
12.55
 20
0.95
 30
0.0
 10
12.55
 20
0.95
 30
0.0
  0
SPLINE
  5
8A
330
1F
100
AcDbEntity
  8
Layer 1
 62
     5
370
    53
100
AcDbSpline
210
0.0
220
0.0
230
1.0
 70
     8
 71
     3
 72
    60
 73
    56
 74
     0
 42
0.0000000001
 43
0.0000000001
 12
1.0
 22
0.0
 32
0.0
 13
1.0
 23
0.0
 33
0.0
 40
0.0
 40
0.0
 40
0.0
 40
0.0
 40
0.0666666666666667
 40
0.0666666666666667
 40
0.0666666666666667
 40
0.0666666666666667
 40
0.1333333333333333
 40
0.1333333333333333
 40
0.1333333333333333
 40
0.1333333333333333
 40
0.2
 40
0.2
 40
0.2
 40
0.2
 40
0.2666666666666667
 40
0.2666666666666667
 40
0.2666666666666667
 40
0.2666666666666667
 40
0.3333333333333333
 40
0.3333333333333333
 40
0.3333333333333333
 40
0.3333333333333333
 40
0.4
 40
0.4
 40
0.4
 40
0.4
 40
0.4666666666666667
 40
0.4666666666666667
 40
0.4666666666666667
 40
0.4666666666666667
 40
0.5333333333333333
 40
0.5333333333333333
 40
0.5333333333333333
 40
0.5333333333333333
 40
0.6
 40
0.6
 40
0.6
 40
0.6
 40
0.6666666666666666
 40
0.6666666666666666
 40
0.6666666666666666
 40
0.6666666666666666
 40
0.7333333333333333
 40
0.7333333333333333
 40
0.7333333333333333
 40
0.7333333333333333
 40
0.8
 40
0.8
 40
0.8
 40
0.8
 40
0.8666666666666667
 40
0.8666666666666667
 40
0.8666666666666667
 40
0.8666666666666667
 40
1.0
 40
1.0
 40
1.0
 40
1.0
 10
3.15
 20
-1.55001
 30
0.0
 10
3.13211
 20
-1.94564
 30
0.0
 10
3.05209
 20
-1.566
 30
0.0
 10
3.35001
 20
-2.04999
 30
0.0
 10
3.35001
 20
-2.04999
 30
0.0
 10
3.57233
 20
-2.092
 30
0.0
 10
3.71256
 20
-2.13177
 30
0.0
 10
3.94999
 20
-2.14999
 30
0.0
 10
3.94999
 20
-2.14999
 30
0.0
 10
3.94999
 20
-2.14999
 30
0.0
 10
3.94999
 20
-2.25
 30
0.0
 10
3.94999
 20
-2.25
 30
0.0
 10
3.94999
 20
-2.25
 30
0.0
 10
4.2577
 20
-2.35199
 30
0.0
 10
4.12081
 20
-2.32415
 30
0.0
 10
4.45
 20
-2.35001
 30
0.0
 10
4.45
 20
-2.35001
 30
0.0
 10
4.57013
 20
-2.0473
 30
0.0
 10
4.55
 20
-2.24929
 30
0.0
 10
4.55
 20
-1.85
 30
0.0
 10
4.55
 20
-1.85
 30
0.0
 10
4.55
 20
-1.85
 30
0.0
 10
4.34999
 20
-1.75
 30
0.0
 10
4.34999
 20
-1.75
 30
0.0
 10
4.34999
 20
-1.75
 30
0.0
 10
4.40215
 20
-1.2327
 30
0.0
 10
4.23411
 20
-1.48269
 30
0.0
 10
4.65001
 20
-1.35
 30
0.0
 10
4.65001
 20
-1.35
 30
0.0
 10
4.74361
 20
-0.85453
 30
0.0
 10
4.83846
 20
-1.0355
 30
0.0
 10
4.65001
 20
-0.55001
 30
0.0
 10
4.65001
 20
-0.55001
 30
0.0
 10
4.07662
 20
-0.65835
 30
0.0
 10
3.56097
 20
-0.7124
 30
0.0
 10
3.04999
 20
-0.95
 30
0.0
 10
3.04999
 20
-0.95
 30
0.0
 10
3.18283
 20
-1.29215
 30
0.0
 10
3.15
 20
-1.13893
 30
0.0
 10
3.15
 20
-1.55001
 30
0.0
 10
3.15
 20
-1.55001
 30
0.0
 10
3.13537
 20
-1.56053
 30
0.0
 10
2.85472
 20
-1.7458
 30
0.0
 10
2.85001
 20
-1.75
 30
0.0
 10
2.85001
 20
-1.75
 30
0.0
 10
2.26624
 20
-1.51588
 30
0.0
 10
1.44369
 20
-1.23965
 30
0.0
 10
0.95
 20
-0.85
 30
0.0
 10
0.95
 20
-0.85
 30
0.0
 10
1.03377
 20
-0.45252
 30
0.0
 10
1.33801
 20
0.19604
 30
0.0
 10
1.55001
 20
0.55001
 30
0.0
 10
1.55001
 20
0.55001
 30
0.0
 10
1.55001
 20
0.9362
 30
0.0
 10
1.56915
 20
0.74625
 30
0.0
 10
1.64999
 20
0.95
 30
0.0
  0
SPLINE
  5
8B
330
1F
100
AcDbEntity
  8
Layer 1
 62
     5
370
    53
100
AcDbSpline
210
0.0
220
0.0
230
1.0
 70
     8
 71
     3
 72
    72
 73
    68
 74
     0
 42
0.0000000001
 43
0.0000000001
 12
1.0
 22
0.0
 32
0.0
 13
1.0
 23
0.0
 33
0.0
 40
0.0
 40
0.0
 40
0.0
 40
0.0
 40
0.0555555555555556
 40
0.0555555555555556
 40
0.0555555555555556
 40
0.0555555555555556
 40
0.1111111111111111
 40
0.1111111111111111
 40
0.1111111111111111
 40
0.1111111111111111
 40
0.1666666666666667
 40
0.1666666666666667
 40
0.1666666666666667
 40
0.1666666666666667
 40
0.2222222222222222
 40
0.2222222222222222
 40
0.2222222222222222
 40
0.2222222222222222
 40
0.2777777777777778
 40
0.2777777777777778
 40
0.2777777777777778
 40
0.2777777777777778
 40
0.3333333333333333
 40
0.3333333333333333
 40
0.3333333333333333
 40
0.3333333333333333
 40
0.3888888888888889
 40
0.3888888888888889
 40
0.3888888888888889
 40
0.3888888888888889
 40
0.4444444444444444
 40
0.4444444444444444
 40
0.4444444444444444
 40
0.4444444444444444
 40
0.5
 40
0.5
 40
0.5
 40
0.5
 40
0.5555555555555556
 40
0.5555555555555556
 40
0.5555555555555556
 40
0.5555555555555556
 40
0.6111111111111112
 40
0.6111111111111112
 40
0.6111111111111112
 40
0.6111111111111112
 40
0.6666666666666666
 40
0.6666666666666666
 40
0.6666666666666666
 40
0.6666666666666666
 40
0.7222222222222222
 40
0.7222222222222222
 40
0.7222222222222222
 40
0.7222222222222222
 40
0.7777777777777778
 40
0.7777777777777778
 40
0.7777777777777778
 40
0.7777777777777778
 40
0.8333333333333334
 40
0.8333333333333334
 40
0.8333333333333334
 40
0.8333333333333334
 40
0.8888888888888888
 40
0.8888888888888888
 40
0.8888888888888888
 40
0.8888888888888888
 40
1.0
 40
1.0
 40
1.0
 40
1.0
 10
11.65
 20
0.74999
 30
0.0
 10
11.77696
 20
0.30852
 30
0.0
 10
11.7457
 20
0.39736
 30
0.0
 10
12.15
 20
0.15001
 30
0.0
 10
12.15
 20
0.15001
 30
0.0
 10
12.15
 20
0.15001
 30
0.0
 10
12.15
 20
-0.34999
 30
0.0
 10
12.15
 20
-0.34999
 30
0.0
 10
12.15
 20
-0.34999
 30
0.0
 10
12.57747
 20
-0.47293
 30
0.0
 10
12.39441
 20
-0.40215
 30
0.0
 10
12.75001
 20
-0.74999
 30
0.0
 10
12.75001
 20
-0.74999
 30
0.0
 10
13.04964
 20
-1.19339
 30
0.0
 10
13.59573
 20
-1.59976
 30
0.0
 10
13.65001
 20
-2.14999
 30
0.0
 10
13.65001
 20
-2.14999
 30
0.0
 10
13.65001
 20
-2.14999
 30
0.0
 10
13.95
 20
-2.14999
 30
0.0
 10
13.95
 20
-2.14999
 30
0.0
 10
13.95
 20
-2.14999
 30
0.0
 10
14.1317
 20
-2.57973
 30
0.0
 10
15.45512
 20
-4.24721
 30
0.0
 10
15.94999
 20
-4.55
 30
0.0
 10
15.94999
 20
-4.55
 30
0.0
 10
16.3175
 20
-4.32834
 30
0.0
 10
16.12937
 20
-4.50275
 30
0.0
 10
16.34999
 20
-4.15001
 30
0.0
 10
16.34999
 20
-4.15001
 30
0.0
 10
16.34999
 20
-4.15001
 30
0.0
 10
16.55
 20
-4.15001
 30
0.0
 10
16.55
 20
-4.15001
 30
0.0
 10
16.55
 20
-4.15001
 30
0.0
 10
16.55
 20
-4.15001
 30
0.0
 10
16.95
 20
-3.75001
 30
0.0
 10
16.95
 20
-3.75001
 30
0.0
 10
16.95
 20
-3.75001
 30
0.0
 10
17.23097
 20
-3.56012
 30
0.0
 10
17.28692
 20
-3.50734
 30
0.0
 10
17.55
 20
-3.25001
 30
0.0
 10
17.55
 20
-3.25001
 30
0.0
 10
17.9805
 20
-2.95909
 30
0.0
 10
18.26544
 20
-2.58934
 30
0.0
 10
18.75
 20
-2.44998
 30
0.0
 10
18.75
 20
-2.44998
 30
0.0
 10
18.75
 20
-2.44998
 30
0.0
 10
18.75
 20
-2.14999
 30
0.0
 10
18.75
 20
-2.14999
 30
0.0
 10
18.75
 20
-2.14999
 30
0.0
 10
18.62479
 20
-1.84456
 30
0.0
 10
18.57705
 20
-1.70235
 30
0.0
 10
18.55001
 20
-1.35
 30
0.0
 10
18.55001
 20
-1.35
 30
0.0
 10
18.4616
 20
-1.10421
 30
0.0
 10
18.49414
 20
-1.17856
 30
0.0
 10
18.45001
 20
-0.95
 30
0.0
 10
18.45001
 20
-0.95
 30
0.0
 10
17.39246
 20
-1.03124
 30
0.0
 10
15.95149
 20
-1.64188
 30
0.0
 10
14.85
 20
-1.85
 30
0.0
 10
14.85
 20
-1.85
 30
0.0
 10
14.85
 20
-1.85
 30
0.0
 10
14.55001
 20
-1.85
 30
0.0
 10
14.55001
 20
-1.85
 30
0.0
 10
14.55001
 20
-1.85
 30
0.0
 10
14.5067
 20
-1.28636
 30
0.0
 10
13.11313
 20
0.64307
 30
0.0
 10
12.65001
 20
0.95
 30
0.0
  0
SPLINE
  5
8C
330
1F
100
AcDbEntity
  8
Layer 1
 62
     5
370
    53
100
AcDbSpline
210
0.0
220
0.0
230
1.0
 70
     8
 71
     3
 72
    24
 73
    20
 74
     0
 42
0.0000000001
 43
0.0000000001
 12
1.0
 22
0.0
 32
0.0
 13
1.0
 23
0.0
 33
0.0
 40
0.0
 40
0.0
 40
0.0
 40
0.0
 40
0.1666666666666667
 40
0.1666666666666667
 40
0.1666666666666667
 40
0.1666666666666667
 40
0.3333333333333333
 40
0.3333333333333333
 40
0.3333333333333333
 40
0.3333333333333333
 40
0.5
 40
0.5
 40
0.5
 40
0.5
 40
0.6666666666666666
 40
0.6666666666666666
 40
0.6666666666666666
 40
0.6666666666666666
 40
1.0
 40
1.0
 40
1.0
 40
1.0
 10
29.84999
 20
-1.05001
 30
0.0
 10
29.63776
 20
-1.00551
 30
0.0
 10
29.68493
 20
-1.0345
 30
0.0
 10
29.44999
 20
-0.95
 30
0.0
 10
29.44999
 20
-0.95
 30
0.0
 10
29.44999
 20
-0.95
 30
0.0
 10
28.65
 20
-0.95
 30
0.0
 10
28.65
 20
-0.95
 30
0.0
 10
28.65
 20
-0.95
 30
0.0
 10
28.31803
 20
-0.52175
 30
0.0
 10
25.25256
 20
0.51724
 30
0.0
 10
24.54999
 20
0.65001
 30
0.0
 10
24.54999
 20
0.65001
 30
0.0
 10
24.31942
 20
0.76088
 30
0.0
 10
24.50679
 20
0.74999
 30
0.0
 10
24.15
 20
0.74999
 30
0.0
 10
24.15
 20
0.74999
 30
0.0
 10
23.73396
 20
1.05548
 30
0.0
 10
23.66604
 20
0.94453
 30
0.0
 10
23.25
 20
1.24999
 30
0.0
  0
SPLINE
  5
8D
330
1F
100
AcDbEntity
  8
Layer 1
 62
     5
370
    53
100
AcDbSpline
210
0.0
220
0.0
230
1.0
 70
     8
 71
     3
 72
    24
 73
    20
 74
     0
 42
0.0000000001
 43
0.0000000001
 12
1.0
 22
0.0
 32
0.0
 13
1.0
 23
0.0
 33
0.0
 40
0.0
 40
0.0
 40
0.0
 40
0.0
 40
0.1666666666666667
 40
0.1666666666666667
 40
0.1666666666666667
 40
0.1666666666666667
 40
0.3333333333333333
 40
0.3333333333333333
 40
0.3333333333333333
 40
0.3333333333333333
 40
0.5
 40
0.5
 40
0.5
 40
0.5
 40
0.6666666666666666
 40
0.6666666666666666
 40
0.6666666666666666
 40
0.6666666666666666
 40
1.0
 40
1.0
 40
1.0
 40
1.0
 10
21.34999
 20
-0.05
 30
0.0
 10
21.34999
 20
-0.05
 30
0.0
 10
21.15001
 20
-0.34999
 30
0.0
 10
21.15001
 20
-0.34999
 30
0.0
 10
21.15001
 20
-0.34999
 30
0.0
 10
21.15001
 20
-0.34999
 30
0.0
 10
20.84999
 20
-0.34999
 30
0.0
 10
20.84999
 20
-0.34999
 30
0.0
 10
20.84999
 20
-0.34999
 30
0.0
 10
19.91282
 20
-0.34999
 30
0.0
 10
19.28325
 20
-0.82967
 30
0.0
 10
18.35
 20
-0.85
 30
0.0
 10
18.35
 20
-0.85
 30
0.0
 10
18.35
 20
-0.20659
 30
0.0
 10
18.05565
 20
1.42019
 30
0.0
 10
17.85
 20
1.95001
 30
0.0
 10
17.85
 20
1.95001
 30
0.0
 10
17.0381
 20
2.00307
 30
0.0
 10
14.02016
 20
1.14999
 30
0.0
 10
13.05
 20
1.14999
 30
0.0
  0
SPLINE
  5
8E
330
1F
100
AcDbEntity
  8
Layer 1
 62
     5
370
    53
100
AcDbSpline
210
0.0
220
0.0
230
1.0
 70
    24
 71
     3
 72
     8
 73
     4
 74
     0
 42
0.0000000001
 43
0.0000000001
 12
1.0
 22
0.0
 32
0.0
 13
1.0
 23
0.0
 33
0.0
 40
0.0
 40
0.0
 40
0.0
 40
0.0
 40
1.0
 40
1.0
 40
1.0
 40
1.0
 10
12.84999
 20
1.24999
 30
0.0
 10
12.84999
 20
1.24999
 30
0.0
 10
12.84999
 20
1.14999
 30
0.0
 10
12.84999
 20
1.14999
 30
0.0
  0
SPLINE
  5
8F
330
1F
100
AcDbEntity
  8
Layer 1
 62
     5
370
    53
100
AcDbSpline
210
0.0
220
0.0
230
1.0
 70
     8
 71
     3
 72
    12
 73
     8
 74
     0
 42
0.0000000001
 43
0.0000000001
 12
1.0
 22
0.0
 32
0.0
 13
1.0
 23
0.0
 33
0.0
 40
0.0
 40
0.0
 40
0.0
 40
0.0
 40
0.3333333333333333
 40
0.3333333333333333
 40
0.3333333333333333
 40
0.3333333333333333
 40
1.0
 40
1.0
 40
1.0
 40
1.0
 10
12.65001
 20
1.14999
 30
0.0
 10
12.34866
 20
1.52155
 30
0.0
 10
12.10388
 20
1.8618
 30
0.0
 10
11.85001
 20
2.25
 30
0.0
 10
11.85001
 20
2.25
 30
0.0
 10
11.37683
 20
2.15028
 30
0.0
 10
11.21877
 20
1.99043
 30
0.0
 10
10.85001
 20
1.64999
 30
0.0
  0
SPLINE
  5
90
330
1F
100
AcDbEntity
  8
Layer 1
 62
     5
370
    53
100
AcDbSpline
210
0.0
220
0.0
230
1.0
 70
     8
 71
     3
 72
     8
 73
     4
 74
     0
 42
0.0000000001
 43
0.0000000001
 12
1.0
 22
0.0
 32
0.0
 13
1.0
 23
0.0
 33
0.0
 40
0.0
 40
0.0
 40
0.0
 40
0.0
 40
1.0
 40
1.0
 40
1.0
 40
1.0
 10
-3.55
 20
2.44998
 30
0.0
 10
-3.35911
 20
2.02141
 30
0.0
 10
-3.36373
 20
2.31307
 30
0.0
 10
-2.85001
 20
1.85
 30
0.0
  0
SPLINE
  5
91
330
1F
100
AcDbEntity
  8
Layer 1
 62
     5
370
    53
100
AcDbSpline
210
0.0
220
0.0
230
1.0
 70
     8
 71
     3
 72
    40
 73
    36
 74
     0
 42
0.0000000001
 43
0.0000000001
 12
1.0
 22
0.0
 32
0.0
 13
1.0
 23
0.0
 33
0.0
 40
0.0
 40
0.0
 40
0.0
 40
0.0
 40
0.1
 40
0.1
 40
0.1
 40
0.1
 40
0.2
 40
0.2
 40
0.2
 40
0.2
 40
0.3
 40
0.3
 40
0.3
 40
0.3
 40
0.4
 40
0.4
 40
0.4
 40
0.4
 40
0.5
 40
0.5
 40
0.5
 40
0.5
 40
0.6
 40
0.6
 40
0.6
 40
0.6
 40
0.7
 40
0.7
 40
0.7
 40
0.7
 40
0.8
 40
0.8
 40
0.8
 40
0.8
 40
1.0
 40
1.0
 40
1.0
 40
1.0
 10
10.85001
 20
1.55001
 30
0.0
 10
11.19444
 20
1.16787
 30
0.0
 10
11.2394
 20
1.19872
 30
0.0
 10
11.15
 20
0.74999
 30
0.0
 10
11.15
 20
0.74999
 30
0.0
 10
11.15
 20
0.74999
 30
0.0
 10
11.65
 20
0.74999
 30
0.0
 10
11.65
 20
0.74999
 30
0.0
 10
11.65
 20
0.74999
 30
0.0
 10
12.00396
 20
0.89512
 30
0.0
 10
12.1364
 20
0.94099
 30
0.0
 10
12.55
 20
0.95
 30
0.0
 10
12.55
 20
0.95
 30
0.0
 10
12.55
 20
0.95
 30
0.0
 10
12.65001
 20
0.95
 30
0.0
 10
12.65001
 20
0.95
 30
0.0
 10
12.65001
 20
0.95
 30
0.0
 10
12.65001
 20
0.95
 30
0.0
 10
12.65001
 20
1.14999
 30
0.0
 10
12.65001
 20
1.14999
 30
0.0
 10
12.65001
 20
1.14999
 30
0.0
 10
12.65001
 20
1.14999
 30
0.0
 10
12.84999
 20
1.14999
 30
0.0
 10
12.84999
 20
1.14999
 30
0.0
 10
12.84999
 20
1.14999
 30
0.0
 10
12.84999
 20
1.14999
 30
0.0
 10
13.05
 20
1.14999
 30
0.0
 10
13.05
 20
1.14999
 30
0.0
 10
13.05
 20
1.14999
 30
0.0
 10
12.96547
 20
1.38495
 30
0.0
 10
12.9945
 20
1.33775
 30
0.0
 10
12.95
 20
1.55001
 30
0.0
 10
12.95
 20
1.55001
 30
0.0
 10
13.57966
 20
3.11998
 30
0.0
 10
14.42299
 20
4.68663
 30
0.0
 10
15.04999
 20
6.25
 30
0.0
  0
SPLINE
  5
92
330
1F
100
AcDbEntity
  8
Layer 1
 62
     5
370
    53
100
AcDbSpline
210
0.0
220
0.0
230
1.0
 70
     8
 71
     3
 72
     8
 73
     4
 74
     0
 42
0.0000000001
 43
0.0000000001
 12
1.0
 22
0.0
 32
0.0
 13
1.0
 23
0.0
 33
0.0
 40
0.0
 40
0.0
 40
0.0
 40
0.0
 40
1.0
 40
1.0
 40
1.0
 40
1.0
 10
-7.15
 20
6.44998
 30
0.0
 10
-7.55198
 20
6.29394
 30
0.0
 10
-8.14802
 20
6.29394
 30
0.0
 10
-8.55
 20
6.44998
 30
0.0
  0
SPLINE
  5
93
330
1F
100
AcDbEntity
  8
Layer 1
 62
     5
370
    53
100
AcDbSpline
210
0.0
220
0.0
230
1.0
 70
     8
 71
     3
 72
    36
 73
    32
 74
     0
 42
0.0000000001
 43
0.0000000001
 12
1.0
 22
0.0
 32
0.0
 13
1.0
 23
0.0
 33
0.0
 40
0.0
 40
0.0
 40
0.0
 40
0.0
 40
0.1111111111111111
 40
0.1111111111111111
 40
0.1111111111111111
 40
0.1111111111111111
 40
0.2222222222222222
 40
0.2222222222222222
 40
0.2222222222222222
 40
0.2222222222222222
 40
0.3333333333333333
 40
0.3333333333333333
 40
0.3333333333333333
 40
0.3333333333333333
 40
0.4444444444444444
 40
0.4444444444444444
 40
0.4444444444444444
 40
0.4444444444444444
 40
0.5555555555555556
 40
0.5555555555555556
 40
0.5555555555555556
 40
0.5555555555555556
 40
0.6666666666666666
 40
0.6666666666666666
 40
0.6666666666666666
 40
0.6666666666666666
 40
0.7777777777777778
 40
0.7777777777777778
 40
0.7777777777777778
 40
0.7777777777777778
 40
1.0
 40
1.0
 40
1.0
 40
1.0
 10
-6.75
 20
6.44998
 30
0.0
 10
-6.5937
 20
5.70441
 30
0.0
 10
-6.43961
 20
5.96461
 30
0.0
 10
-5.85
 20
5.24999
 30
0.0
 10
-5.85
 20
5.24999
 30
0.0
 10
-5.21836
 20
4.48444
 30
0.0
 10
-3.72013
 20
3.04166
 30
0.0
 10
-3.55
 20
2.44998
 30
0.0
 10
-3.55
 20
2.44998
 30
0.0
 10
-3.9327
 20
2.04653
 30
0.0
 10
-3.90682
 20
2.33598
 30
0.0
 10
-4.55
 20
2.35001
 30
0.0
 10
-4.55
 20
2.35001
 30
0.0
 10
-4.9121
 20
1.72259
 30
0.0
 10
-4.92789
 20
0.93501
 30
0.0
 10
-5.14999
 20
0.24999
 30
0.0
 10
-5.14999
 20
0.24999
 30
0.0
 10
-5.14999
 20
0.24999
 30
0.0
 10
-5.95001
 20
0.24999
 30
0.0
 10
-5.95001
 20
0.24999
 30
0.0
 10
-5.95001
 20
0.24999
 30
0.0
 10
-6.42235
 20
0.94592
 30
0.0
 10
-9.35371
 20
1.64259
 30
0.0
 10
-10.25
 20
2.35001
 30
0.0
 10
-10.25
 20
2.35001
 30
0.0
 10
-10.07286
 20
3.19054
 30
0.0
 10
-9.12223
 20
5.12187
 30
0.0
 10
-8.74999
 20
6.04999
 30
0.0
 10
-8.74999
 20
6.04999
 30
0.0
 10
-8.74999
 20
6.04999
 30
0.0
 10
-8.74999
 20
6.44998
 30
0.0
 10
-8.74999
 20
6.44998
 30
0.0
  0
SPLINE
  5
94
330
1F
100
AcDbEntity
  8
Layer 1
 62
     5
370
    53
100
AcDbSpline
210
0.0
220
0.0
230
1.0
 70
     8
 71
     3
 72
    44
 73
    40
 74
     0
 42
0.0000000001
 43
0.0000000001
 12
1.0
 22
0.0
 32
0.0
 13
1.0
 23
0.0
 33
0.0
 40
0.0
 40
0.0
 40
0.0
 40
0.0
 40
0.0909090909090909
 40
0.0909090909090909
 40
0.0909090909090909
 40
0.0909090909090909
 40
0.1818181818181818
 40
0.1818181818181818
 40
0.1818181818181818
 40
0.1818181818181818
 40
0.2727272727272727
 40
0.2727272727272727
 40
0.2727272727272727
 40
0.2727272727272727
 40
0.3636363636363636
 40
0.3636363636363636
 40
0.3636363636363636
 40
0.3636363636363636
 40
0.4545454545454545
 40
0.4545454545454545
 40
0.4545454545454545
 40
0.4545454545454545
 40
0.5454545454545454
 40
0.5454545454545454
 40
0.5454545454545454
 40
0.5454545454545454
 40
0.6363636363636364
 40
0.6363636363636364
 40
0.6363636363636364
 40
0.6363636363636364
 40
0.7272727272727273
 40
0.7272727272727273
 40
0.7272727272727273
 40
0.7272727272727273
 40
0.8181818181818182
 40
0.8181818181818182
 40
0.8181818181818182
 40
0.8181818181818182
 40
1.0
 40
1.0
 40
1.0
 40
1.0
 10
4.95
 20
0.15001
 30
0.0
 10
4.95
 20
0.15001
 30
0.0
 10
4.95
 20
-0.45
 30
0.0
 10
4.95
 20
-0.45
 30
0.0
 10
4.95
 20
-0.45
 30
0.0
 10
4.95
 20
-0.45
 30
0.0
 10
5.35
 20
-0.45
 30
0.0
 10
5.35
 20
-0.45
 30
0.0
 10
5.35
 20
-0.45
 30
0.0
 10
5.82358
 20
-0.29645
 30
0.0
 10
7.34275
 20
0.01103
 30
0.0
 10
7.84999
 20
0.05
 30
0.0
 10
7.84999
 20
0.05
 30
0.0
 10
7.84999
 20
0.05
 30
0.0
 10
8.05
 20
0.05
 30
0.0
 10
8.05
 20
0.05
 30
0.0
 10
8.05
 20
0.05
 30
0.0
 10
8.50031
 20
0.08459
 30
0.0
 10
8.47996
 20
0.12838
 30
0.0
 10
8.84999
 20
0.34999
 30
0.0
 10
8.84999
 20
0.34999
 30
0.0
 10
9.08742
 20
0.36825
 30
0.0
 10
9.22768
 20
0.40799
 30
0.0
 10
9.45
 20
0.45
 30
0.0
 10
9.45
 20
0.45
 30
0.0
 10
9.60891
 20
1.00264
 30
0.0
 10
10.31831
 20
1.43796
 30
0.0
 10
10.85001
 20
1.55001
 30
0.0
 10
10.85001
 20
1.55001
 30
0.0
 10
10.85001
 20
1.55001
 30
0.0
 10
10.85001
 20
1.64999
 30
0.0
 10
10.85001
 20
1.64999
 30
0.0
 10
10.85001
 20
1.64999
 30
0.0
 10
10.48235
 20
1.92733
 30
0.0
 10
9.89935
 20
2.6839
 30
0.0
 10
9.64999
 20
3.15
 30
0.0
 10
9.64999
 20
3.15
 30
0.0
 10
10.67018
 20
4.17019
 30
0.0
 10
13.15086
 20
5.84257
 30
0.0
 10
13.45
 20
6.54999
 30
0.0
  0
SPLINE
  5
95
330
1F
100
AcDbEntity
  8
Layer 1
 62
     5
370
    53
100
AcDbSpline
210
0.0
220
0.0
230
1.0
 70
     8
 71
     3
 72
    16
 73
    12
 74
     0
 42
0.0000000001
 43
0.0000000001
 12
1.0
 22
0.0
 32
0.0
 13
1.0
 23
0.0
 33
0.0
 40
0.0
 40
0.0
 40
0.0
 40
0.0
 40
0.25
 40
0.25
 40
0.25
 40
0.25
 40
0.5
 40
0.5
 40
0.5
 40
0.5
 40
1.0
 40
1.0
 40
1.0
 40
1.0
 10
-14.24999
 20
-0.15001
 30
0.0
 10
-14.06685
 20
0.32182
 30
0.0
 10
-14.07609
 20
3.1849
 30
0.0
 10
-14.05001
 20
3.34999
 30
0.0
 10
-14.05001
 20
3.34999
 30
0.0
 10
-13.86148
 20
3.9314
 30
0.0
 10
-13.95
 20
4.69919
 30
0.0
 10
-13.95
 20
5.35
 30
0.0
 10
-13.95
 20
5.35
 30
0.0
 10
-13.80218
 20
5.80587
 30
0.0
 10
-13.85
 20
6.0478
 30
0.0
 10
-13.85
 20
6.54999
 30
0.0
  0
SPLINE
  5
96
330
1F
100
AcDbEntity
  8
Layer 1
 62
     5
370
    53
100
AcDbSpline
210
0.0
220
0.0
230
1.0
 70
     8
 71
     3
 72
    12
 73
     8
 74
     0
 42
0.0000000001
 43
0.0000000001
 12
1.0
 22
0.0
 32
0.0
 13
1.0
 23
0.0
 33
0.0
 40
0.0
 40
0.0
 40
0.0
 40
0.0
 40
0.3333333333333333
 40
0.3333333333333333
 40
0.3333333333333333
 40
0.3333333333333333
 40
1.0
 40
1.0
 40
1.0
 40
1.0
 10
26.74999
 20
5.85
 30
0.0
 10
27.0527
 20
5.97011
 30
0.0
 10
26.85071
 20
5.95001
 30
0.0
 10
27.25
 20
5.95001
 30
0.0
 10
27.25
 20
5.95001
 30
0.0
 10
27.86109
 20
6.14815
 30
0.0
 10
29.21143
 20
6.50095
 30
0.0
 10
29.84999
 20
6.54999
 30
0.0
  0
SPLINE
  5
97
330
1F
100
AcDbEntity
  8
Layer 1
 62
     5
370
    53
100
AcDbSpline
210
0.0
220
0.0
230
1.0
 70
     8
 71
     3
 72
    12
 73
     8
 74
     0
 42
0.0000000001
 43
0.0000000001
 12
1.0
 22
0.0
 32
0.0
 13
1.0
 23
0.0
 33
0.0
 40
0.0
 40
0.0
 40
0.0
 40
0.0
 40
0.3333333333333333
 40
0.3333333333333333
 40
0.3333333333333333
 40
0.3333333333333333
 40
1.0
 40
1.0
 40
1.0
 40
1.0
 10
15.65
 20
7.94999
 30
0.0
 10
15.60093
 20
7.69159
 30
0.0
 10
15.60297
 20
7.85058
 30
0.0
 10
15.65
 20
7.65
 30
0.0
 10
15.65
 20
7.65
 30
0.0
 10
15.4785
 20
7.22237
 30
0.0
 10
15.412
 20
6.8957
 30
0.0
 10
15.04999
 20
6.65
 30
0.0
  0
SPLINE
  5
98
330
1F
100
AcDbEntity
  8
Layer 1
 62
     5
370
    53
100
AcDbSpline
210
0.0
220
0.0
230
1.0
 70
     8
 71
     3
 72
    12
 73
     8
 74
     0
 42
0.0000000001
 43
0.0000000001
 12
1.0
 22
0.0
 32
0.0
 13
1.0
 23
0.0
 33
0.0
 40
0.0
 40
0.0
 40
0.0
 40
0.0
 40
0.3333333333333333
 40
0.3333333333333333
 40
0.3333333333333333
 40
0.3333333333333333
 40
1.0
 40
1.0
 40
1.0
 40
1.0
 10
1.75
 20
0.95
 30
0.0
 10
1.87841
 20
1.55925
 30
0.0
 10
3.76798
 20
5.71218
 30
0.0
 10
4.15001
 20
6.35
 30
0.0
 10
4.15001
 20
6.35
 30
0.0
 10
4.15001
 20
6.75187
 30
0.0
 10
4.13269
 20
6.54783
 30
0.0
 10
4.25001
 20
6.85001
 30
0.0
  0
SPLINE
  5
99
330
1F
100
AcDbEntity
  8
Layer 1
 62
     5
370
    53
100
AcDbSpline
210
0.0
220
0.0
230
1.0
 70
     8
 71
     3
 72
     8
 73
     4
 74
     0
 42
0.0000000001
 43
0.0000000001
 12
1.0
 22
0.0
 32
0.0
 13
1.0
 23
0.0
 33
0.0
 40
0.0
 40
0.0
 40
0.0
 40
0.0
 40
1.0
 40
1.0
 40
1.0
 40
1.0
 10
13.74999
 20
6.75
 30
0.0
 10
14.15552
 20
6.89032
 30
0.0
 10
14.00043
 20
6.79332
 30
0.0
 10
14.35
 20
7.04999
 30
0.0
  0
SPLINE
  5
9A
330
1F
100
AcDbEntity
  8
Layer 1
 62
     5
370
    53
100
AcDbSpline
210
0.0
220
0.0
230
1.0
 70
     8
 71
     3
 72
    16
 73
    12
 74
     0
 42
0.0000000001
 43
0.0000000001
 12
1.0
 22
0.0
 32
0.0
 13
1.0
 23
0.0
 33
0.0
 40
0.0
 40
0.0
 40
0.0
 40
0.0
 40
0.25
 40
0.25
 40
0.25
 40
0.25
 40
0.5
 40
0.5
 40
0.5
 40
0.5
 40
1.0
 40
1.0
 40
1.0
 40
1.0
 10
26.45
 20
5.85
 30
0.0
 10
26.25146
 20
5.75561
 30
0.0
 10
26.16186
 20
5.72023
 30
0.0
 10
25.95
 20
5.64999
 30
0.0
 10
25.95
 20
5.64999
 30
0.0
 10
25.95
 20
5.64999
 30
0.0
 10
25.44999
 20
5.64999
 30
0.0
 10
25.44999
 20
5.64999
 30
0.0
 10
25.44999
 20
5.64999
 30
0.0
 10
25.19848
 20
6.08582
 30
0.0
 10
24.88142
 20
7.08988
 30
0.0
 10
25.05
 20
7.55
 30
0.0
  0
SPLINE
  5
9B
330
1F
100
AcDbEntity
  8
Layer 1
 62
     5
370
    53
100
AcDbSpline
210
0.0
220
0.0
230
1.0
 70
     8
 71
     3
 72
    36
 73
    32
 74
     0
 42
0.0000000001
 43
0.0000000001
 12
1.0
 22
0.0
 32
0.0
 13
1.0
 23
0.0
 33
0.0
 40
0.0
 40
0.0
 40
0.0
 40
0.0
 40
0.1111111111111111
 40
0.1111111111111111
 40
0.1111111111111111
 40
0.1111111111111111
 40
0.2222222222222222
 40
0.2222222222222222
 40
0.2222222222222222
 40
0.2222222222222222
 40
0.3333333333333333
 40
0.3333333333333333
 40
0.3333333333333333
 40
0.3333333333333333
 40
0.4444444444444444
 40
0.4444444444444444
 40
0.4444444444444444
 40
0.4444444444444444
 40
0.5555555555555556
 40
0.5555555555555556
 40
0.5555555555555556
 40
0.5555555555555556
 40
0.6666666666666666
 40
0.6666666666666666
 40
0.6666666666666666
 40
0.6666666666666666
 40
0.7777777777777778
 40
0.7777777777777778
 40
0.7777777777777778
 40
0.7777777777777778
 40
1.0
 40
1.0
 40
1.0
 40
1.0
 10
-13.85
 20
6.54999
 30
0.0
 10
-13.85
 20
7.62443
 30
0.0
 10
-13.61696
 20
8.04966
 30
0.0
 10
-13.85
 20
8.65001
 30
0.0
 10
-13.85
 20
8.65001
 30
0.0
 10
-15.02672
 20
8.65001
 30
0.0
 10
-15.92241
 20
8.93245
 30
0.0
 10
-16.65
 20
8.65001
 30
0.0
 10
-16.65
 20
8.65001
 30
0.0
 10
-16.65
 20
7.82626
 30
0.0
 10
-16.75001
 20
7.9812
 30
0.0
 10
-16.75001
 20
6.75
 30
0.0
 10
-16.75001
 20
6.75
 30
0.0
 10
-16.42885
 20
6.62533
 30
0.0
 10
-14.34603
 20
6.54999
 30
0.0
 10
-13.85
 20
6.54999
 30
0.0
 10
-13.85
 20
6.54999
 30
0.0
 10
-13.85
 20
6.54999
 30
0.0
 10
-12.05
 20
6.54999
 30
0.0
 10
-12.05
 20
6.54999
 30
0.0
 10
-12.05
 20
6.54999
 30
0.0
 10
-11.30443
 20
6.30825
 30
0.0
 10
-9.63675
 20
6.44998
 30
0.0
 10
-8.74999
 20
6.44998
 30
0.0
 10
-8.74999
 20
6.44998
 30
0.0
 10
-8.74999
 20
6.44998
 30
0.0
 10
-8.55
 20
6.44998
 30
0.0
 10
-8.55
 20
6.44998
 30
0.0
 10
-8.55
 20
6.44998
 30
0.0
 10
-8.38378
 20
6.86446
 30
0.0
 10
-8.28556
 20
7.15669
 30
0.0
 10
-8.05
 20
7.55
 30
0.0
  0
SPLINE
  5
9C
330
1F
100
AcDbEntity
  8
Layer 1
 62
     5
370
    53
100
AcDbSpline
210
0.0
220
0.0
230
1.0
 70
     8
 71
     3
 72
     8
 73
     4
 74
     0
 42
0.0000000001
 43
0.0000000001
 12
1.0
 22
0.0
 32
0.0
 13
1.0
 23
0.0
 33
0.0
 40
0.0
 40
0.0
 40
0.0
 40
0.0
 40
1.0
 40
1.0
 40
1.0
 40
1.0
 10
-18.55001
 20
7.55
 30
0.0
 10
-18.36309
 20
7.86206
 30
0.0
 10
-18.19078
 20
8.11707
 30
0.0
 10
-18.05001
 20
8.45
 30
0.0
  0
SPLINE
  5
9D
330
1F
100
AcDbEntity
  8
Layer 1
 62
     5
370
    53
100
AcDbSpline
210
0.0
220
0.0
230
1.0
 70
     8
 71
     3
 72
    52
 73
    48
 74
     0
 42
0.0000000001
 43
0.0000000001
 12
1.0
 22
0.0
 32
0.0
 13
1.0
 23
0.0
 33
0.0
 40
0.0
 40
0.0
 40
0.0
 40
0.0
 40
0.0769230769230769
 40
0.0769230769230769
 40
0.0769230769230769
 40
0.0769230769230769
 40
0.1538461538461539
 40
0.1538461538461539
 40
0.1538461538461539
 40
0.1538461538461539
 40
0.2307692307692308
 40
0.2307692307692308
 40
0.2307692307692308
 40
0.2307692307692308
 40
0.3076923076923077
 40
0.3076923076923077
 40
0.3076923076923077
 40
0.3076923076923077
 40
0.3846153846153846
 40
0.3846153846153846
 40
0.3846153846153846
 40
0.3846153846153846
 40
0.4615384615384616
 40
0.4615384615384616
 40
0.4615384615384616
 40
0.4615384615384616
 40
0.5384615384615384
 40
0.5384615384615384
 40
0.5384615384615384
 40
0.5384615384615384
 40
0.6153846153846154
 40
0.6153846153846154
 40
0.6153846153846154
 40
0.6153846153846154
 40
0.6923076923076923
 40
0.6923076923076923
 40
0.6923076923076923
 40
0.6923076923076923
 40
0.7692307692307693
 40
0.7692307692307693
 40
0.7692307692307693
 40
0.7692307692307693
 40
0.8461538461538461
 40
0.8461538461538461
 40
0.8461538461538461
 40
0.8461538461538461
 40
1.0
 40
1.0
 40
1.0
 40
1.0
 10
-23.85001
 20
-0.95
 30
0.0
 10
-23.85001
 20
-0.95
 30
0.0
 10
-22.05001
 20
-0.95
 30
0.0
 10
-22.05001
 20
-0.95
 30
0.0
 10
-22.05001
 20
-0.95
 30
0.0
 10
-21.06553
 20
-1.10563
 30
0.0
 10
-17.76748
 20
-1.14724
 30
0.0
 10
-17.74999
 20
-1.14999
 30
0.0
 10
-17.74999
 20
-1.14999
 30
0.0
 10
-17.14182
 20
-1.34719
 30
0.0
 10
-16.32924
 20
-1.24999
 30
0.0
 10
-15.65
 20
-1.24999
 30
0.0
 10
-15.65
 20
-1.24999
 30
0.0
 10
-15.80902
 20
-0.69701
 30
0.0
 10
-20.42547
 20
2.64362
 30
0.0
 10
-21.15001
 20
2.94999
 30
0.0
 10
-21.15001
 20
2.94999
 30
0.0
 10
-21.68315
 20
2.37249
 30
0.0
 10
-23.72355
 20
-0.34999
 30
0.0
 10
-23.85001
 20
-0.95
 30
0.0
 10
-23.85001
 20
-0.95
 30
0.0
 10
-23.85001
 20
-0.95
 30
0.0
 10
-24.15
 20
-0.95
 30
0.0
 10
-24.15
 20
-0.95
 30
0.0
 10
-24.15
 20
-0.95
 30
0.0
 10
-24.65564
 20
-0.7537
 30
0.0
 10
-25.3725
 20
-0.85
 30
0.0
 10
-25.95
 20
-0.85
 30
0.0
 10
-25.95
 20
-0.85
 30
0.0
 10
-27.15815
 20
-0.65903
 30
0.0
 10
-28.57944
 20
-0.81028
 30
0.0
 10
-29.25001
 20
-0.55001
 30
0.0
 10
-29.25001
 20
-0.55001
 30
0.0
 10
-29.25001
 20
-0.55001
 30
0.0
 10
-29.25001
 20
0.05
 30
0.0
 10
-29.25001
 20
0.05
 30
0.0
 10
-29.25001
 20
0.05
 30
0.0
 10
-29.09986
 20
0.99989
 30
0.0
 10
-29.05042
 20
4.04728
 30
0.0
 10
-29.05
 20
4.05
 30
0.0
 10
-29.05
 20
4.05
 30
0.0
 10
-28.90211
 20
4.98566
 30
0.0
 10
-28.85066
 20
8.04592
 30
0.0
 10
-28.85001
 20
8.05
 30
0.0
 10
-28.85001
 20
8.05
 30
0.0
 10
-28.78019
 20
8.26058
 30
0.0
 10
-28.7417
 20
8.35282
 30
0.0
 10
-28.65
 20
8.55
 30
0.0
  0
SPLINE
  5
9E
330
1F
100
AcDbEntity
  8
Layer 1
 62
     5
370
    53
100
AcDbSpline
210
0.0
220
0.0
230
1.0
 70
     8
 71
     3
 72
    12
 73
     8
 74
     0
 42
0.0000000001
 43
0.0000000001
 12
1.0
 22
0.0
 32
0.0
 13
1.0
 23
0.0
 33
0.0
 40
0.0
 40
0.0
 40
0.0
 40
0.0
 40
0.3333333333333333
 40
0.3333333333333333
 40
0.3333333333333333
 40
0.3333333333333333
 40
1.0
 40
1.0
 40
1.0
 40
1.0
 10
-18.05001
 20
8.65001
 30
0.0
 10
-18.05001
 20
8.65001
 30
0.0
 10
-18.05001
 20
8.45
 30
0.0
 10
-18.05001
 20
8.45
 30
0.0
 10
-18.05001
 20
8.45
 30
0.0
 10
-17.76082
 20
8.60012
 30
0.0
 10
-17.90011
 20
8.4608
 30
0.0
 10
-17.74999
 20
8.74999
 30
0.0
  0
SPLINE
  5
9F
330
1F
100
AcDbEntity
  8
Layer 1
 62
     5
370
    53
100
AcDbSpline
210
0.0
220
0.0
230
1.0
 70
     8
 71
     3
 72
    64
 73
    60
 74
     0
 42
0.0000000001
 43
0.0000000001
 12
1.0
 22
0.0
 32
0.0
 13
1.0
 23
0.0
 33
0.0
 40
0.0
 40
0.0
 40
0.0
 40
0.0
 40
0.0625
 40
0.0625
 40
0.0625
 40
0.0625
 40
0.125
 40
0.125
 40
0.125
 40
0.125
 40
0.1875
 40
0.1875
 40
0.1875
 40
0.1875
 40
0.25
 40
0.25
 40
0.25
 40
0.25
 40
0.3125
 40
0.3125
 40
0.3125
 40
0.3125
 40
0.375
 40
0.375
 40
0.375
 40
0.375
 40
0.4375
 40
0.4375
 40
0.4375
 40
0.4375
 40
0.5
 40
0.5
 40
0.5
 40
0.5
 40
0.5625
 40
0.5625
 40
0.5625
 40
0.5625
 40
0.625
 40
0.625
 40
0.625
 40
0.625
 40
0.6875
 40
0.6875
 40
0.6875
 40
0.6875
 40
0.75
 40
0.75
 40
0.75
 40
0.75
 40
0.8125
 40
0.8125
 40
0.8125
 40
0.8125
 40
0.875
 40
0.875
 40
0.875
 40
0.875
 40
1.0
 40
1.0
 40
1.0
 40
1.0
 10
24.15
 20
8.74999
 30
0.0
 10
23.61314
 20
8.54158
 30
0.0
 10
21.55213
 20
8.66138
 30
0.0
 10
20.75001
 20
8.34999
 30
0.0
 10
20.75001
 20
8.34999
 30
0.0
 10
20.58693
 20
7.92992
 30
0.0
 10
20.60947
 20
8.08345
 30
0.0
 10
20.75001
 20
7.65
 30
0.0
 10
20.75001
 20
7.65
 30
0.0
 10
20.75001
 20
7.65
 30
0.0
 10
21.05
 20
2.25
 30
0.0
 10
21.05
 20
2.25
 30
0.0
 10
21.05
 20
2.25
 30
0.0
 10
21.18728
 20
1.38158
 30
0.0
 10
21.13209
 20
0.51131
 30
0.0
 10
21.34999
 20
-0.05
 30
0.0
 10
21.34999
 20
-0.05
 30
0.0
 10
21.61826
 20
0.05998
 30
0.0
 10
21.7554
 20
0.09434
 30
0.0
 10
22.05001
 20
0.15001
 30
0.0
 10
22.05001
 20
0.15001
 30
0.0
 10
22.1768
 20
0.59097
 30
0.0
 10
22.19866
 20
0.49867
 30
0.0
 10
22.55001
 20
0.85
 30
0.0
 10
22.55001
 20
0.85
 30
0.0
 10
22.76482
 20
0.80495
 30
0.0
 10
22.72199
 20
0.82556
 30
0.0
 10
22.95001
 20
0.74999
 30
0.0
 10
22.95001
 20
0.74999
 30
0.0
 10
22.89827
 20
1.11957
 30
0.0
 10
22.80025
 20
0.96256
 30
0.0
 10
23.25
 20
1.24999
 30
0.0
 10
23.25
 20
1.24999
 30
0.0
 10
23.76267
 20
2.08794
 30
0.0
 10
26.85204
 20
4.05383
 30
0.0
 10
27.35
 20
4.85
 30
0.0
 10
27.35
 20
4.85
 30
0.0
 10
27.23276
 20
5.25765
 30
0.0
 10
26.97228
 20
5.4345
 30
0.0
 10
26.74999
 20
5.85
 30
0.0
 10
26.74999
 20
5.85
 30
0.0
 10
26.74999
 20
5.85
 30
0.0
 10
26.45
 20
5.85
 30
0.0
 10
26.45
 20
5.85
 30
0.0
 10
26.45
 20
5.85
 30
0.0
 10
26.40028
 20
6.35423
 30
0.0
 10
25.5284
 20
7.41243
 30
0.0
 10
25.05
 20
7.55
 30
0.0
 10
25.05
 20
7.55
 30
0.0
 10
24.87465
 20
7.98724
 30
0.0
 10
24.68759
 20
8.16066
 30
0.0
 10
24.65
 20
8.65001
 30
0.0
 10
24.65
 20
8.65001
 30
0.0
 10
25.2853
 20
8.89662
 30
0.0
 10
27.85712
 20
8.90371
 30
0.0
 10
28.15
 20
8.95
 30
0.0
 10
28.15
 20
8.95
 30
0.0
 10
29.17979
 20
9.11276
 30
0.0
 10
29.02318
 20
8.99028
 30
0.0
 10
29.84999
 20
9.14998
 30
0.0
  0
SPLINE
  5
A0
330
1F
100
AcDbEntity
  8
Layer 1
 62
     5
370
    53
100
AcDbSpline
210
0.0
220
0.0
230
1.0
 70
     8
 71
     3
 72
    12
 73
     8
 74
     0
 42
0.0000000001
 43
0.0000000001
 12
1.0
 22
0.0
 32
0.0
 13
1.0
 23
0.0
 33
0.0
 40
0.0
 40
0.0
 40
0.0
 40
0.0
 40
0.3333333333333333
 40
0.3333333333333333
 40
0.3333333333333333
 40
0.3333333333333333
 40
1.0
 40
1.0
 40
1.0
 40
1.0
 10
-17.15001
 20
8.84999
 30
0.0
 10
-16.8473
 20
8.72986
 30
0.0
 10
-17.04929
 20
8.74999
 30
0.0
 10
-16.65
 20
8.74999
 30
0.0
 10
-16.65
 20
8.74999
 30
0.0
 10
-16.65
 20
8.74999
 30
0.0
 10
-16.65
 20
9.24999
 30
0.0
 10
-16.65
 20
9.24999
 30
0.0
  0
SPLINE
  5
A1
330
1F
100
AcDbEntity
  8
Layer 1
 62
     5
370
    53
100
AcDbSpline
210
0.0
220
0.0
230
1.0
 70
     8
 71
     3
 72
     8
 73
     4
 74
     0
 42
0.0000000001
 43
0.0000000001
 12
1.0
 22
0.0
 32
0.0
 13
1.0
 23
0.0
 33
0.0
 40
0.0
 40
0.0
 40
0.0
 40
0.0
 40
1.0
 40
1.0
 40
1.0
 40
1.0
 10
14.05001
 20
7.84999
 30
0.0
 10
14.38538
 20
8.30676
 30
0.0
 10
14.5171
 20
8.84914
 30
0.0
 10
14.75
 20
9.35
 30
0.0
  0
SPLINE
  5
A2
330
1F
100
AcDbEntity
  8
Layer 1
 62
     5
370
    53
100
AcDbSpline
210
0.0
220
0.0
230
1.0
 70
     8
 71
     3
 72
    20
 73
    16
 74
     0
 42
0.0000000001
 43
0.0000000001
 12
1.0
 22
0.0
 32
0.0
 13
1.0
 23
0.0
 33
0.0
 40
0.0
 40
0.0
 40
0.0
 40
0.0
 40
0.2
 40
0.2
 40
0.2
 40
0.2
 40
0.4
 40
0.4
 40
0.4
 40
0.4
 40
0.6
 40
0.6
 40
0.6
 40
0.6
 40
1.0
 40
1.0
 40
1.0
 40
1.0
 10
-18.05001
 20
8.74999
 30
0.0
 10
-18.6393
 20
8.97877
 30
0.0
 10
-21.22271
 20
8.94569
 30
0.0
 10
-21.25001
 20
8.95
 30
0.0
 10
-21.25001
 20
8.95
 30
0.0
 10
-22.23363
 20
9.10548
 30
0.0
 10
-25.44475
 20
9.14916
 30
0.0
 10
-25.44999
 20
9.14998
 30
0.0
 10
-25.44999
 20
9.14998
 30
0.0
 10
-26.08496
 20
9.35586
 30
0.0
 10
-26.94232
 20
9.24999
 30
0.0
 10
-27.64999
 20
9.24999
 30
0.0
 10
-27.64999
 20
9.24999
 30
0.0
 10
-28.0031
 20
9.36448
 30
0.0
 10
-27.85678
 20
9.34144
 30
0.0
 10
-28.25
 20
9.35
 30
0.0
  0
SPLINE
  5
A3
330
1F
100
AcDbEntity
  8
Layer 1
 62
     5
370
    53
100
AcDbSpline
210
0.0
220
0.0
230
1.0
 70
     8
 71
     3
 72
    16
 73
    12
 74
     0
 42
0.0000000001
 43
0.0000000001
 12
1.0
 22
0.0
 32
0.0
 13
1.0
 23
0.0
 33
0.0
 40
0.0
 40
0.0
 40
0.0
 40
0.0
 40
0.25
 40
0.25
 40
0.25
 40
0.25
 40
0.5
 40
0.5
 40
0.5
 40
0.5
 40
1.0
 40
1.0
 40
1.0
 40
1.0
 10
14.05001
 20
7.55
 30
0.0
 10
13.85014
 20
7.20369
 30
0.0
 10
13.8259
 20
7.15173
 30
0.0
 10
13.74999
 20
6.75
 30
0.0
 10
13.74999
 20
6.75
 30
0.0
 10
13.55539
 20
6.55538
 30
0.0
 10
13.64879
 20
6.62505
 30
0.0
 10
13.45
 20
6.54999
 30
0.0
 10
13.45
 20
6.54999
 30
0.0
 10
11.20896
 20
7.59212
 30
0.0
 10
7.62857
 20
8.56497
 30
0.0
 10
5.64999
 20
9.74999
 30
0.0
  0
SPLINE
  5
A4
330
1F
100
AcDbEntity
  8
Layer 1
 62
     5
370
    53
100
AcDbSpline
210
0.0
220
0.0
230
1.0
 70
     8
 71
     3
 72
   104
 73
   100
 74
     0
 42
0.0000000001
 43
0.0000000001
 12
1.0
 22
0.0
 32
0.0
 13
1.0
 23
0.0
 33
0.0
 40
0.0
 40
0.0
 40
0.0
 40
0.0
 40
0.0384615384615385
 40
0.0384615384615385
 40
0.0384615384615385
 40
0.0384615384615385
 40
0.0769230769230769
 40
0.0769230769230769
 40
0.0769230769230769
 40
0.0769230769230769
 40
0.1153846153846154
 40
0.1153846153846154
 40
0.1153846153846154
 40
0.1153846153846154
 40
0.1538461538461539
 40
0.1538461538461539
 40
0.1538461538461539
 40
0.1538461538461539
 40
0.1923076923076923
 40
0.1923076923076923
 40
0.1923076923076923
 40
0.1923076923076923
 40
0.2307692307692308
 40
0.2307692307692308
 40
0.2307692307692308
 40
0.2307692307692308
 40
0.2692307692307692
 40
0.2692307692307692
 40
0.2692307692307692
 40
0.2692307692307692
 40
0.3076923076923077
 40
0.3076923076923077
 40
0.3076923076923077
 40
0.3076923076923077
 40
0.3461538461538461
 40
0.3461538461538461
 40
0.3461538461538461
 40
0.3461538461538461
 40
0.3846153846153846
 40
0.3846153846153846
 40
0.3846153846153846
 40
0.3846153846153846
 40
0.4230769230769231
 40
0.4230769230769231
 40
0.4230769230769231
 40
0.4230769230769231
 40
0.4615384615384616
 40
0.4615384615384616
 40
0.4615384615384616
 40
0.4615384615384616
 40
0.5
 40
0.5
 40
0.5
 40
0.5
 40
0.5384615384615384
 40
0.5384615384615384
 40
0.5384615384615384
 40
0.5384615384615384
 40
0.5769230769230769
 40
0.5769230769230769
 40
0.5769230769230769
 40
0.5769230769230769
 40
0.6153846153846154
 40
0.6153846153846154
 40
0.6153846153846154
 40
0.6153846153846154
 40
0.6538461538461539
 40
0.6538461538461539
 40
0.6538461538461539
 40
0.6538461538461539
 40
0.6923076923076923
 40
0.6923076923076923
 40
0.6923076923076923
 40
0.6923076923076923
 40
0.7307692307692307
 40
0.7307692307692307
 40
0.7307692307692307
 40
0.7307692307692307
 40
0.7692307692307693
 40
0.7692307692307693
 40
0.7692307692307693
 40
0.7692307692307693
 40
0.8076923076923077
 40
0.8076923076923077
 40
0.8076923076923077
 40
0.8076923076923077
 40
0.8461538461538461
 40
0.8461538461538461
 40
0.8461538461538461
 40
0.8461538461538461
 40
0.8846153846153846
 40
0.8846153846153846
 40
0.8846153846153846
 40
0.8846153846153846
 40
0.9230769230769231
 40
0.9230769230769231
 40
0.9230769230769231
 40
0.9230769230769231
 40
1.0
 40
1.0
 40
1.0
 40
1.0
 10
-19.25
 20
5.35
 30
0.0
 10
-19.0751
 20
4.7418
 30
0.0
 10
-16.55754
 20
2.28634
 30
0.0
 10
-15.94999
 20
1.55001
 30
0.0
 10
-15.94999
 20
1.55001
 30
0.0
 10
-15.58786
 20
1.1111
 30
0.0
 10
-14.75428
 20
-0.00499
 30
0.0
 10
-14.24999
 20
-0.15001
 30
0.0
 10
-14.24999
 20
-0.15001
 30
0.0
 10
-14.24143
 20
-0.5432
 30
0.0
 10
-14.26448
 20
-0.39688
 30
0.0
 10
-14.14999
 20
-0.74999
 30
0.0
 10
-14.14999
 20
-0.74999
 30
0.0
 10
-14.28282
 20
-1.09213
 30
0.0
 10
-14.24999
 20
-0.93892
 30
0.0
 10
-14.24999
 20
-1.35
 30
0.0
 10
-14.24999
 20
-1.35
 30
0.0
 10
-14.24999
 20
-1.35
 30
0.0
 10
-13.65001
 20
-1.35
 30
0.0
 10
-13.65001
 20
-1.35
 30
0.0
 10
-13.65001
 20
-1.35
 30
0.0
 10
-13.65001
 20
-1.35
 30
0.0
 10
-13.24999
 20
-1.35
 30
0.0
 10
-13.24999
 20
-1.35
 30
0.0
 10
-13.24999
 20
-1.35
 30
0.0
 10
-13.04473
 20
-1.83541
 30
0.0
 10
-10.66431
 20
-4.33571
 30
0.0
 10
-10.14999
 20
-4.85
 30
0.0
 10
-10.14999
 20
-4.85
 30
0.0
 10
-9.64936
 20
-4.6063
 30
0.0
 10
-6.44916
 20
-1.64917
 30
0.0
 10
-5.85
 20
-1.05001
 30
0.0
 10
-5.85
 20
-1.05001
 30
0.0
 10
-5.8229
 20
-1.0741
 30
0.0
 10
-5.60393
 20
-1.21493
 30
0.0
 10
-5.55001
 20
-1.24999
 30
0.0
 10
-5.55001
 20
-1.24999
 30
0.0
 10
-5.58309
 20
-2.7688
 30
0.0
 10
-7.40863
 20
-8.40997
 30
0.0
 10
-7.55
 20
-10.25
 30
0.0
 10
-7.55
 20
-10.25
 30
0.0
 10
-6.88235
 20
-10.25
 30
0.0
 10
-3.71991
 20
-9.63241
 30
0.0
 10
-3.25001
 20
-9.45
 30
0.0
 10
-3.25001
 20
-9.45
 30
0.0
 10
-3.25001
 20
-7.942
 30
0.0
 10
-4.36578
 20
-3.42916
 30
0.0
 10
-4.65001
 20
-1.75
 30
0.0
 10
-4.65001
 20
-1.75
 30
0.0
 10
-4.66143
 20
-1.22462
 30
0.0
 10
-4.75535
 20
-0.66356
 30
0.0
 10
-5.05001
 20
-0.24999
 30
0.0
 10
-5.05001
 20
-0.24999
 30
0.0
 10
-5.05001
 20
-0.24999
 30
0.0
 10
-5.05001
 20
-0.05
 30
0.0
 10
-5.05001
 20
-0.05
 30
0.0
 10
-5.05001
 20
-0.05
 30
0.0
 10
-5.05001
 20
-0.05
 30
0.0
 10
-4.55
 20
-0.05
 30
0.0
 10
-4.55
 20
-0.05
 30
0.0
 10
-4.55
 20
-0.05
 30
0.0
 10
-4.31875
 20
0.32797
 30
0.0
 10
-4.07974
 20
0.52027
 30
0.0
 10
-3.75001
 20
0.85
 30
0.0
 10
-3.75001
 20
0.85
 30
0.0
 10
-3.27994
 20
1.16765
 30
0.0
 10
-3.06947
 20
1.33095
 30
0.0
 10
-2.85001
 20
1.85
 30
0.0
 10
-2.85001
 20
1.85
 30
0.0
 10
-2.35602
 20
1.99939
 30
0.0
 10
0.39611
 20
1.26201
 30
0.0
 10
1.05001
 20
1.05001
 30
0.0
 10
1.05001
 20
1.05001
 30
0.0
 10
1.46109
 20
1.05001
 30
0.0
 10
1.30785
 20
1.08281
 30
0.0
 10
1.64999
 20
0.95
 30
0.0
 10
1.64999
 20
0.95
 30
0.0
 10
1.64999
 20
0.95
 30
0.0
 10
1.75
 20
0.95
 30
0.0
 10
1.75
 20
0.95
 30
0.0
 10
1.75
 20
0.95
 30
0.0
 10
2.41926
 20
0.67561
 30
0.0
 10
4.18042
 20
0.2954
 30
0.0
 10
4.95
 20
0.15001
 30
0.0
 10
4.95
 20
0.15001
 30
0.0
 10
5.26462
 20
0.41216
 30
0.0
 10
7.20564
 20
4.97251
 30
0.0
 10
7.25001
 20
5.55001
 30
0.0
 10
7.25001
 20
5.55001
 30
0.0
 10
6.84136
 20
5.87251
 30
0.0
 10
4.76294
 20
6.75306
 30
0.0
 10
4.25001
 20
6.85001
 30
0.0
 10
4.25001
 20
6.85001
 30
0.0
 10
4.3003
 20
7.32093
 30
0.0
 10
4.12495
 20
6.96753
 30
0.0
 10
4.55
 20
7.34998
 30
0.0
 10
4.55
 20
7.34998
 30
0.0
 10
4.86751
 20
8.14164
 30
0.0
 10
5.22201
 20
8.95
 30
0.0
 10
5.55001
 20
9.74999
 30
0.0
  0
SPLINE
  5
A5
330
1F
100
AcDbEntity
  8
Layer 1
 62
     5
370
    53
100
AcDbSpline
210
0.0
220
0.0
230
1.0
 70
     8
 71
     3
 72
    24
 73
    20
 74
     0
 42
0.0000000001
 43
0.0000000001
 12
1.0
 22
0.0
 32
0.0
 13
1.0
 23
0.0
 33
0.0
 40
0.0
 40
0.0
 40
0.0
 40
0.0
 40
0.1666666666666667
 40
0.1666666666666667
 40
0.1666666666666667
 40
0.1666666666666667
 40
0.3333333333333333
 40
0.3333333333333333
 40
0.3333333333333333
 40
0.3333333333333333
 40
0.5
 40
0.5
 40
0.5
 40
0.5
 40
0.6666666666666666
 40
0.6666666666666666
 40
0.6666666666666666
 40
0.6666666666666666
 40
1.0
 40
1.0
 40
1.0
 40
1.0
 10
-8.05
 20
7.84999
 30
0.0
 10
-8.05
 20
7.84999
 30
0.0
 10
-8.05
 20
7.55
 30
0.0
 10
-8.05
 20
7.55
 30
0.0
 10
-8.05
 20
7.55
 30
0.0
 10
-7.62463
 20
7.12463
 30
0.0
 10
-7.37153
 20
6.97385
 30
0.0
 10
-7.15
 20
6.44998
 30
0.0
 10
-7.15
 20
6.44998
 30
0.0
 10
-7.15
 20
6.44998
 30
0.0
 10
-6.75
 20
6.44998
 30
0.0
 10
-6.75
 20
6.44998
 30
0.0
 10
-6.75
 20
6.44998
 30
0.0
 10
-6.75
 20
6.44998
 30
0.0
 10
-6.75
 20
7.55
 30
0.0
 10
-6.75
 20
7.55
 30
0.0
 10
-6.75
 20
7.55
 30
0.0
 10
-6.50058
 20
8.31921
 30
0.0
 10
-6.65
 20
9.58173
 30
0.0
 10
-6.65
 20
10.44998
 30
0.0
  0
SPLINE
  5
A6
330
1F
100
AcDbEntity
  8
Layer 1
 62
     5
370
    53
100
AcDbSpline
210
0.0
220
0.0
230
1.0
 70
     8
 71
     3
 72
    20
 73
    16
 74
     0
 42
0.0000000001
 43
0.0000000001
 12
1.0
 22
0.0
 32
0.0
 13
1.0
 23
0.0
 33
0.0
 40
0.0
 40
0.0
 40
0.0
 40
0.0
 40
0.2
 40
0.2
 40
0.2
 40
0.2
 40
0.4
 40
0.4
 40
0.4
 40
0.4
 40
0.6
 40
0.6
 40
0.6
 40
0.6
 40
1.0
 40
1.0
 40
1.0
 40
1.0
 10
14.45001
 20
7.25001
 30
0.0
 10
14.26856
 20
7.36557
 30
0.0
 10
14.22528
 20
7.40208
 30
0.0
 10
14.05001
 20
7.55
 30
0.0
 10
14.05001
 20
7.55
 30
0.0
 10
14.05001
 20
7.55
 30
0.0
 10
14.05001
 20
7.84999
 30
0.0
 10
14.05001
 20
7.84999
 30
0.0
 10
14.05001
 20
7.84999
 30
0.0
 10
13.70194
 20
8.06295
 30
0.0
 10
12.20582
 20
9.75736
 30
0.0
 10
11.94999
 20
10.14999
 30
0.0
 10
11.94999
 20
10.14999
 30
0.0
 10
11.94999
 20
10.14999
 30
0.0
 10
11.75001
 20
10.64999
 30
0.0
 10
11.75001
 20
10.64999
 30
0.0
  0
SPLINE
  5
A7
330
1F
100
AcDbEntity
  8
Layer 1
 62
     5
370
    53
100
AcDbSpline
210
0.0
220
0.0
230
1.0
 70
     8
 71
     3
 72
    20
 73
    16
 74
     0
 42
0.0000000001
 43
0.0000000001
 12
1.0
 22
0.0
 32
0.0
 13
1.0
 23
0.0
 33
0.0
 40
0.0
 40
0.0
 40
0.0
 40
0.0
 40
0.2
 40
0.2
 40
0.2
 40
0.2
 40
0.4
 40
0.4
 40
0.4
 40
0.4
 40
0.6
 40
0.6
 40
0.6
 40
0.6
 40
1.0
 40
1.0
 40
1.0
 40
1.0
 10
3.75001
 20
7.04999
 30
0.0
 10
3.47176
 20
6.72599
 30
0.0
 10
3.26801
 20
6.85001
 30
0.0
 10
2.75
 20
6.85001
 30
0.0
 10
2.75
 20
6.85001
 30
0.0
 10
2.75
 20
6.85001
 30
0.0
 10
-5.75
 20
6.04999
 30
0.0
 10
-5.75
 20
6.04999
 30
0.0
 10
-5.75
 20
6.04999
 30
0.0
 10
-6.0192
 20
6.72835
 30
0.0
 10
-5.98519
 20
8.43996
 30
0.0
 10
-6.04999
 20
8.84999
 30
0.0
 10
-6.04999
 20
8.84999
 30
0.0
 10
-6.16076
 20
9.55069
 30
0.0
 10
-6.1882
 20
10.63316
 30
0.0
 10
-6.35
 20
11.04999
 30
0.0
  0
SPLINE
  5
A8
330
1F
100
AcDbEntity
  8
Layer 1
 62
     5
370
    53
100
AcDbSpline
210
0.0
220
0.0
230
1.0
 70
     8
 71
     3
 72
    12
 73
     8
 74
     0
 42
0.0000000001
 43
0.0000000001
 12
1.0
 22
0.0
 32
0.0
 13
1.0
 23
0.0
 33
0.0
 40
0.0
 40
0.0
 40
0.0
 40
0.0
 40
0.3333333333333333
 40
0.3333333333333333
 40
0.3333333333333333
 40
0.3333333333333333
 40
1.0
 40
1.0
 40
1.0
 40
1.0
 10
16.15
 20
8.65001
 30
0.0
 10
17.05077
 20
9.0885
 30
0.0
 10
20.12667
 20
11.94619
 30
0.0
 10
21.15001
 20
12.55
 30
0.0
 10
21.15001
 20
12.55
 30
0.0
 10
21.4496
 20
12.35143
 30
0.0
 10
22.25393
 20
11.31503
 30
0.0
 10
22.55001
 20
10.94998
 30
0.0
  0
SPLINE
  5
A9
330
1F
100
AcDbEntity
  8
Layer 1
 62
     5
370
    53
100
AcDbSpline
210
0.0
220
0.0
230
1.0
 70
    24
 71
     3
 72
     8
 73
     4
 74
     0
 42
0.0000000001
 43
0.0000000001
 12
1.0
 22
0.0
 32
0.0
 13
1.0
 23
0.0
 33
0.0
 40
0.0
 40
0.0
 40
0.0
 40
0.0
 40
1.0
 40
1.0
 40
1.0
 40
1.0
 10
-6.14999
 20
11.15
 30
0.0
 10
-6.14999
 20
11.15
 30
0.0
 10
-6.25
 20
11.15
 30
0.0
 10
-6.25
 20
11.15
 30
0.0
  0
SPLINE
  5
AA
330
1F
100
AcDbEntity
  8
Layer 1
 62
     5
370
    53
100
AcDbSpline
210
0.0
220
0.0
230
1.0
 70
    24
 71
     3
 72
     8
 73
     4
 74
     0
 42
0.0000000001
 43
0.0000000001
 12
1.0
 22
0.0
 32
0.0
 13
1.0
 23
0.0
 33
0.0
 40
0.0
 40
0.0
 40
0.0
 40
0.0
 40
1.0
 40
1.0
 40
1.0
 40
1.0
 10
10.64999
 20
11.34998
 30
0.0
 10
10.64999
 20
11.34998
 30
0.0
 10
10.64999
 20
11.25
 30
0.0
 10
10.64999
 20
11.25
 30
0.0
  0
SPLINE
  5
AB
330
1F
100
AcDbEntity
  8
Layer 1
 62
     5
370
    53
100
AcDbSpline
210
0.0
220
0.0
230
1.0
 70
     8
 71
     3
 72
    32
 73
    28
 74
     0
 42
0.0000000001
 43
0.0000000001
 12
1.0
 22
0.0
 32
0.0
 13
1.0
 23
0.0
 33
0.0
 40
0.0
 40
0.0
 40
0.0
 40
0.0
 40
0.125
 40
0.125
 40
0.125
 40
0.125
 40
0.25
 40
0.25
 40
0.25
 40
0.25
 40
0.375
 40
0.375
 40
0.375
 40
0.375
 40
0.5
 40
0.5
 40
0.5
 40
0.5
 40
0.625
 40
0.625
 40
0.625
 40
0.625
 40
0.75
 40
0.75
 40
0.75
 40
0.75
 40
1.0
 40
1.0
 40
1.0
 40
1.0
 10
3.84999
 20
10.35
 30
0.0
 10
3.85858
 20
9.95678
 30
0.0
 10
3.8355
 20
10.10311
 30
0.0
 10
3.94999
 20
9.74999
 30
0.0
 10
3.94999
 20
9.74999
 30
0.0
 10
3.94999
 20
9.74999
 30
0.0
 10
4.05
 20
7.75001
 30
0.0
 10
4.05
 20
7.75001
 30
0.0
 10
4.05
 20
7.75001
 30
0.0
 10
4.17016
 20
7.37941
 30
0.0
 10
4.15001
 20
7.46385
 30
0.0
 10
4.15001
 20
7.04999
 30
0.0
 10
4.15001
 20
7.04999
 30
0.0
 10
4.15001
 20
7.04999
 30
0.0
 10
3.75001
 20
7.04999
 30
0.0
 10
3.75001
 20
7.04999
 30
0.0
 10
3.75001
 20
7.04999
 30
0.0
 10
3.18297
 20
7.49753
 30
0.0
 10
-0.08357
 20
8.79815
 30
0.0
 10
-0.95
 20
9.14998
 30
0.0
 10
-0.95
 20
9.14998
 30
0.0
 10
-2.22075
 20
9.666
 30
0.0
 10
-4.65389
 20
10.5935
 30
0.0
 10
-5.75
 20
11.25
 30
0.0
 10
-5.75
 20
11.25
 30
0.0
 10
-6.01217
 20
11.27058
 30
0.0
 10
-6.08644
 20
11.26046
 30
0.0
 10
-6.25
 20
11.25
 30
0.0
  0
SPLINE
  5
AC
330
1F
100
AcDbEntity
  8
Layer 1
 62
     5
370
    53
100
AcDbSpline
210
0.0
220
0.0
230
1.0
 70
     8
 71
     3
 72
    28
 73
    24
 74
     0
 42
0.0000000001
 43
0.0000000001
 12
1.0
 22
0.0
 32
0.0
 13
1.0
 23
0.0
 33
0.0
 40
0.0
 40
0.0
 40
0.0
 40
0.0
 40
0.1428571428571428
 40
0.1428571428571428
 40
0.1428571428571428
 40
0.1428571428571428
 40
0.2857142857142857
 40
0.2857142857142857
 40
0.2857142857142857
 40
0.2857142857142857
 40
0.4285714285714285
 40
0.4285714285714285
 40
0.4285714285714285
 40
0.4285714285714285
 40
0.5714285714285714
 40
0.5714285714285714
 40
0.5714285714285714
 40
0.5714285714285714
 40
0.7142857142857143
 40
0.7142857142857143
 40
0.7142857142857143
 40
0.7142857142857143
 40
1.0
 40
1.0
 40
1.0
 40
1.0
 10
-16.55
 20
9.74999
 30
0.0
 10
-16.67013
 20
9.44728
 30
0.0
 10
-16.65
 20
9.64928
 30
0.0
 10
-16.65
 20
9.24999
 30
0.0
 10
-16.65
 20
9.24999
 30
0.0
 10
-17.12849
 20
9.20282
 30
0.0
 10
-17.00487
 20
9.34365
 30
0.0
 10
-17.15001
 20
8.84999
 30
0.0
 10
-17.15001
 20
8.84999
 30
0.0
 10
-17.5432
 20
8.84143
 30
0.0
 10
-17.39688
 20
8.86448
 30
0.0
 10
-17.74999
 20
8.74999
 30
0.0
 10
-17.74999
 20
8.74999
 30
0.0
 10
-17.74999
 20
8.74999
 30
0.0
 10
-18.05001
 20
8.65001
 30
0.0
 10
-18.05001
 20
8.65001
 30
0.0
 10
-18.05001
 20
8.65001
 30
0.0
 10
-18.05001
 20
8.65001
 30
0.0
 10
-18.05001
 20
8.74999
 30
0.0
 10
-18.05001
 20
8.74999
 30
0.0
 10
-18.05001
 20
8.74999
 30
0.0
 10
-17.61208
 20
9.32613
 30
0.0
 10
-17.16086
 20
11.36645
 30
0.0
 10
-16.75001
 20
12.24998
 30
0.0
  0
SPLINE
  5
AD
330
1F
100
AcDbEntity
  8
Layer 1
 62
     5
370
    53
100
AcDbSpline
210
0.0
220
0.0
230
1.0
 70
     8
 71
     3
 72
    76
 73
    72
 74
     0
 42
0.0000000001
 43
0.0000000001
 12
1.0
 22
0.0
 32
0.0
 13
1.0
 23
0.0
 33
0.0
 40
0.0
 40
0.0
 40
0.0
 40
0.0
 40
0.0526315789473684
 40
0.0526315789473684
 40
0.0526315789473684
 40
0.0526315789473684
 40
0.1052631578947368
 40
0.1052631578947368
 40
0.1052631578947368
 40
0.1052631578947368
 40
0.1578947368421053
 40
0.1578947368421053
 40
0.1578947368421053
 40
0.1578947368421053
 40
0.2105263157894737
 40
0.2105263157894737
 40
0.2105263157894737
 40
0.2105263157894737
 40
0.2631578947368421
 40
0.2631578947368421
 40
0.2631578947368421
 40
0.2631578947368421
 40
0.3157894736842105
 40
0.3157894736842105
 40
0.3157894736842105
 40
0.3157894736842105
 40
0.3684210526315789
 40
0.3684210526315789
 40
0.3684210526315789
 40
0.3684210526315789
 40
0.4210526315789473
 40
0.4210526315789473
 40
0.4210526315789473
 40
0.4210526315789473
 40
0.4736842105263158
 40
0.4736842105263158
 40
0.4736842105263158
 40
0.4736842105263158
 40
0.5263157894736842
 40
0.5263157894736842
 40
0.5263157894736842
 40
0.5263157894736842
 40
0.5789473684210527
 40
0.5789473684210527
 40
0.5789473684210527
 40
0.5789473684210527
 40
0.631578947368421
 40
0.631578947368421
 40
0.631578947368421
 40
0.631578947368421
 40
0.6842105263157895
 40
0.6842105263157895
 40
0.6842105263157895
 40
0.6842105263157895
 40
0.7368421052631579
 40
0.7368421052631579
 40
0.7368421052631579
 40
0.7368421052631579
 40
0.7894736842105263
 40
0.7894736842105263
 40
0.7894736842105263
 40
0.7894736842105263
 40
0.8421052631578947
 40
0.8421052631578947
 40
0.8421052631578947
 40
0.8421052631578947
 40
0.8947368421052632
 40
0.8947368421052632
 40
0.8947368421052632
 40
0.8947368421052632
 40
1.0
 40
1.0
 40
1.0
 40
1.0
 10
-16.34999
 20
14.24999
 30
0.0
 10
-16.62327
 20
14.95395
 30
0.0
 10
-16.44999
 20
16.05705
 30
0.0
 10
-16.44999
 20
16.84999
 30
0.0
 10
-16.44999
 20
16.84999
 30
0.0
 10
-16.16055
 20
17.74265
 30
0.0
 10
-16.70143
 20
19.17599
 30
0.0
 10
-16.15
 20
19.94999
 30
0.0
 10
-16.15
 20
19.94999
 30
0.0
 10
-15.5634
 20
19.83915
 30
0.0
 10
-14.93587
 20
19.70672
 30
0.0
 10
-14.45001
 20
19.34998
 30
0.0
 10
-14.45001
 20
19.34998
 30
0.0
 10
-14.46588
 20
18.62074
 30
0.0
 10
-15.87172
 20
14.56696
 30
0.0
 10
-16.34999
 20
14.24999
 30
0.0
 10
-16.34999
 20
14.24999
 30
0.0
 10
-16.37402
 20
13.93716
 30
0.0
 10
-16.45773
 20
13.53459
 30
0.0
 10
-16.55
 20
13.24999
 30
0.0
 10
-16.55
 20
13.24999
 30
0.0
 10
-16.55
 20
12.6881
 30
0.0
 10
-16.43948
 20
12.68586
 30
0.0
 10
-16.75001
 20
12.24998
 30
0.0
 10
-16.75001
 20
12.24998
 30
0.0
 10
-16.4244
 20
11.97037
 30
0.0
 10
-16.55
 20
11.67047
 30
0.0
 10
-16.55
 20
11.15
 30
0.0
 10
-16.55
 20
11.15
 30
0.0
 10
-16.69048
 20
10.71669
 30
0.0
 10
-16.71781
 20
10.18228
 30
0.0
 10
-16.55
 20
9.74999
 30
0.0
 10
-16.55
 20
9.74999
 30
0.0
 10
-15.51734
 20
10.25269
 30
0.0
 10
-13.84793
 20
12.23944
 30
0.0
 10
-12.84999
 20
12.84999
 30
0.0
 10
-12.84999
 20
12.84999
 30
0.0
 10
-12.44415
 20
12.60168
 30
0.0
 10
-9.10426
 20
8.89662
 30
0.0
 10
-8.55
 20
8.24998
 30
0.0
 10
-8.55
 20
8.24998
 30
0.0
 10
-8.26569
 20
7.86161
 30
0.0
 10
-8.50213
 20
8.04544
 30
0.0
 10
-8.05
 20
7.84999
 30
0.0
 10
-8.05
 20
7.84999
 30
0.0
 10
-7.5801
 20
8.44538
 30
0.0
 10
-7.23753
 20
10.26255
 30
0.0
 10
-6.65
 20
10.44998
 30
0.0
 10
-6.65
 20
10.44998
 30
0.0
 10
-6.63826
 20
10.98822
 30
0.0
 10
-6.75675
 20
10.77392
 30
0.0
 10
-6.35
 20
11.04999
 30
0.0
 10
-6.35
 20
11.04999
 30
0.0
 10
-6.35
 20
11.18333
 30
0.0
 10
-6.38334
 20
11.15
 30
0.0
 10
-6.25
 20
11.15
 30
0.0
 10
-6.25
 20
11.15
 30
0.0
 10
-6.25
 20
11.15
 30
0.0
 10
-6.25
 20
11.25
 30
0.0
 10
-6.25
 20
11.25
 30
0.0
 10
-6.25
 20
11.25
 30
0.0
 10
-6.62006
 20
11.56777
 30
0.0
 10
-6.45001
 20
12.58881
 30
0.0
 10
-6.45001
 20
13.14998
 30
0.0
 10
-6.45001
 20
13.14998
 30
0.0
 10
-6.66201
 20
14.49117
 30
0.0
 10
-6.33541
 20
13.92503
 30
0.0
 10
-6.45001
 20
14.64999
 30
0.0
 10
-6.45001
 20
14.64999
 30
0.0
 10
-6.63852
 20
15.23141
 30
0.0
 10
-6.54999
 20
15.9992
 30
0.0
 10
-6.54999
 20
16.65
 30
0.0
  0
SPLINE
  5
AE
330
1F
100
AcDbEntity
  8
Layer 1
 62
     5
370
    53
100
AcDbSpline
210
0.0
220
0.0
230
1.0
 70
     8
 71
     3
 72
    16
 73
    12
 74
     0
 42
0.0000000001
 43
0.0000000001
 12
1.0
 22
0.0
 32
0.0
 13
1.0
 23
0.0
 33
0.0
 40
0.0
 40
0.0
 40
0.0
 40
0.0
 40
0.25
 40
0.25
 40
0.25
 40
0.25
 40
0.5
 40
0.5
 40
0.5
 40
0.5
 40
1.0
 40
1.0
 40
1.0
 40
1.0
 10
-6.25
 20
19.75
 30
0.0
 10
-6.55124
 20
18.97396
 30
0.0
 10
-5.95639
 20
17.15976
 30
0.0
 10
-6.54999
 20
16.65
 30
0.0
 10
-6.54999
 20
16.65
 30
0.0
 10
-7.0755
 20
17.0879
 30
0.0
 10
-6.75587
 20
17.45445
 30
0.0
 10
-6.85001
 20
18.04998
 30
0.0
 10
-6.85001
 20
18.04998
 30
0.0
 10
-6.85001
 20
18.04998
 30
0.0
 10
-7.04999
 20
19.75
 30
0.0
 10
-7.04999
 20
19.75
 30
0.0
  0
SPLINE
  5
AF
330
1F
100
AcDbEntity
  8
Layer 1
 62
     5
370
    53
100
AcDbSpline
210
0.0
220
0.0
230
1.0
 70
     8
 71
     3
 72
    24
 73
    20
 74
     0
 42
0.0000000001
 43
0.0000000001
 12
1.0
 22
0.0
 32
0.0
 13
1.0
 23
0.0
 33
0.0
 40
0.0
 40
0.0
 40
0.0
 40
0.0
 40
0.1666666666666667
 40
0.1666666666666667
 40
0.1666666666666667
 40
0.1666666666666667
 40
0.3333333333333333
 40
0.3333333333333333
 40
0.3333333333333333
 40
0.3333333333333333
 40
0.5
 40
0.5
 40
0.5
 40
0.5
 40
0.6666666666666666
 40
0.6666666666666666
 40
0.6666666666666666
 40
0.6666666666666666
 40
1.0
 40
1.0
 40
1.0
 40
1.0
 10
22.55001
 20
10.75
 30
0.0
 10
22.82809
 20
10.58227
 30
0.0
 10
22.79654
 20
10.60345
 30
0.0
 10
23.05001
 20
10.35
 30
0.0
 10
23.05001
 20
10.35
 30
0.0
 10
23.29884
 20
9.98175
 30
0.0
 10
23.62176
 20
9.58556
 30
0.0
 10
23.95001
 20
9.24999
 30
0.0
 10
23.95001
 20
9.24999
 30
0.0
 10
23.95001
 20
9.24999
 30
0.0
 10
24.15
 20
8.74999
 30
0.0
 10
24.15
 20
8.74999
 30
0.0
 10
24.15
 20
8.74999
 30
0.0
 10
24.15
 20
8.74999
 30
0.0
 10
24.54999
 20
8.74999
 30
0.0
 10
24.54999
 20
8.74999
 30
0.0
 10
24.54999
 20
8.74999
 30
0.0
 10
24.54999
 20
9.26164
 30
0.0
 10
24.03987
 20
11.38689
 30
0.0
 10
23.85001
 20
11.84998
 30
0.0
  0
SPLINE
  5
B0
330
1F
100
AcDbEntity
  8
Layer 1
 62
     5
370
    53
100
AcDbSpline
210
0.0
220
0.0
230
1.0
 70
     8
 71
     3
 72
    12
 73
     8
 74
     0
 42
0.0000000001
 43
0.0000000001
 12
1.0
 22
0.0
 32
0.0
 13
1.0
 23
0.0
 33
0.0
 40
0.0
 40
0.0
 40
0.0
 40
0.0
 40
0.3333333333333333
 40
0.3333333333333333
 40
0.3333333333333333
 40
0.3333333333333333
 40
1.0
 40
1.0
 40
1.0
 40
1.0
 10
14.75
 20
9.55001
 30
0.0
 10
15.0878
 20
10.01007
 30
0.0
 10
17.20979
 20
15.22653
 30
0.0
 10
17.24999
 20
15.75
 30
0.0
 10
17.24999
 20
15.75
 30
0.0
 10
16.48934
 20
16.35035
 30
0.0
 10
15.354
 20
16.41541
 30
0.0
 10
14.55001
 20
17.05
 30
0.0
  0
SPLINE
  5
B1
330
1F
100
AcDbEntity
  8
Layer 1
 62
     5
370
    53
100
AcDbSpline
210
0.0
220
0.0
230
1.0
 70
     8
 71
     3
 72
    20
 73
    16
 74
     0
 42
0.0000000001
 43
0.0000000001
 12
1.0
 22
0.0
 32
0.0
 13
1.0
 23
0.0
 33
0.0
 40
0.0
 40
0.0
 40
0.0
 40
0.0
 40
0.2
 40
0.2
 40
0.2
 40
0.2
 40
0.4
 40
0.4
 40
0.4
 40
0.4
 40
0.6
 40
0.6
 40
0.6
 40
0.6
 40
1.0
 40
1.0
 40
1.0
 40
1.0
 10
10.85001
 20
11.25
 30
0.0
 10
10.67165
 20
11.74578
 30
0.0
 10
10.92493
 20
11.44528
 30
0.0
 10
10.35
 20
12.15
 30
0.0
 10
10.35
 20
12.15
 30
0.0
 10
10.02186
 20
12.48546
 30
0.0
 10
9.872
 20
12.67373
 30
0.0
 10
9.64999
 20
13.05
 30
0.0
 10
9.64999
 20
13.05
 30
0.0
 10
10.41591
 20
13.8159
 30
0.0
 10
11.85506
 20
14.91985
 30
0.0
 10
12.75001
 20
15.65
 30
0.0
 10
12.75001
 20
15.65
 30
0.0
 10
13.21195
 20
16.10187
 30
0.0
 10
13.97467
 20
16.44021
 30
0.0
 10
14.14999
 20
17.05
 30
0.0
  0
SPLINE
  5
B2
330
1F
100
AcDbEntity
  8
Layer 1
 62
     5
370
    53
100
AcDbSpline
210
0.0
220
0.0
230
1.0
 70
     8
 71
     3
 72
    16
 73
    12
 74
     0
 42
0.0000000001
 43
0.0000000001
 12
1.0
 22
0.0
 32
0.0
 13
1.0
 23
0.0
 33
0.0
 40
0.0
 40
0.0
 40
0.0
 40
0.0
 40
0.25
 40
0.25
 40
0.25
 40
0.25
 40
0.5
 40
0.5
 40
0.5
 40
0.5
 40
1.0
 40
1.0
 40
1.0
 40
1.0
 10
17.74999
 20
19.84998
 30
0.0
 10
16.95252
 20
19.05251
 30
0.0
 10
14.86242
 20
17.54952
 30
0.0
 10
14.55001
 20
17.05
 30
0.0
 10
14.55001
 20
17.05
 30
0.0
 10
14.55001
 20
17.05
 30
0.0
 10
14.14999
 20
17.05
 30
0.0
 10
14.14999
 20
17.05
 30
0.0
 10
14.14999
 20
17.05
 30
0.0
 10
12.86703
 20
17.64658
 30
0.0
 10
7.92
 20
19.72891
 30
0.0
 10
6.75
 20
19.94999
 30
0.0
  0
SPLINE
  5
B3
330
1F
100
AcDbEntity
  8
Layer 1
 62
     5
370
    53
100
AcDbSpline
210
0.0
220
0.0
230
1.0
 70
     8
 71
     3
 72
    16
 73
    12
 74
     0
 42
0.0000000001
 43
0.0000000001
 12
1.0
 22
0.0
 32
0.0
 13
1.0
 23
0.0
 33
0.0
 40
0.0
 40
0.0
 40
0.0
 40
0.0
 40
0.25
 40
0.25
 40
0.25
 40
0.25
 40
0.5
 40
0.5
 40
0.5
 40
0.5
 40
1.0
 40
1.0
 40
1.0
 40
1.0
 10
23.85001
 20
12.05
 30
0.0
 10
24.37212
 20
12.30415
 30
0.0
 10
27.08326
 20
14.52354
 30
0.0
 10
27.35
 20
14.94998
 30
0.0
 10
27.35
 20
14.94998
 30
0.0
 10
27.19642
 20
15.48403
 30
0.0
 10
24.24867
 20
18.70583
 30
0.0
 10
23.64999
 20
19.44998
 30
0.0
 10
23.64999
 20
19.44998
 30
0.0
 10
23.52884
 20
19.6392
 30
0.0
 10
23.49616
 20
19.66882
 30
0.0
 10
23.35
 20
19.84998
 30
0.0
  0
SPLINE
  5
B4
330
1F
100
AcDbEntity
  8
Layer 1
 62
     5
370
    53
100
AcDbSpline
210
0.0
220
0.0
230
1.0
 70
     8
 71
     3
 72
   124
 73
   120
 74
     0
 42
0.0000000001
 43
0.0000000001
 12
1.0
 22
0.0
 32
0.0
 13
1.0
 23
0.0
 33
0.0
 40
0.0
 40
0.0
 40
0.0
 40
0.0
 40
0.032258064516129
 40
0.032258064516129
 40
0.032258064516129
 40
0.032258064516129
 40
0.0645161290322581
 40
0.0645161290322581
 40
0.0645161290322581
 40
0.0645161290322581
 40
0.0967741935483871
 40
0.0967741935483871
 40
0.0967741935483871
 40
0.0967741935483871
 40
0.1290322580645161
 40
0.1290322580645161
 40
0.1290322580645161
 40
0.1290322580645161
 40
0.1612903225806452
 40
0.1612903225806452
 40
0.1612903225806452
 40
0.1612903225806452
 40
0.1935483870967742
 40
0.1935483870967742
 40
0.1935483870967742
 40
0.1935483870967742
 40
0.2258064516129032
 40
0.2258064516129032
 40
0.2258064516129032
 40
0.2258064516129032
 40
0.2580645161290323
 40
0.2580645161290323
 40
0.2580645161290323
 40
0.2580645161290323
 40
0.2903225806451613
 40
0.2903225806451613
 40
0.2903225806451613
 40
0.2903225806451613
 40
0.3225806451612903
 40
0.3225806451612903
 40
0.3225806451612903
 40
0.3225806451612903
 40
0.3548387096774194
 40
0.3548387096774194
 40
0.3548387096774194
 40
0.3548387096774194
 40
0.3870967741935484
 40
0.3870967741935484
 40
0.3870967741935484
 40
0.3870967741935484
 40
0.4193548387096774
 40
0.4193548387096774
 40
0.4193548387096774
 40
0.4193548387096774
 40
0.4516129032258064
 40
0.4516129032258064
 40
0.4516129032258064
 40
0.4516129032258064
 40
0.4838709677419355
 40
0.4838709677419355
 40
0.4838709677419355
 40
0.4838709677419355
 40
0.5161290322580645
 40
0.5161290322580645
 40
0.5161290322580645
 40
0.5161290322580645
 40
0.5483870967741935
 40
0.5483870967741935
 40
0.5483870967741935
 40
0.5483870967741935
 40
0.5806451612903226
 40
0.5806451612903226
 40
0.5806451612903226
 40
0.5806451612903226
 40
0.6129032258064516
 40
0.6129032258064516
 40
0.6129032258064516
 40
0.6129032258064516
 40
0.6451612903225806
 40
0.6451612903225806
 40
0.6451612903225806
 40
0.6451612903225806
 40
0.6774193548387096
 40
0.6774193548387096
 40
0.6774193548387096
 40
0.6774193548387096
 40
0.7096774193548387
 40
0.7096774193548387
 40
0.7096774193548387
 40
0.7096774193548387
 40
0.7419354838709677
 40
0.7419354838709677
 40
0.7419354838709677
 40
0.7419354838709677
 40
0.7741935483870968
 40
0.7741935483870968
 40
0.7741935483870968
 40
0.7741935483870968
 40
0.8064516129032258
 40
0.8064516129032258
 40
0.8064516129032258
 40
0.8064516129032258
 40
0.8387096774193549
 40
0.8387096774193549
 40
0.8387096774193549
 40
0.8387096774193549
 40
0.8709677419354839
 40
0.8709677419354839
 40
0.8709677419354839
 40
0.8709677419354839
 40
0.9032258064516129
 40
0.9032258064516129
 40
0.9032258064516129
 40
0.9032258064516129
 40
0.9354838709677419
 40
0.9354838709677419
 40
0.9354838709677419
 40
0.9354838709677419
 40
1.0
 40
1.0
 40
1.0
 40
1.0
 10
3.84999
 20
10.54999
 30
0.0
 10
3.84999
 20
10.54999
 30
0.0
 10
3.25001
 20
17.74999
 30
0.0
 10
3.25001
 20
17.74999
 30
0.0
 10
3.25001
 20
17.74999
 30
0.0
 10
3.09838
 20
18.70912
 30
0.0
 10
3.20771
 20
18.98609
 30
0.0
 10
2.94999
 20
19.65
 30
0.0
 10
2.94999
 20
19.65
 30
0.0
 10
2.48993
 20
19.3377
 30
0.0
 10
-0.08538
 20
13.02123
 30
0.0
 10
-0.24999
 20
12.15
 30
0.0
 10
-0.24999
 20
12.15
 30
0.0
 10
0.27604
 20
11.76375
 30
0.0
 10
3.21299
 20
10.56388
 30
0.0
 10
3.84999
 20
10.54999
 30
0.0
 10
3.84999
 20
10.54999
 30
0.0
 10
3.84999
 20
10.54999
 30
0.0
 10
3.84999
 20
10.35
 30
0.0
 10
3.84999
 20
10.35
 30
0.0
 10
3.84999
 20
10.35
 30
0.0
 10
4.28828
 20
10.26717
 30
0.0
 10
4.7683
 20
10.07028
 30
0.0
 10
5.14999
 20
9.85
 30
0.0
 10
5.14999
 20
9.85
 30
0.0
 10
5.53621
 20
9.85
 30
0.0
 10
5.34626
 20
9.83084
 30
0.0
 10
5.55001
 20
9.74999
 30
0.0
 10
5.55001
 20
9.74999
 30
0.0
 10
5.55001
 20
9.74999
 30
0.0
 10
5.64999
 20
9.74999
 30
0.0
 10
5.64999
 20
9.74999
 30
0.0
 10
5.64999
 20
9.74999
 30
0.0
 10
5.87835
 20
10.40987
 30
0.0
 10
6.64161
 20
12.23258
 30
0.0
 10
7.04999
 20
12.74998
 30
0.0
 10
7.04999
 20
12.74998
 30
0.0
 10
7.98452
 20
12.37519
 30
0.0
 10
9.78888
 20
11.43148
 30
0.0
 10
10.64999
 20
11.25
 30
0.0
 10
10.64999
 20
11.25
 30
0.0
 10
10.64999
 20
11.25
 30
0.0
 10
10.85001
 20
11.25
 30
0.0
 10
10.85001
 20
11.25
 30
0.0
 10
10.85001
 20
11.25
 30
0.0
 10
11.26987
 20
10.9931
 30
0.0
 10
11.27234
 20
10.85196
 30
0.0
 10
11.75001
 20
10.64999
 30
0.0
 10
11.75001
 20
10.64999
 30
0.0
 10
12.5267
 20
10.38124
 30
0.0
 10
13.65472
 20
9.96642
 30
0.0
 10
14.35
 20
9.55001
 30
0.0
 10
14.35
 20
9.55001
 30
0.0
 10
14.35
 20
9.55001
 30
0.0
 10
14.75
 20
9.55001
 30
0.0
 10
14.75
 20
9.55001
 30
0.0
 10
14.75
 20
9.55001
 30
0.0
 10
14.75
 20
9.55001
 30
0.0
 10
14.75
 20
9.35
 30
0.0
 10
14.75
 20
9.35
 30
0.0
 10
14.75
 20
9.35
 30
0.0
 10
15.27866
 20
9.23859
 30
0.0
 10
15.73081
 20
9.03697
 30
0.0
 10
16.15
 20
8.65001
 30
0.0
 10
16.15
 20
8.65001
 30
0.0
 10
15.97865
 20
8.39645
 30
0.0
 10
15.80862
 20
8.20928
 30
0.0
 10
15.65
 20
7.94999
 30
0.0
 10
15.65
 20
7.94999
 30
0.0
 10
15.65
 20
7.94999
 30
0.0
 10
15.15617
 20
7.73671
 30
0.0
 10
15.15617
 20
7.73671
 30
0.0
 10
15.15617
 20
7.73671
 30
0.0
 10
14.7839
 20
7.39188
 30
0.0
 10
14.8853
 20
7.43406
 30
0.0
 10
14.45001
 20
7.25001
 30
0.0
 10
14.45001
 20
7.25001
 30
0.0
 10
14.45001
 20
7.25001
 30
0.0
 10
14.35
 20
7.04999
 30
0.0
 10
14.35
 20
7.04999
 30
0.0
 10
14.35
 20
7.04999
 30
0.0
 10
14.78197
 20
6.92578
 30
0.0
 10
14.66456
 20
6.88581
 30
0.0
 10
15.04999
 20
6.65
 30
0.0
 10
15.04999
 20
6.65
 30
0.0
 10
15.04999
 20
6.65
 30
0.0
 10
15.04999
 20
6.25
 30
0.0
 10
15.04999
 20
6.25
 30
0.0
 10
15.04999
 20
6.25
 30
0.0
 10
15.47068
 20
5.99261
 30
0.0
 10
15.62931
 20
5.70739
 30
0.0
 10
16.05
 20
5.45
 30
0.0
 10
16.05
 20
5.45
 30
0.0
 10
16.8901
 20
5.95673
 30
0.0
 10
21.69137
 20
10.29065
 30
0.0
 10
22.55001
 20
10.75
 30
0.0
 10
22.55001
 20
10.75
 30
0.0
 10
22.55001
 20
10.75
 30
0.0
 10
22.55001
 20
10.94998
 30
0.0
 10
22.55001
 20
10.94998
 30
0.0
 10
22.55001
 20
10.94998
 30
0.0
 10
22.9853
 20
11.13407
 30
0.0
 10
22.8839
 20
11.09189
 30
0.0
 10
23.25
 20
11.44999
 30
0.0
 10
23.25
 20
11.44999
 30
0.0
 10
23.45837
 20
11.59081
 30
0.0
 10
23.63554
 20
11.72345
 30
0.0
 10
23.85001
 20
11.84998
 30
0.0
 10
23.85001
 20
11.84998
 30
0.0
 10
23.85001
 20
11.84998
 30
0.0
 10
23.85001
 20
12.05
 30
0.0
 10
23.85001
 20
12.05
 30
0.0
 10
23.85001
 20
12.05
 30
0.0
 10
23.72987
 20
12.35268
 30
0.0
 10
23.75
 20
12.15071
 30
0.0
 10
23.75
 20
12.55
 30
0.0
 10
23.75
 20
12.55
 30
0.0
 10
23.3606
 20
13.7509
 30
0.0
 10
22.13808
 20
18.70362
 30
0.0
 10
22.05001
 20
19.84998
 30
0.0
  0
SPLINE
  5
B5
330
1F
100
AcDbEntity
  8
Layer 1
 62
     5
370
    53
100
AcDbSpline
210
0.0
220
0.0
230
1.0
 70
     8
 71
     3
 72
    52
 73
    48
 74
     0
 42
0.0000000001
 43
0.0000000001
 12
1.0
 22
0.0
 32
0.0
 13
1.0
 23
0.0
 33
0.0
 40
0.0
 40
0.0
 40
0.0
 40
0.0
 40
0.0769230769230769
 40
0.0769230769230769
 40
0.0769230769230769
 40
0.0769230769230769
 40
0.1538461538461539
 40
0.1538461538461539
 40
0.1538461538461539
 40
0.1538461538461539
 40
0.2307692307692308
 40
0.2307692307692308
 40
0.2307692307692308
 40
0.2307692307692308
 40
0.3076923076923077
 40
0.3076923076923077
 40
0.3076923076923077
 40
0.3076923076923077
 40
0.3846153846153846
 40
0.3846153846153846
 40
0.3846153846153846
 40
0.3846153846153846
 40
0.4615384615384616
 40
0.4615384615384616
 40
0.4615384615384616
 40
0.4615384615384616
 40
0.5384615384615384
 40
0.5384615384615384
 40
0.5384615384615384
 40
0.5384615384615384
 40
0.6153846153846154
 40
0.6153846153846154
 40
0.6153846153846154
 40
0.6153846153846154
 40
0.6923076923076923
 40
0.6923076923076923
 40
0.6923076923076923
 40
0.6923076923076923
 40
0.7692307692307693
 40
0.7692307692307693
 40
0.7692307692307693
 40
0.7692307692307693
 40
0.8461538461538461
 40
0.8461538461538461
 40
0.8461538461538461
 40
0.8461538461538461
 40
1.0
 40
1.0
 40
1.0
 40
1.0
 10
-19.94999
 20
5.75
 30
0.0
 10
-19.82277
 20
5.48428
 30
0.0
 10
-19.72537
 20
5.45017
 30
0.0
 10
-19.25
 20
5.35
 30
0.0
 10
-19.25
 20
5.35
 30
0.0
 10
-18.92648
 20
5.91058
 30
0.0
 10
-18.76037
 20
6.54208
 30
0.0
 10
-18.55001
 20
7.15
 30
0.0
 10
-18.55001
 20
7.15
 30
0.0
 10
-18.61277
 20
7.51624
 30
0.0
 10
-18.60177
 20
7.17543
 30
0.0
 10
-18.55001
 20
7.55
 30
0.0
 10
-18.55001
 20
7.55
 30
0.0
 10
-18.78495
 20
7.4655
 30
0.0
 10
-18.73775
 20
7.49449
 30
0.0
 10
-18.95001
 20
7.44999
 30
0.0
 10
-18.95001
 20
7.44999
 30
0.0
 10
-19.3415
 20
7.0585
 30
0.0
 10
-19.87008
 20
6.62108
 30
0.0
 10
-20.15
 20
6.25
 30
0.0
 10
-20.15
 20
6.25
 30
0.0
 10
-19.99276
 20
5.95029
 30
0.0
 10
-20.0308
 20
6.05407
 30
0.0
 10
-19.94999
 20
5.75
 30
0.0
 10
-19.94999
 20
5.75
 30
0.0
 10
-20.32841
 20
5.35105
 30
0.0
 10
-21.4941
 20
5.99616
 30
0.0
 10
-22.05001
 20
6.18319
 30
0.0
 10
-22.05001
 20
6.18319
 30
0.0
 10
-22.77191
 20
6.42612
 30
0.0
 10
-23.54763
 20
6.68965
 30
0.0
 10
-24.25
 20
6.94712
 30
0.0
 10
-24.25
 20
6.94712
 30
0.0
 10
-25.62705
 20
7.45189
 30
0.0
 10
-27.36313
 20
7.95158
 30
0.0
 10
-28.65
 20
8.55
 30
0.0
 10
-28.65
 20
8.55
 30
0.0
 10
-28.65
 20
8.55
 30
0.0
 10
-28.65
 20
9.14998
 30
0.0
 10
-28.65
 20
9.14998
 30
0.0
 10
-28.65
 20
9.14998
 30
0.0
 10
-28.65
 20
9.14998
 30
0.0
 10
-28.25
 20
9.35
 30
0.0
 10
-28.25
 20
9.35
 30
0.0
 10
-28.25
 20
9.35
 30
0.0
 10
-28.21448
 20
10.97941
 30
0.0
 10
-25.22725
 20
17.48535
 30
0.0
 10
-24.75001
 20
19.75
 30
0.0
  0
ENDSEC
  0
SECTION
  2
OBJECTS
  0
DICTIONARY
  5
C
330
0
100
AcDbDictionary
281
     1
  3
ACAD_GROUP
350
D
  3
ACAD_LAYOUT
350
1A
  3
ACAD_MATERIAL
350
3B
  3
ACAD_MLEADERSTYLE
350
D7
  3
ACAD_MLINESTYLE
350
17
  3
ACAD_PLOTSETTINGS
350
19
  3
ACAD_PLOTSTYLENAME
350
E
  3
ACAD_TABLESTYLE
350
D6
  3
ACAD_VISUALSTYLE
350
2A
  0
DICTIONARY
  5
D
102
{ACAD_REACTORS
330
C
102
}
330
C
100
AcDbDictionary
281
     1
  0
DICTIONARY
  5
1A
102
{ACAD_REACTORS
330
C
102
}
330
C
100
AcDbDictionary
281
     1
  3
Layout1
350
1E
  3
Layout2
350
26
  3
Model
350
22
  0
DICTIONARY
  5
3B
102
{ACAD_REACTORS
330
C
102
}
330
C
100
AcDbDictionary
281
     1
  3
ByBlock
350
3D
  3
ByLayer
350
3C
  3
Global
350
3E
  0
DICTIONARY
  5
D7
102
{ACAD_REACTORS
330
C
102
}
330
C
100
AcDbDictionary
281
     1
  0
DICTIONARY
  5
17
102
{ACAD_REACTORS
330
C
102
}
330
C
100
AcDbDictionary
281
     1
  3
Standard
350
18
  0
DICTIONARY
  5
19
102
{ACAD_REACTORS
330
C
102
}
330
C
100
AcDbDictionary
281
     1
  0
ACDBDICTIONARYWDFLT
  5
E
102
{ACAD_REACTORS
330
C
102
}
330
C
100
AcDbDictionary
281
     1
  3
Normal
350
F
100
AcDbDictionaryWithDefault
340
F
  0
DICTIONARY
  5
D6
102
{ACAD_REACTORS
330
C
102
}
330
C
100
AcDbDictionary
281
     1
  0
DICTIONARY
  5
2A
102
{ACAD_REACTORS
330
C
102
}
330
C
100
AcDbDictionary
281
     1
  3
2dWireframe
350
2F
  3
3D Hidden
350
31
  3
3dWireframe
350
30
  3
Basic
350
32
  3
Brighten
350
36
  3
ColorChange
350
3A
  3
Conceptual
350
34
  3
Dim
350
35
  3
Facepattern
350
39
  3
Flat
350
2B
  3
FlatWithEdges
350
2C
  3
Gouraud
350
2D
  3
GouraudWithEdges
350
2E
  3
Linepattern
350
38
  3
Realistic
350
33
  3
Thicken
350
37
  0
LAYOUT
  5
1E
102
{ACAD_REACTORS
330
1A
102
}
330
1A
100
AcDbPlotSettings
  1

  2
none_device
  4

  6

 40
0.0
 41
0.0
 42
0.0
 43
0.0
 44
0.0
 45
0.0
 46
0.0
 47
0.0
 48
0.0
 49
0.0
140
0.0
141
0.0
142
1.0
143
1.0
 70
   688
 72
     0
 73
     0
 74
     5
  7

 75
    16
 76
     0
 77
     2
 78
   300
147
1.0
148
0.0
149
0.0
100
AcDbLayout
  1
Layout1
 70
     1
 71
     1
 10
0.0
 20
0.0
 11
12.0
 21
9.0
 12
0.0
 22
0.0
 32
0.0
 14
1.000000000000000E+20
 24
1.000000000000000E+20
 34
1.000000000000000E+20
 15
-1.000000000000000E+20
 25
-1.000000000000000E+20
 35
-1.000000000000000E+20
146
0.0
 13
0.0
 23
0.0
 33
0.0
 16
1.0
 26
0.0
 36
0.0
 17
0.0
 27
1.0
 37
0.0
 76
     0
330
1B
  0
LAYOUT
  5
26
102
{ACAD_REACTORS
330
1A
102
}
330
1A
100
AcDbPlotSettings
  1

  2
none_device
  4

  6

 40
0.0
 41
0.0
 42
0.0
 43
0.0
 44
0.0
 45
0.0
 46
0.0
 47
0.0
 48
0.0
 49
0.0
140
0.0
141
0.0
142
1.0
143
1.0
 70
   688
 72
     0
 73
     0
 74
     5
  7

 75
    16
 76
     0
 77
     2
 78
   300
147
1.0
148
0.0
149
0.0
100
AcDbLayout
  1
Layout2
 70
     1
 71
     2
 10
0.0
 20
0.0
 11
0.0
 21
0.0
 12
0.0
 22
0.0
 32
0.0
 14
0.0
 24
0.0
 34
0.0
 15
0.0
 25
0.0
 35
0.0
146
0.0
 13
0.0
 23
0.0
 33
0.0
 16
1.0
 26
0.0
 36
0.0
 17
0.0
 27
1.0
 37
0.0
 76
     0
330
23
  0
LAYOUT
  5
22
102
{ACAD_REACTORS
330
1A
102
}
330
1A
100
AcDbPlotSettings
  1

  2
none_device
  4

  6

 40
0.0
 41
0.0
 42
0.0
 43
0.0
 44
0.0
 45
0.0
 46
0.0
 47
0.0
 48
0.0
 49
0.0
140
0.0
141
0.0
142
1.0
143
1.0
 70
  1712
 72
     0
 73
     0
 74
     0
  7

 75
     0
 76
     0
 77
     2
 78
   300
147
1.0
148
0.0
149
0.0
100
AcDbLayout
  1
Model
 70
     1
 71
     0
 10
0.0
 20
0.0
 11
12.0
 21
9.0
 12
0.0
 22
0.0
 32
0.0
 14
-30.02646
 24
-20.02646
 34
0.0
 15
30.02646
 25
20.02645
 35
0.0
146
0.0
 13
0.0
 23
0.0
 33
0.0
 16
1.0
 26
0.0
 36
0.0
 17
0.0
 27
1.0
 37
0.0
 76
     0
330
1F
331
29
  0
MATERIAL
  5
3D
102
{ACAD_REACTORS
330
3B
102
}
330
3B
100
AcDbMaterial
  1
ByBlock
 72
     1
 94
      127
  0
MATERIAL
  5
3C
102
{ACAD_REACTORS
330
3B
102
}
330
3B
100
AcDbMaterial
  1
ByLayer
 72
     1
 94
      127
  0
MATERIAL
  5
3E
102
{ACAD_REACTORS
330
3B
102
}
330
3B
100
AcDbMaterial
  1
Global
 72
     1
 94
      127
  0
MLINESTYLE
  5
18
102
{ACAD_REACTORS
330
17
102
}
330
17
100
AcDbMlineStyle
  2
Standard
 70
     0
  3

 62
   256
 51
90.0
 52
90.0
 71
     2
 49
0.5
 62
   256
  6
BYLAYER
 49
-0.5
 62
   256
  6
BYLAYER
  0
ACDBPLACEHOLDER
  5
F
102
{ACAD_REACTORS
330
E
102
}
330
E
  0
VISUALSTYLE
  5
2F
102
{ACAD_REACTORS
330
2A
102
}
102
{ACAD_XDICTIONARY
360
BE
102
}
330
2A
100
AcDbVisualStyle
  2
2dWireframe
 70
     4
 71
     0
 72
     2
 73
     0
 90
        0
 40
-0.6
 41
-30.0
 62
     5
 63
     7
421
 16777215
 74
     1
 91
        4
 64
     7
 65
   257
 75
     1
175
     1
 42
1.0
 92
        0
 66
   257
 43
1.0
 76
     1
 77
     6
 78
     2
 67
     7
 79
     5
170
     0
171
     0
290
     0
174
     0
 93
        1
 44
0.0
173
     0
291
     0
 45
0.0
  0
VISUALSTYLE
  5
31
102
{ACAD_REACTORS
330
2A
102
}
102
{ACAD_XDICTIONARY
360
C2
102
}
330
2A
100
AcDbVisualStyle
  2
3D Hidden
 70
     6
 71
     1
 72
     2
 73
     2
 90
        0
 40
-0.6
 41
-30.0
 62
     5
 63
     7
421
 16777215
 74
     2
 91
        2
 64
     7
 65
   257
 75
     2
175
     1
 42
40.0
 92
        0
 66
   257
 43
1.0
 76
     1
 77
     6
 78
     2
 67
     7
 79
     3
170
     0
171
     0
290
     0
174
     0
 93
        1
 44
0.0
173
     0
291
     0
 45
0.0
  0
VISUALSTYLE
  5
30
102
{ACAD_REACTORS
330
2A
102
}
102
{ACAD_XDICTIONARY
360
C0
102
}
330
2A
100
AcDbVisualStyle
  2
3dWireframe
 70
     5
 71
     0
 72
     2
 73
     0
 90
        0
 40
-0.6
 41
-30.0
 62
     5
 63
     7
421
 16777215
 74
     1
 91
        4
 64
     7
 65
   257
 75
     1
175
     1
 42
1.0
 92
        0
 66
   257
 43
1.0
 76
     1
 77
     6
 78
     2
 67
     7
 79
     5
170
     0
171
     0
290
     0
174
     0
 93
        1
 44
0.0
173
     0
291
     0
 45
0.0
  0
VISUALSTYLE
  5
32
102
{ACAD_REACTORS
330
2A
102
}
102
{ACAD_XDICTIONARY
360
C4
102
}
330
2A
100
AcDbVisualStyle
  2
Basic
 70
     7
 71
     1
 72
     0
 73
     1
 90
        0
 40
-0.6
 41
-30.0
 62
     5
 63
     7
421
 16777215
 74
     0
 91
        4
 64
     7
 65
   257
 75
     1
175
     1
 42
1.0
 92
        8
 66
     7
 43
1.0
 76
     1
 77
     6
 78
     2
 67
     7
 79
     5
170
     0
171
     0
290
     0
174
     0
 93
        1
 44
0.0
173
     0
291
     1
 45
0.0
  0
VISUALSTYLE
  5
36
102
{ACAD_REACTORS
330
2A
102
}
102
{ACAD_XDICTIONARY
360
CC
102
}
330
2A
100
AcDbVisualStyle
  2
Brighten
 70
    12
 71
     2
 72
     2
 73
     0
 90
        0
 40
-0.6
 41
-30.0
 62
     5
 63
     7
421
 16777215
 74
     1
 91
        4
 64
     7
 65
   257
 75
     1
175
     1
 42
1.0
 92
        8
 66
     7
 43
1.0
 76
     1
 77
     6
 78
     2
 67
     7
 79
     5
170
     0
171
     0
290
     0
174
     0
 93
        1
 44
50.0
173
     0
291
     1
 45
0.0
  0
VISUALSTYLE
  5
3A
102
{ACAD_REACTORS
330
2A
102
}
102
{ACAD_XDICTIONARY
360
D4
102
}
330
2A
100
AcDbVisualStyle
  2
ColorChange
 70
    16
 71
     2
 72
     2
 73
     3
 90
        0
 40
-0.6
 41
-30.0
 62
     5
 63
     8
421
  8421504
 74
     1
 91
        4
 64
     7
 65
   257
 75
     1
175
     1
 42
1.0
 92
        8
 66
     8
424
  8421504
 43
1.0
 76
     1
 77
     6
 78
     2
 67
     7
 79
     5
170
     0
171
     0
290
     0
174
     0
 93
        1
 44
0.0
173
     0
291
     1
 45
0.0
  0
VISUALSTYLE
  5
34
102
{ACAD_REACTORS
330
2A
102
}
102
{ACAD_XDICTIONARY
360
C8
102
}
330
2A
100
AcDbVisualStyle
  2
Conceptual
 70
     9
 71
     3
 72
     2
 73
     0
 90
        0
 40
-0.6
 41
-30.0
 62
     5
 63
     7
421
 16777215
 74
     2
 91
        2
 64
     7
 65
   257
 75
     1
175
     1
 42
40.0
 92
        8
 66
     7
 43
1.0
 76
     1
 77
     6
 78
     2
 67
     7
 79
     3
170
     0
171
     0
290
     0
174
     0
 93
        1
 44
0.0
173
     0
291
     0
 45
0.0
  0
VISUALSTYLE
  5
35
102
{ACAD_REACTORS
330
2A
102
}
102
{ACAD_XDICTIONARY
360
CA
102
}
330
2A
100
AcDbVisualStyle
  2
Dim
 70
    11
 71
     2
 72
     2
 73
     0
 90
        0
 40
-0.6
 41
-30.0
 62
     5
 63
     7
421
 16777215
 74
     1
 91
        4
 64
     7
 65
   257
 75
     1
175
     1
 42
1.0
 92
        8
 66
     7
 43
1.0
 76
     1
 77
     6
 78
     2
 67
     7
 79
     5
170
     0
171
     0
290
     0
174
     0
 93
        1
 44
-50.0
173
     0
291
     1
 45
0.0
  0
VISUALSTYLE
  5
39
102
{ACAD_REACTORS
330
2A
102
}
102
{ACAD_XDICTIONARY
360
D2
102
}
330
2A
100
AcDbVisualStyle
  2
Facepattern
 70
    15
 71
     2
 72
     2
 73
     0
 90
        0
 40
-0.6
 41
-30.0
 62
     5
 63
     7
421
 16777215
 74
     1
 91
        4
 64
     7
 65
   257
 75
     1
175
     1
 42
1.0
 92
        8
 66
     7
 43
1.0
 76
     1
 77
     6
 78
     2
 67
     7
 79
     5
170
     0
171
     0
290
     0
174
     0
 93
        1
 44
0.0
173
     0
291
     1
 45
0.0
  0
VISUALSTYLE
  5
2B
102
{ACAD_REACTORS
330
2A
102
}
102
{ACAD_XDICTIONARY
360
B6
102
}
330
2A
100
AcDbVisualStyle
  2
Flat
 70
     0
 71
     2
 72
     1
 73
     1
 90
        2
 40
-0.6
 41
30.0
 62
     5
 63
     7
421
 16777215
 74
     0
 91
        4
 64
     7
 65
   257
 75
     1
175
     1
 42
1.0
 92
        8
 66
     7
 43
1.0
 76
     1
 77
     6
 78
     2
 67
     7
 79
     5
170
     0
171
     0
290
     0
174
     0
 93
       13
 44
0.0
173
     0
291
     1
 45
0.0
  0
VISUALSTYLE
  5
2C
102
{ACAD_REACTORS
330
2A
102
}
102
{ACAD_XDICTIONARY
360
B8
102
}
330
2A
100
AcDbVisualStyle
  2
FlatWithEdges
 70
     1
 71
     2
 72
     1
 73
     1
 90
        2
 40
-0.6
 41
30.0
 62
     5
 63
     7
421
 16777215
 74
     1
 91
        4
 64
     7
 65
   257
 75
     1
175
     1
 42
1.0
 92
        0
 66
   257
 43
1.0
 76
     1
 77
     6
 78
     2
 67
     7
 79
     5
170
     0
171
     0
290
     0
174
     0
 93
       13
 44
0.0
173
     0
291
     1
 45
0.0
  0
VISUALSTYLE
  5
2D
102
{ACAD_REACTORS
330
2A
102
}
102
{ACAD_XDICTIONARY
360
BA
102
}
330
2A
100
AcDbVisualStyle
  2
Gouraud
 70
     2
 71
     2
 72
     2
 73
     1
 90
        2
 40
-0.6
 41
30.0
 62
     5
 63
     7
421
 16777215
 74
     0
 91
        4
 64
     7
 65
   257
 75
     1
175
     1
 42
1.0
 92
        0
 66
     7
 43
1.0
 76
     1
 77
     6
 78
     2
 67
     7
 79
     5
170
     0
171
     0
290
     0
174
     0
 93
       13
 44
0.0
173
     0
291
     1
 45
0.0
  0
VISUALSTYLE
  5
2E
102
{ACAD_REACTORS
330
2A
102
}
102
{ACAD_XDICTIONARY
360
BC
102
}
330
2A
100
AcDbVisualStyle
  2
GouraudWithEdges
 70
     3
 71
     2
 72
     2
 73
     1
 90
        2
 40
-0.6
 41
30.0
 62
     5
 63
     7
421
 16777215
 74
     1
 91
        4
 64
     7
 65
   257
 75
     1
175
     1
 42
1.0
 92
        0
 66
   257
 43
1.0
 76
     1
 77
     6
 78
     2
 67
     7
 79
     5
170
     0
171
     0
290
     0
174
     0
 93
       13
 44
0.0
173
     0
291
     1
 45
0.0
  0
VISUALSTYLE
  5
38
102
{ACAD_REACTORS
330
2A
102
}
102
{ACAD_XDICTIONARY
360
D0
102
}
330
2A
100
AcDbVisualStyle
  2
Linepattern
 70
    14
 71
     2
 72
     2
 73
     0
 90
        0
 40
-0.6
 41
-30.0
 62
     5
 63
     7
421
 16777215
 74
     1
 91
        4
 64
     7
 65
   257
 75
     7
175
     7
 42
1.0
 92
        8
 66
     7
 43
1.0
 76
     1
 77
     6
 78
     2
 67
     7
 79
     5
170
     0
171
     0
290
     0
174
     0
 93
        1
 44
0.0
173
     0
291
     1
 45
0.0
  0
VISUALSTYLE
  5
33
102
{ACAD_REACTORS
330
2A
102
}
102
{ACAD_XDICTIONARY
360
C6
102
}
330
2A
100
AcDbVisualStyle
  2
Realistic
 70
     8
 71
     2
 72
     2
 73
     0
 90
        0
 40
-0.6
 41
-30.0
 62
     5
 63
     7
421
 16777215
 74
     1
 91
        0
 64
     7
 65
   257
 75
     1
175
     1
 42
1.0
 92
        8
 66
     8
424
  7895160
 43
1.0
 76
     1
 77
     6
 78
     2
 67
     7
 79
     5
170
     0
171
     0
290
     0
174
     0
 93
       13
 44
0.0
173
     0
291
     0
 45
0.0
  0
VISUALSTYLE
  5
37
102
{ACAD_REACTORS
330
2A
102
}
102
{ACAD_XDICTIONARY
360
CE
102
}
330
2A
100
AcDbVisualStyle
  2
Thicken
 70
    13
 71
     2
 72
     2
 73
     0
 90
        0
 40
-0.6
 41
-30.0
 62
     5
 63
     7
421
 16777215
 74
     1
 91
        4
 64
     7
 65
   257
 75
     1
175
     1
 42
1.0
 92
       12
 66
     7
 43
1.0
 76
     1
 77
     6
 78
     2
 67
     7
 79
     5
170
     0
171
     0
290
     0
174
     0
 93
        1
 44
0.0
173
     0
291
     1
 45
0.0
  0
DICTIONARY
  5
BE
330
2F
100
AcDbDictionary
280
     1
281
     1
  3
ACAD_XREC_ROUNDTRIP
360
BF
  0
DICTIONARY
  5
C2
330
31
100
AcDbDictionary
280
     1
281
     1
  3
ACAD_XREC_ROUNDTRIP
360
C3
  0
DICTIONARY
  5
C0
330
30
100
AcDbDictionary
280
     1
281
     1
  3
ACAD_XREC_ROUNDTRIP
360
C1
  0
DICTIONARY
  5
C4
330
32
100
AcDbDictionary
280
     1
281
     1
  3
ACAD_XREC_ROUNDTRIP
360
C5
  0
DICTIONARY
  5
CC
330
36
100
AcDbDictionary
280
     1
281
     1
  3
ACAD_XREC_ROUNDTRIP
360
CD
  0
DICTIONARY
  5
D4
330
3A
100
AcDbDictionary
280
     1
281
     1
  3
ACAD_XREC_ROUNDTRIP
360
D5
  0
DICTIONARY
  5
C8
330
34
100
AcDbDictionary
280
     1
281
     1
  3
ACAD_XREC_ROUNDTRIP
360
C9
  0
DICTIONARY
  5
CA
330
35
100
AcDbDictionary
280
     1
281
     1
  3
ACAD_XREC_ROUNDTRIP
360
CB
  0
DICTIONARY
  5
D2
330
39
100
AcDbDictionary
280
     1
281
     1
  3
ACAD_XREC_ROUNDTRIP
360
D3
  0
DICTIONARY
  5
B6
330
2B
100
AcDbDictionary
280
     1
281
     1
  3
ACAD_XREC_ROUNDTRIP
360
B7
  0
DICTIONARY
  5
B8
330
2C
100
AcDbDictionary
280
     1
281
     1
  3
ACAD_XREC_ROUNDTRIP
360
B9
  0
DICTIONARY
  5
BA
330
2D
100
AcDbDictionary
280
     1
281
     1
  3
ACAD_XREC_ROUNDTRIP
360
BB
  0
DICTIONARY
  5
BC
330
2E
100
AcDbDictionary
280
     1
281
     1
  3
ACAD_XREC_ROUNDTRIP
360
BD
  0
DICTIONARY
  5
D0
330
38
100
AcDbDictionary
280
     1
281
     1
  3
ACAD_XREC_ROUNDTRIP
360
D1
  0
DICTIONARY
  5
C6
330
33
100
AcDbDictionary
280
     1
281
     1
  3
ACAD_XREC_ROUNDTRIP
360
C7
  0
DICTIONARY
  5
CE
330
37
100
AcDbDictionary
280
     1
281
     1
  3
ACAD_XREC_ROUNDTRIP
360
CF
  0
XRECORD
  5
BF
102
{ACAD_REACTORS
330
BE
102
}
330
BE
100
AcDbXrecord
280
     1
102
RTVSPropertyOp0
 70
     1
102
RTVSPropertyOp1
 70
     1
102
RTVSPropertyOp2
 70
     1
102
RTVSPropertyOp3
 70
     1
102
RTVSPropertyOp4
 70
     1
102
RTVSPropertyOp5
 70
     1
102
RTVSPropertyOp6
 70
     1
102
RTVSPropertyOp7
 70
     1
102
RTVSPropertyOp8
 70
     1
102
RTVSPropertyOp9
 70
     1
102
RTVSPropertyOp10
 70
     1
102
RTVSPropertyOp11
 70
     1
102
RTVSPropertyOp12
 70
     1
102
RTVSPropertyOp13
 70
     1
102
RTVSPropertyOp14
 70
     1
102
RTVSPropertyOp15
 70
     1
102
RTVSPropertyOp16
 70
     1
102
RTVSPropertyOp17
 70
     1
102
RTVSPropertyOp18
 70
     1
102
RTVSPropertyOp19
 70
     1
102
RTVSPropertyOp20
 70
     1
102
RTVSPropertyOp21
 70
     1
102
RTVSPropertyOp22
 70
     1
102
RTVSPropertyOp23
 70
     1
102
RTVSPropertyOp24
 70
     1
102
RTVSPropertyOp25
 70
     1
102
RTVSPropertyOp26
 70
     1
102
RTVSPropertyOp27
 70
     1
102
RTVSPropertyOp28
 70
     1
102
RTVSPropertyOp29
 70
     1
102
RTVSPropertyOp30
 70
     1
102
RTVSPropertyOp31
 70
     1
102
RTVSPropertyOp32
 70
     1
  0
XRECORD
  5
C3
102
{ACAD_REACTORS
330
C2
102
}
330
C2
100
AcDbXrecord
280
     1
102
RTVSPropertyOp0
 70
     1
102
RTVSPropertyOp1
 70
     1
102
RTVSPropertyOp2
 70
     1
102
RTVSPropertyOp3
 70
     1
102
RTVSPropertyOp4
 70
     1
102
RTVSPropertyOp5
 70
     1
102
RTVSPropertyOp6
 70
     1
102
RTVSPropertyOp7
 70
     1
102
RTVSPropertyOp8
 70
     1
102
RTVSPropertyOp9
 70
     1
102
RTVSPropertyOp10
 70
     1
102
RTVSPropertyOp11
 70
     1
102
RTVSPropertyOp12
 70
     1
102
RTVSPropertyOp13
 70
     1
102
RTVSPropertyOp14
 70
     1
102
RTVSPropertyOp15
 70
     1
102
RTVSPropertyOp16
 70
     1
102
RTVSPropertyOp17
 70
     1
102
RTVSPropertyOp18
 70
     1
102
RTVSPropertyOp19
 70
     1
102
RTVSPropertyOp20
 70
     1
102
RTVSPropertyOp21
 70
     1
102
RTVSPropertyOp22
 70
     1
102
RTVSPropertyOp23
 70
     1
102
RTVSPropertyOp24
 70
     1
102
RTVSPropertyOp25
 70
     1
102
RTVSPropertyOp26
 70
     1
102
RTVSPropertyOp27
 70
     1
102
RTVSPropertyOp28
 70
     1
102
RTVSPropertyOp29
 70
     1
102
RTVSPropertyOp30
 70
     1
102
RTVSPropertyOp31
 70
     1
102
RTVSPropertyOp32
 70
     1
  0
XRECORD
  5
C1
102
{ACAD_REACTORS
330
C0
102
}
330
C0
100
AcDbXrecord
280
     1
102
RTVSPropertyOp0
 70
     1
102
RTVSPropertyOp1
 70
     1
102
RTVSPropertyOp2
 70
     1
102
RTVSPropertyOp3
 70
     1
102
RTVSPropertyOp4
 70
     1
102
RTVSPropertyOp5
 70
     1
102
RTVSPropertyOp6
 70
     1
102
RTVSPropertyOp7
 70
     1
102
RTVSPropertyOp8
 70
     1
102
RTVSPropertyOp9
 70
     1
102
RTVSPropertyOp10
 70
     1
102
RTVSPropertyOp11
 70
     1
102
RTVSPropertyOp12
 70
     1
102
RTVSPropertyOp13
 70
     1
102
RTVSPropertyOp14
 70
     1
102
RTVSPropertyOp15
 70
     1
102
RTVSPropertyOp16
 70
     1
102
RTVSPropertyOp17
 70
     1
102
RTVSPropertyOp18
 70
     1
102
RTVSPropertyOp19
 70
     1
102
RTVSPropertyOp20
 70
     1
102
RTVSPropertyOp21
 70
     1
102
RTVSPropertyOp22
 70
     1
102
RTVSPropertyOp23
 70
     1
102
RTVSPropertyOp24
 70
     1
102
RTVSPropertyOp25
 70
     1
102
RTVSPropertyOp26
 70
     1
102
RTVSPropertyOp27
 70
     1
102
RTVSPropertyOp28
 70
     1
102
RTVSPropertyOp29
 70
     1
102
RTVSPropertyOp30
 70
     1
102
RTVSPropertyOp31
 70
     1
102
RTVSPropertyOp32
 70
     1
  0
XRECORD
  5
C5
102
{ACAD_REACTORS
330
C4
102
}
330
C4
100
AcDbXrecord
280
     1
102
RTVSPropertyOp0
 70
     1
102
RTVSPropertyOp1
 70
     1
102
RTVSPropertyOp2
 70
     1
102
RTVSPropertyOp3
 70
     1
102
RTVSPropertyOp4
 70
     1
102
RTVSPropertyOp5
 70
     1
102
RTVSPropertyOp6
 70
     1
102
RTVSPropertyOp7
 70
     1
102
RTVSPropertyOp8
 70
     1
102
RTVSPropertyOp9
 70
     1
102
RTVSPropertyOp10
 70
     1
102
RTVSPropertyOp11
 70
     1
102
RTVSPropertyOp12
 70
     1
102
RTVSPropertyOp13
 70
     1
102
RTVSPropertyOp14
 70
     1
102
RTVSPropertyOp15
 70
     1
102
RTVSPropertyOp16
 70
     1
102
RTVSPropertyOp17
 70
     1
102
RTVSPropertyOp18
 70
     1
102
RTVSPropertyOp19
 70
     1
102
RTVSPropertyOp20
 70
     1
102
RTVSPropertyOp21
 70
     1
102
RTVSPropertyOp22
 70
     1
102
RTVSPropertyOp23
 70
     1
102
RTVSPropertyOp24
 70
     1
102
RTVSPropertyOp25
 70
     1
102
RTVSPropertyOp26
 70
     1
102
RTVSPropertyOp27
 70
     1
102
RTVSPropertyOp28
 70
     1
102
RTVSPropertyOp29
 70
     1
102
RTVSPropertyOp30
 70
     1
102
RTVSPropertyOp31
 70
     1
102
RTVSPropertyOp32
 70
     1
  0
XRECORD
  5
CD
102
{ACAD_REACTORS
330
CC
102
}
330
CC
100
AcDbXrecord
280
     1
102
RTVSPropertyOp0
 70
     1
102
RTVSPropertyOp1
 70
     1
102
RTVSPropertyOp2
 70
     1
102
RTVSPropertyOp3
 70
     1
102
RTVSPropertyOp4
 70
     1
102
RTVSPropertyOp5
 70
     1
102
RTVSPropertyOp6
 70
     1
102
RTVSPropertyOp7
 70
     1
102
RTVSPropertyOp8
 70
     1
102
RTVSPropertyOp9
 70
     1
102
RTVSPropertyOp10
 70
     1
102
RTVSPropertyOp11
 70
     1
102
RTVSPropertyOp12
 70
     1
102
RTVSPropertyOp13
 70
     1
102
RTVSPropertyOp14
 70
     1
102
RTVSPropertyOp15
 70
     1
102
RTVSPropertyOp16
 70
     1
102
RTVSPropertyOp17
 70
     1
102
RTVSPropertyOp18
 70
     1
102
RTVSPropertyOp19
 70
     1
102
RTVSPropertyOp20
 70
     1
102
RTVSPropertyOp21
 70
     1
102
RTVSPropertyOp22
 70
     1
102
RTVSPropertyOp23
 70
     1
102
RTVSPropertyOp24
 70
     1
102
RTVSPropertyOp25
 70
     1
102
RTVSPropertyOp26
 70
     1
102
RTVSPropertyOp27
 70
     1
102
RTVSPropertyOp28
 70
     1
102
RTVSPropertyOp29
 70
     1
102
RTVSPropertyOp30
 70
     1
102
RTVSPropertyOp31
 70
     1
102
RTVSPropertyOp32
 70
     1
  0
XRECORD
  5
D5
102
{ACAD_REACTORS
330
D4
102
}
330
D4
100
AcDbXrecord
280
     1
102
RTVSPropertyOp0
 70
     1
102
RTVSPropertyOp1
 70
     1
102
RTVSPropertyOp2
 70
     1
102
RTVSPropertyOp3
 70
     1
102
RTVSPropertyOp4
 70
     1
102
RTVSPropertyOp5
 70
     1
102
RTVSPropertyOp6
 70
     1
102
RTVSPropertyOp7
 70
     1
102
RTVSPropertyOp8
 70
     1
102
RTVSPropertyOp9
 70
     1
102
RTVSPropertyOp10
 70
     1
102
RTVSPropertyOp11
 70
     1
102
RTVSPropertyOp12
 70
     1
102
RTVSPropertyOp13
 70
     1
102
RTVSPropertyOp14
 70
     1
102
RTVSPropertyOp15
 70
     1
102
RTVSPropertyOp16
 70
     1
102
RTVSPropertyOp17
 70
     1
102
RTVSPropertyOp18
 70
     1
102
RTVSPropertyOp19
 70
     1
102
RTVSPropertyOp20
 70
     1
102
RTVSPropertyOp21
 70
     1
102
RTVSPropertyOp22
 70
     1
102
RTVSPropertyOp23
 70
     1
102
RTVSPropertyOp24
 70
     1
102
RTVSPropertyOp25
 70
     1
102
RTVSPropertyOp26
 70
     1
102
RTVSPropertyOp27
 70
     1
102
RTVSPropertyOp28
 70
     1
102
RTVSPropertyOp29
 70
     1
102
RTVSPropertyOp30
 70
     1
102
RTVSPropertyOp31
 70
     1
102
RTVSPropertyOp32
 70
     1
  0
XRECORD
  5
C9
102
{ACAD_REACTORS
330
C8
102
}
330
C8
100
AcDbXrecord
280
     1
102
RTVSPropertyOp0
 70
     1
102
RTVSPropertyOp1
 70
     1
102
RTVSPropertyOp2
 70
     1
102
RTVSPropertyOp3
 70
     1
102
RTVSPropertyOp4
 70
     1
102
RTVSPropertyOp5
 70
     1
102
RTVSPropertyOp6
 70
     1
102
RTVSPropertyOp7
 70
     1
102
RTVSPropertyOp8
 70
     1
102
RTVSPropertyOp9
 70
     1
102
RTVSPropertyOp10
 70
     1
102
RTVSPropertyOp11
 70
     1
102
RTVSPropertyOp12
 70
     1
102
RTVSPropertyOp13
 70
     1
102
RTVSPropertyOp14
 70
     1
102
RTVSPropertyOp15
 70
     1
102
RTVSPropertyOp16
 70
     1
102
RTVSPropertyOp17
 70
     1
102
RTVSPropertyOp18
 70
     1
102
RTVSPropertyOp19
 70
     1
102
RTVSPropertyOp20
 70
     1
102
RTVSPropertyOp21
 70
     1
102
RTVSPropertyOp22
 70
     1
102
RTVSPropertyOp23
 70
     1
102
RTVSPropertyOp24
 70
     1
102
RTVSPropertyOp25
 70
     1
102
RTVSPropertyOp26
 70
     1
102
RTVSPropertyOp27
 70
     1
102
RTVSPropertyOp28
 70
     1
102
RTVSPropertyOp29
 70
     1
102
RTVSPropertyOp30
 70
     1
102
RTVSPropertyOp31
 70
     1
102
RTVSPropertyOp32
 70
     1
  0
XRECORD
  5
CB
102
{ACAD_REACTORS
330
CA
102
}
330
CA
100
AcDbXrecord
280
     1
102
RTVSPropertyOp0
 70
     1
102
RTVSPropertyOp1
 70
     1
102
RTVSPropertyOp2
 70
     1
102
RTVSPropertyOp3
 70
     1
102
RTVSPropertyOp4
 70
     1
102
RTVSPropertyOp5
 70
     1
102
RTVSPropertyOp6
 70
     1
102
RTVSPropertyOp7
 70
     1
102
RTVSPropertyOp8
 70
     1
102
RTVSPropertyOp9
 70
     1
102
RTVSPropertyOp10
 70
     1
102
RTVSPropertyOp11
 70
     1
102
RTVSPropertyOp12
 70
     1
102
RTVSPropertyOp13
 70
     1
102
RTVSPropertyOp14
 70
     1
102
RTVSPropertyOp15
 70
     1
102
RTVSPropertyOp16
 70
     1
102
RTVSPropertyOp17
 70
     1
102
RTVSPropertyOp18
 70
     1
102
RTVSPropertyOp19
 70
     1
102
RTVSPropertyOp20
 70
     1
102
RTVSPropertyOp21
 70
     1
102
RTVSPropertyOp22
 70
     1
102
RTVSPropertyOp23
 70
     1
102
RTVSPropertyOp24
 70
     1
102
RTVSPropertyOp25
 70
     1
102
RTVSPropertyOp26
 70
     1
102
RTVSPropertyOp27
 70
     1
102
RTVSPropertyOp28
 70
     1
102
RTVSPropertyOp29
 70
     1
102
RTVSPropertyOp30
 70
     1
102
RTVSPropertyOp31
 70
     1
102
RTVSPropertyOp32
 70
     1
  0
XRECORD
  5
D3
102
{ACAD_REACTORS
330
D2
102
}
330
D2
100
AcDbXrecord
280
     1
102
RTVSPropertyOp0
 70
     1
102
RTVSPropertyOp1
 70
     1
102
RTVSPropertyOp2
 70
     1
102
RTVSPropertyOp3
 70
     1
102
RTVSPropertyOp4
 70
     1
102
RTVSPropertyOp5
 70
     1
102
RTVSPropertyOp6
 70
     1
102
RTVSPropertyOp7
 70
     1
102
RTVSPropertyOp8
 70
     1
102
RTVSPropertyOp9
 70
     1
102
RTVSPropertyOp10
 70
     1
102
RTVSPropertyOp11
 70
     1
102
RTVSPropertyOp12
 70
     1
102
RTVSPropertyOp13
 70
     1
102
RTVSPropertyOp14
 70
     1
102
RTVSPropertyOp15
 70
     1
102
RTVSPropertyOp16
 70
     1
102
RTVSPropertyOp17
 70
     1
102
RTVSPropertyOp18
 70
     1
102
RTVSPropertyOp19
 70
     1
102
RTVSPropertyOp20
 70
     1
102
RTVSPropertyOp21
 70
     1
102
RTVSPropertyOp22
 70
     1
102
RTVSPropertyOp23
 70
     1
102
RTVSPropertyOp24
 70
     1
102
RTVSPropertyOp25
 70
     1
102
RTVSPropertyOp26
 70
     1
102
RTVSPropertyOp27
 70
     1
102
RTVSPropertyOp28
 70
     1
102
RTVSPropertyOp29
 70
     1
102
RTVSPropertyOp30
 70
     1
102
RTVSPropertyOp31
 70
     1
102
RTVSPropertyOp32
 70
     1
  0
XRECORD
  5
B7
102
{ACAD_REACTORS
330
B6
102
}
330
B6
100
AcDbXrecord
280
     1
102
RTVSPropertyOp0
 70
     1
102
RTVSPropertyOp1
 70
     1
102
RTVSPropertyOp2
 70
     1
102
RTVSPropertyOp3
 70
     1
102
RTVSPropertyOp4
 70
     1
102
RTVSPropertyOp5
 70
     1
102
RTVSPropertyOp6
 70
     1
102
RTVSPropertyOp7
 70
     1
102
RTVSPropertyOp8
 70
     1
102
RTVSPropertyOp9
 70
     1
102
RTVSPropertyOp10
 70
     1
102
RTVSPropertyOp11
 70
     1
102
RTVSPropertyOp12
 70
     1
102
RTVSPropertyOp13
 70
     1
102
RTVSPropertyOp14
 70
     1
102
RTVSPropertyOp15
 70
     1
102
RTVSPropertyOp16
 70
     1
102
RTVSPropertyOp17
 70
     1
102
RTVSPropertyOp18
 70
     1
102
RTVSPropertyOp19
 70
     1
102
RTVSPropertyOp20
 70
     1
102
RTVSPropertyOp21
 70
     1
102
RTVSPropertyOp22
 70
     1
102
RTVSPropertyOp23
 70
     1
102
RTVSPropertyOp24
 70
     1
102
RTVSPropertyOp25
 70
     1
102
RTVSPropertyOp26
 70
     1
102
RTVSPropertyOp27
 70
     1
102
RTVSPropertyOp28
 70
     1
102
RTVSPropertyOp29
 70
     1
102
RTVSPropertyOp30
 70
     1
102
RTVSPropertyOp31
 70
     1
102
RTVSPropertyOp32
 70
     1
  0
XRECORD
  5
B9
102
{ACAD_REACTORS
330
B8
102
}
330
B8
100
AcDbXrecord
280
     1
102
RTVSPropertyOp0
 70
     1
102
RTVSPropertyOp1
 70
     1
102
RTVSPropertyOp2
 70
     1
102
RTVSPropertyOp3
 70
     1
102
RTVSPropertyOp4
 70
     1
102
RTVSPropertyOp5
 70
     1
102
RTVSPropertyOp6
 70
     1
102
RTVSPropertyOp7
 70
     1
102
RTVSPropertyOp8
 70
     1
102
RTVSPropertyOp9
 70
     1
102
RTVSPropertyOp10
 70
     1
102
RTVSPropertyOp11
 70
     1
102
RTVSPropertyOp12
 70
     1
102
RTVSPropertyOp13
 70
     1
102
RTVSPropertyOp14
 70
     1
102
RTVSPropertyOp15
 70
     1
102
RTVSPropertyOp16
 70
     1
102
RTVSPropertyOp17
 70
     1
102
RTVSPropertyOp18
 70
     1
102
RTVSPropertyOp19
 70
     1
102
RTVSPropertyOp20
 70
     1
102
RTVSPropertyOp21
 70
     1
102
RTVSPropertyOp22
 70
     1
102
RTVSPropertyOp23
 70
     1
102
RTVSPropertyOp24
 70
     1
102
RTVSPropertyOp25
 70
     1
102
RTVSPropertyOp26
 70
     1
102
RTVSPropertyOp27
 70
     1
102
RTVSPropertyOp28
 70
     1
102
RTVSPropertyOp29
 70
     1
102
RTVSPropertyOp30
 70
     1
102
RTVSPropertyOp31
 70
     1
102
RTVSPropertyOp32
 70
     1
  0
XRECORD
  5
BB
102
{ACAD_REACTORS
330
BA
102
}
330
BA
100
AcDbXrecord
280
     1
102
RTVSPropertyOp0
 70
     1
102
RTVSPropertyOp1
 70
     1
102
RTVSPropertyOp2
 70
     1
102
RTVSPropertyOp3
 70
     1
102
RTVSPropertyOp4
 70
     1
102
RTVSPropertyOp5
 70
     1
102
RTVSPropertyOp6
 70
     1
102
RTVSPropertyOp7
 70
     1
102
RTVSPropertyOp8
 70
     1
102
RTVSPropertyOp9
 70
     1
102
RTVSPropertyOp10
 70
     1
102
RTVSPropertyOp11
 70
     1
102
RTVSPropertyOp12
 70
     1
102
RTVSPropertyOp13
 70
     1
102
RTVSPropertyOp14
 70
     1
102
RTVSPropertyOp15
 70
     1
102
RTVSPropertyOp16
 70
     1
102
RTVSPropertyOp17
 70
     1
102
RTVSPropertyOp18
 70
     1
102
RTVSPropertyOp19
 70
     1
102
RTVSPropertyOp20
 70
     1
102
RTVSPropertyOp21
 70
     1
102
RTVSPropertyOp22
 70
     1
102
RTVSPropertyOp23
 70
     1
102
RTVSPropertyOp24
 70
     1
102
RTVSPropertyOp25
 70
     1
102
RTVSPropertyOp26
 70
     1
102
RTVSPropertyOp27
 70
     1
102
RTVSPropertyOp28
 70
     1
102
RTVSPropertyOp29
 70
     1
102
RTVSPropertyOp30
 70
     1
102
RTVSPropertyOp31
 70
     1
102
RTVSPropertyOp32
 70
     1
  0
XRECORD
  5
BD
102
{ACAD_REACTORS
330
BC
102
}
330
BC
100
AcDbXrecord
280
     1
102
RTVSPropertyOp0
 70
     1
102
RTVSPropertyOp1
 70
     1
102
RTVSPropertyOp2
 70
     1
102
RTVSPropertyOp3
 70
     1
102
RTVSPropertyOp4
 70
     1
102
RTVSPropertyOp5
 70
     1
102
RTVSPropertyOp6
 70
     1
102
RTVSPropertyOp7
 70
     1
102
RTVSPropertyOp8
 70
     1
102
RTVSPropertyOp9
 70
     1
102
RTVSPropertyOp10
 70
     1
102
RTVSPropertyOp11
 70
     1
102
RTVSPropertyOp12
 70
     1
102
RTVSPropertyOp13
 70
     1
102
RTVSPropertyOp14
 70
     1
102
RTVSPropertyOp15
 70
     1
102
RTVSPropertyOp16
 70
     1
102
RTVSPropertyOp17
 70
     1
102
RTVSPropertyOp18
 70
     1
102
RTVSPropertyOp19
 70
     1
102
RTVSPropertyOp20
 70
     1
102
RTVSPropertyOp21
 70
     1
102
RTVSPropertyOp22
 70
     1
102
RTVSPropertyOp23
 70
     1
102
RTVSPropertyOp24
 70
     1
102
RTVSPropertyOp25
 70
     1
102
RTVSPropertyOp26
 70
     1
102
RTVSPropertyOp27
 70
     1
102
RTVSPropertyOp28
 70
     1
102
RTVSPropertyOp29
 70
     1
102
RTVSPropertyOp30
 70
     1
102
RTVSPropertyOp31
 70
     1
102
RTVSPropertyOp32
 70
     1
  0
XRECORD
  5
D1
102
{ACAD_REACTORS
330
D0
102
}
330
D0
100
AcDbXrecord
280
     1
102
RTVSPropertyOp0
 70
     1
102
RTVSPropertyOp1
 70
     1
102
RTVSPropertyOp2
 70
     1
102
RTVSPropertyOp3
 70
     1
102
RTVSPropertyOp4
 70
     1
102
RTVSPropertyOp5
 70
     1
102
RTVSPropertyOp6
 70
     1
102
RTVSPropertyOp7
 70
     1
102
RTVSPropertyOp8
 70
     1
102
RTVSPropertyOp9
 70
     1
102
RTVSPropertyOp10
 70
     1
102
RTVSPropertyOp11
 70
     1
102
RTVSPropertyOp12
 70
     1
102
RTVSPropertyOp13
 70
     1
102
RTVSPropertyOp14
 70
     1
102
RTVSPropertyOp15
 70
     1
102
RTVSPropertyOp16
 70
     1
102
RTVSPropertyOp17
 70
     1
102
RTVSPropertyOp18
 70
     1
102
RTVSPropertyOp19
 70
     1
102
RTVSPropertyOp20
 70
     1
102
RTVSPropertyOp21
 70
     1
102
RTVSPropertyOp22
 70
     1
102
RTVSPropertyOp23
 70
     1
102
RTVSPropertyOp24
 70
     1
102
RTVSPropertyOp25
 70
     1
102
RTVSPropertyOp26
 70
     1
102
RTVSPropertyOp27
 70
     1
102
RTVSPropertyOp28
 70
     1
102
RTVSPropertyOp29
 70
     1
102
RTVSPropertyOp30
 70
     1
102
RTVSPropertyOp31
 70
     1
102
RTVSPropertyOp32
 70
     1
  0
XRECORD
  5
C7
102
{ACAD_REACTORS
330
C6
102
}
330
C6
100
AcDbXrecord
280
     1
102
RTVSPropertyOp0
 70
     1
102
RTVSPropertyOp1
 70
     1
102
RTVSPropertyOp2
 70
     1
102
RTVSPropertyOp3
 70
     1
102
RTVSPropertyOp4
 70
     1
102
RTVSPropertyOp5
 70
     1
102
RTVSPropertyOp6
 70
     1
102
RTVSPropertyOp7
 70
     1
102
RTVSPropertyOp8
 70
     1
102
RTVSPropertyOp9
 70
     1
102
RTVSPropertyOp10
 70
     1
102
RTVSPropertyOp11
 70
     1
102
RTVSPropertyOp12
 70
     1
102
RTVSPropertyOp13
 70
     1
102
RTVSPropertyOp14
 70
     1
102
RTVSPropertyOp15
 70
     1
102
RTVSPropertyOp16
 70
     1
102
RTVSPropertyOp17
 70
     1
102
RTVSPropertyOp18
 70
     1
102
RTVSPropertyOp19
 70
     1
102
RTVSPropertyOp20
 70
     1
102
RTVSPropertyOp21
 70
     1
102
RTVSPropertyOp22
 70
     1
102
RTVSPropertyOp23
 70
     1
102
RTVSPropertyOp24
 70
     1
102
RTVSPropertyOp25
 70
     1
102
RTVSPropertyOp26
 70
     1
102
RTVSPropertyOp27
 70
     1
102
RTVSPropertyOp28
 70
     1
102
RTVSPropertyOp29
 70
     1
102
RTVSPropertyOp30
 70
     1
102
RTVSPropertyOp31
 70
     1
102
RTVSPropertyOp32
 70
     1
  0
XRECORD
  5
CF
102
{ACAD_REACTORS
330
CE
102
}
330
CE
100
AcDbXrecord
280
     1
102
RTVSPropertyOp0
 70
     1
102
RTVSPropertyOp1
 70
     1
102
RTVSPropertyOp2
 70
     1
102
RTVSPropertyOp3
 70
     1
102
RTVSPropertyOp4
 70
     1
102
RTVSPropertyOp5
 70
     1
102
RTVSPropertyOp6
 70
     1
102
RTVSPropertyOp7
 70
     1
102
RTVSPropertyOp8
 70
     1
102
RTVSPropertyOp9
 70
     1
102
RTVSPropertyOp10
 70
     1
102
RTVSPropertyOp11
 70
     1
102
RTVSPropertyOp12
 70
     1
102
RTVSPropertyOp13
 70
     1
102
RTVSPropertyOp14
 70
     1
102
RTVSPropertyOp15
 70
     1
102
RTVSPropertyOp16
 70
     1
102
RTVSPropertyOp17
 70
     1
102
RTVSPropertyOp18
 70
     1
102
RTVSPropertyOp19
 70
     1
102
RTVSPropertyOp20
 70
     1
102
RTVSPropertyOp21
 70
     1
102
RTVSPropertyOp22
 70
     1
102
RTVSPropertyOp23
 70
     1
102
RTVSPropertyOp24
 70
     1
102
RTVSPropertyOp25
 70
     1
102
RTVSPropertyOp26
 70
     1
102
RTVSPropertyOp27
 70
     1
102
RTVSPropertyOp28
 70
     1
102
RTVSPropertyOp29
 70
     1
102
RTVSPropertyOp30
 70
     1
102
RTVSPropertyOp31
 70
     1
102
RTVSPropertyOp32
 70
     1
  0
ENDSEC
  0
EOF
